<svg width="96" height="40" viewBox="0 0 96 40" fill="none" xmlns="http://www.w3.org/2000/svg">
<path d="M13.9678 6.00146C17.5477 6.00146 20.8079 7.34546 23.285 9.56147C23.9323 10.1375 24.8672 10.2335 25.6103 9.80147L30.9082 6.73746C32.1947 5.99346 32.2426 4.15346 31.0041 3.32946C27.8397 1.23346 24.0441 0.00146484 19.9609 0.00146484C9.16537 0.00146484 0.383555 8.56946 0 19.2815C0.375565 11.8815 6.48049 6.00146 13.9678 6.00146Z" fill="#F75B00"/>
<path d="M39.4423 15.5695C39.2345 14.6575 38.4274 14.0015 37.4925 14.0015H11.9781C11.9781 14.0015 10.2441 14.0015 10.0124 18.8335C9.98842 19.1935 9.98043 19.5855 9.98043 20.0015C9.98043 21.0415 10.0364 21.9055 10.1402 22.6175C10.5638 25.6015 11.6745 25.9535 11.9302 25.9935H11.9781H26.6012C24.3558 30.7215 19.5453 33.9935 13.9678 33.9935C6.48049 34.0015 0.375565 28.1215 0 20.7215C0.391546 31.7375 9.66879 40.4815 20.8718 39.9775C31.084 39.5215 39.4023 31.2335 39.9057 21.0175C40.0016 19.1375 39.8338 17.3135 39.4343 15.5695H39.4423Z" fill="#F75B00"/>
<g clip-path="url(#clip0_333_9090)">
<path d="M48.4944 29.0001C48.2182 29.0001 47.9944 28.7763 47.9944 28.5001V12.7001C47.9944 12.424 48.2182 12.2001 48.4944 12.2001H56.2024C58.3144 12.2001 59.8984 12.6001 60.9544 13.4001C62.0264 14.2001 62.5624 15.2561 62.5624 16.5681C62.5624 17.4481 62.3464 18.2161 61.9144 18.8721C61.4824 19.5121 60.8904 20.0081 60.1384 20.3601C59.5902 20.6167 58.9825 20.7798 58.3154 20.8493C57.9579 20.8866 57.7191 20.5153 57.8702 20.1892C57.9508 20.0154 58.1251 19.9029 58.3166 19.9094C59.245 19.9412 60.0763 20.1154 60.8104 20.4321C61.6264 20.7681 62.2584 21.2721 62.7064 21.9441C63.1704 22.6161 63.4024 23.4401 63.4024 24.4161C63.4024 25.8561 62.8344 26.9841 61.6984 27.8001C60.5624 28.6001 58.8904 29.0001 56.6824 29.0001H48.4944ZM51.8584 25.5721C51.8584 25.8483 52.0822 26.0721 52.3584 26.0721H56.3944C57.4024 26.0721 58.1624 25.9121 58.6744 25.5921C59.2024 25.2561 59.4664 24.7281 59.4664 24.0081C59.4664 23.3041 59.2024 22.7841 58.6744 22.4481C58.1624 22.0961 57.4024 21.9201 56.3944 21.9201H52.0704C51.7942 21.9201 51.5704 21.6963 51.5704 21.4201V19.5881C51.5704 19.312 51.7942 19.0881 52.0704 19.0881H55.7224C56.6664 19.0881 57.3864 18.9281 57.8824 18.6081C58.3944 18.2721 58.6504 17.7681 58.6504 17.0961C58.6504 16.4401 58.3944 15.9521 57.8824 15.6321C57.3864 15.2961 56.6664 15.1281 55.7224 15.1281H52.3584C52.0822 15.1281 51.8584 15.352 51.8584 15.6281V25.5721ZM65.646 29.0001C65.3698 29.0001 65.146 28.7763 65.146 28.5001V26.6956C65.146 26.5581 65.2026 26.4266 65.3027 26.3321L71.626 20.3601C72.138 19.8961 72.514 19.4801 72.754 19.1121C72.994 18.7441 73.154 18.4081 73.234 18.1041C73.33 17.8001 73.378 17.5201 73.378 17.2641C73.378 16.5921 73.146 16.0801 72.682 15.7281C72.234 15.3601 71.57 15.1761 70.69 15.1761C69.986 15.1761 69.33 15.3121 68.722 15.5841C68.2645 15.7943 67.8595 16.0953 67.5072 16.487C67.3294 16.6846 67.0349 16.7433 66.8114 16.5994L64.805 15.3072C64.5703 15.156 64.5033 14.8403 64.6769 14.6216C65.287 13.8529 66.0834 13.2298 67.066 12.7521C68.218 12.1921 69.546 11.9121 71.05 11.9121C72.298 11.9121 73.386 12.1201 74.314 12.5361C75.258 12.9361 75.986 13.5041 76.498 14.2401C77.026 14.9761 77.29 15.8561 77.29 16.8801C77.29 17.4241 77.218 17.9681 77.074 18.5121C76.946 19.0401 76.674 19.6001 76.258 20.1921C75.858 20.7841 75.266 21.4481 74.482 22.1841L69.5852 26.7967C69.3444 27.0235 68.9536 26.9582 68.7997 26.6653L68.7469 26.5647C68.5719 26.2317 68.8134 25.8321 69.1895 25.8321H77.342C77.6181 25.8321 77.842 26.056 77.842 26.3321V28.5001C77.842 28.7763 77.6181 29.0001 77.342 29.0001H65.646ZM81.0022 29.0001C80.726 29.0001 80.5022 28.7763 80.5022 28.5001V12.7001C80.5022 12.424 80.726 12.2001 81.0022 12.2001H88.7102C90.8222 12.2001 92.4062 12.6001 93.4622 13.4001C94.5342 14.2001 95.0702 15.2561 95.0702 16.5681C95.0702 17.4481 94.8542 18.2161 94.4222 18.8721C93.9902 19.5121 93.3982 20.0081 92.6462 20.3601C92.098 20.6167 91.4903 20.7798 90.8232 20.8493C90.4657 20.8866 90.2269 20.5153 90.378 20.1892C90.4586 20.0154 90.6329 19.9029 90.8244 19.9094C91.7528 19.9412 92.5841 20.1154 93.3182 20.4321C94.1342 20.7681 94.7662 21.2721 95.2142 21.9441C95.6782 22.6161 95.9102 23.4401 95.9102 24.4161C95.9102 25.8561 95.3422 26.9841 94.2062 27.8001C93.0702 28.6001 91.3982 29.0001 89.1902 29.0001H81.0022ZM84.3662 25.5721C84.3662 25.8483 84.59 26.0721 84.8662 26.0721H88.9022C89.9102 26.0721 90.6702 25.9121 91.1822 25.5921C91.7102 25.2561 91.9742 24.7281 91.9742 24.0081C91.9742 23.3041 91.7102 22.7841 91.1822 22.4481C90.6702 22.0961 89.9102 21.9201 88.9022 21.9201H84.5782C84.302 21.9201 84.0782 21.6963 84.0782 21.4201V19.5881C84.0782 19.312 84.302 19.0881 84.5782 19.0881H88.2302C89.1742 19.0881 89.8942 18.9281 90.3902 18.6081C90.9022 18.2721 91.1582 17.7681 91.1582 17.0961C91.1582 16.4401 90.9022 15.9521 90.3902 15.6321C89.8942 15.2961 89.1742 15.1281 88.2302 15.1281H84.8662C84.59 15.1281 84.3662 15.352 84.3662 15.6281V25.5721Z" fill="#1E1E1E"/>
</g>
<defs>
<clipPath id="clip0_333_9090">
<rect width="48" height="18" fill="white" transform="translate(47.9321 11)"/>
</clipPath>
</defs>
</svg>
