<svg width="264" height="217" viewBox="0 0 264 217" fill="none" xmlns="http://www.w3.org/2000/svg">
<path d="M53.7148 158.097C53.7148 158.097 74.9705 185.012 111.296 186.106C147.622 187.2 180.107 164.54 206.907 146.909C233.707 129.277 242.502 99.7372 229.12 75.3729C215.739 51.0086 191.458 59.3562 162.318 42.2349C133.178 25.1136 127.954 16.1347 94.1274 17.6707C60.3004 19.2066 32.3435 55.3323 33.5743 95.8027C34.8051 136.273 53.7148 158.097 53.7148 158.097Z" fill="#F2F4F7"/>
<path opacity="0.7" d="M53.7148 158.097C53.7148 158.097 74.9705 185.012 111.296 186.106C147.622 187.2 180.107 164.54 206.907 146.909C233.707 129.277 242.502 99.7372 229.12 75.3729C215.739 51.0086 191.458 59.3562 162.318 42.2349C133.178 25.1136 127.954 16.1347 94.1274 17.6707C60.3004 19.2066 32.3435 55.3323 33.5743 95.8027C34.8051 136.273 53.7148 158.097 53.7148 158.097Z" fill="white"/>
<path d="M60.3221 24.9087C60.2905 24.9087 60.6903 22.9467 60.7271 22.8047C61.1795 21.4002 62.8837 18.9596 64.5301 18.9649C64.8043 18.9726 65.0739 19.0381 65.3211 19.157C65.5684 19.276 65.7877 19.4457 65.9649 19.6552C66.1421 19.8646 66.2732 20.1091 66.3495 20.3726C66.4258 20.6362 66.4457 20.9128 66.4079 21.1846C66.2869 22.3418 65.2454 23.3307 64.3039 23.8987C63.1993 24.5878 60.3221 24.9087 60.3221 24.9087Z" fill="#F2F4F7"/>
<path d="M57.1253 11.7164C58.7033 12.2739 59.4502 15.1459 59.3976 16.6187C59.3976 16.7449 59.103 18.7227 59.0767 18.7227H59.0452C59.1662 19.175 59.2977 19.6642 59.4292 20.2007C59.6606 21.1896 59.9131 22.3047 60.1077 23.5461C60.3334 24.8759 60.4809 26.2177 60.5495 27.5647C60.6334 29.0741 60.5824 30.588 60.397 32.0883C60.3946 32.1058 60.3946 32.1235 60.397 32.1409C60.6021 31.7044 61.2123 30.4946 61.2649 30.4104C62.0749 29.1796 64.3578 27.2544 65.9516 27.712C66.2132 27.7918 66.4552 27.9259 66.6615 28.1055C66.8679 28.2851 67.0341 28.5063 67.1492 28.7544C67.2644 29.0026 67.3259 29.2723 67.3298 29.5458C67.3337 29.8194 67.2799 30.0907 67.1719 30.342C66.7511 31.4256 65.4887 32.1041 64.4314 32.4039C63.2374 32.7458 60.5758 32.3461 60.3654 32.3093C60.1405 33.8321 59.8136 35.3381 59.3871 36.8171C59.1416 37.6797 58.8751 38.5406 58.5876 39.3997C58.7717 39.0263 58.9452 38.6949 58.9715 38.6528C59.7816 37.4167 62.0697 35.4968 63.6582 35.9544C63.9199 36.0343 64.1618 36.1683 64.3682 36.348C64.5745 36.5276 64.7407 36.7487 64.8559 36.9968C64.971 37.245 65.0326 37.5147 65.0365 37.7882C65.0404 38.0618 64.9865 38.3331 64.8785 38.5844C64.4577 39.668 63.1953 40.3465 62.1381 40.6464C61.0808 40.9462 58.7874 40.6464 58.1878 40.5675L57.8564 41.5563C57.3304 43.1343 56.7571 44.7123 56.2784 46.2588C56.1048 46.7848 55.9523 47.3529 55.7998 47.8999C55.9681 47.5685 56.1101 47.2897 56.1364 47.2477C56.9412 46.0168 59.2293 44.0917 60.8178 44.5493C61.079 44.6299 61.3204 44.7644 61.5264 44.9441C61.7325 45.1238 61.8986 45.3446 62.014 45.5924C62.1295 45.8402 62.1918 46.1094 62.1968 46.3827C62.2019 46.6561 62.1496 46.9274 62.0434 47.1793C61.6226 48.2681 60.3549 48.9414 59.2977 49.2465C58.2404 49.5515 56.1732 49.2833 55.4579 49.1833C55.3158 49.7462 55.1791 50.309 55.0686 50.8613C55.0002 51.2453 54.9108 51.6029 54.8635 51.9869L54.7057 53.1178C54.632 53.8384 54.5479 54.5801 54.4953 55.2849C54.4532 55.7741 54.4216 56.2423 54.3901 56.7157C54.5584 56.1897 54.9161 55.1008 54.9161 55.0167C55.4986 53.8595 56.3678 52.8707 57.4409 52.1447C57.4981 52.0107 57.5704 51.8836 57.6565 51.766C57.8055 51.5362 58.0012 51.3404 58.231 51.1914C58.4607 51.0424 58.7193 50.9436 58.9899 50.9014C59.2605 50.8592 59.5369 50.8746 59.8011 50.9465C60.0654 51.0185 60.3114 51.1454 60.5232 51.3189C61.7751 52.3972 61.4595 55.3533 60.8862 56.7104C60.8546 56.7893 60.3865 57.6151 60.0867 58.1359C60.3128 57.8571 60.5232 57.5836 60.7599 57.3048C61.2176 56.742 61.691 56.1949 62.1959 55.6058L62.9691 54.7695C63.2216 54.4854 63.5267 54.2435 63.8055 53.9331C64.463 53.2967 65.1626 52.6812 65.8832 52.0763C65.394 51.6766 63.6687 50.2248 63.1743 49.2359C62.6798 48.2471 62.3274 46.8637 62.8429 45.8169C62.9563 45.5673 63.1208 45.3443 63.3259 45.1624C63.531 44.9804 63.772 44.8436 64.0334 44.7608C64.2948 44.6779 64.5706 44.651 64.843 44.6816C65.1155 44.7122 65.3785 44.7998 65.6149 44.9385C67.0088 45.8169 67.1508 48.7888 66.7879 50.1985C66.7879 50.2879 66.3881 51.2821 66.1725 51.8239C66.6091 51.4662 67.0404 51.1085 67.4927 50.7719C68.7972 49.7672 70.149 48.7836 71.4903 47.8L72.7159 46.8952C72.5423 46.7532 70.4594 45.07 69.9018 43.9602C69.4126 42.9765 69.055 41.5879 69.5704 40.5464C69.6832 40.2962 69.8474 40.0726 70.0524 39.8902C70.2574 39.7078 70.4986 39.5707 70.7601 39.4878C71.0217 39.4049 71.2979 39.3781 71.5705 39.4091C71.8432 39.4402 72.1062 39.5284 72.3425 39.668C73.7416 40.5412 73.8784 43.5131 73.5154 44.928C73.4891 45.0332 72.9474 46.4639 72.7948 46.8216C73.689 46.1536 74.578 45.4803 75.4248 44.7755C76.5771 43.8362 77.6665 42.8223 78.686 41.7404C78.6071 41.6721 76.4242 39.9257 75.8561 38.7948C75.3617 37.8112 75.0093 36.4173 75.5248 35.3758C75.6376 35.1264 75.8016 34.9035 76.0062 34.7215C76.2108 34.5396 76.4514 34.4028 76.7123 34.3199C76.9733 34.2371 77.2487 34.2101 77.5208 34.2407C77.7929 34.2712 78.0555 34.3587 78.2915 34.4974C79.6907 35.3758 79.8327 38.3477 79.4698 39.7574C79.4698 39.8521 79.0332 40.9409 78.828 41.4564L78.9069 41.509C79.9034 40.3908 80.7993 39.1868 81.5843 37.9112C82.0261 37.2116 82.4048 36.5225 82.7625 35.844C82.3207 35.5599 80.3271 34.2397 79.7012 33.2771C79.0753 32.3145 78.6019 31.01 78.9964 29.916C79.0809 29.6552 79.2194 29.4151 79.403 29.2114C79.5865 29.0077 79.8109 28.845 80.0615 28.7339C80.3121 28.6227 80.5833 28.5656 80.8575 28.5662C81.1316 28.5669 81.4026 28.6253 81.6527 28.7377C83.1412 29.4583 83.6041 32.4197 83.399 33.8557C83.399 33.9346 83.1886 34.7289 83.036 35.3022C83.1886 34.9919 83.3569 34.6763 83.4989 34.3764C84.0249 33.2561 84.472 32.1935 84.8402 31.2204C85.0506 30.6944 85.2242 30.1947 85.3662 29.7319C85.0769 29.2059 83.9513 27.186 83.8408 26.0499C83.7304 24.9137 83.9092 23.5356 84.7666 22.7466C84.9618 22.5545 85.1953 22.4056 85.4518 22.3096C85.7083 22.2137 85.9822 22.1728 86.2556 22.1897C86.529 22.2066 86.7957 22.2808 87.0385 22.4076C87.2813 22.5343 87.4947 22.7108 87.6648 22.9254C88.6537 24.2457 87.7122 27.0703 86.8601 28.2696C86.7864 28.3748 85.4451 29.8476 85.4293 29.8476V29.816C85.2821 30.2631 85.1243 30.7418 84.9349 31.2573C84.5877 32.2146 84.1827 33.2876 83.662 34.4133C83.1115 35.6449 82.4916 36.8444 81.8052 38.0058C81.0393 39.3086 80.1591 40.5408 79.1752 41.6878L79.1384 41.7299C79.5487 41.4774 80.7164 40.8042 80.8163 40.7621C82.1734 40.1835 85.1295 39.8574 86.2131 41.0987C86.3875 41.31 86.5154 41.5556 86.5887 41.8196C86.6619 42.0836 86.6787 42.36 86.638 42.6309C86.5973 42.9018 86.5 43.1611 86.3525 43.392C86.205 43.6228 86.0105 43.82 85.7818 43.9707C84.8297 44.644 83.4042 44.4967 82.3522 44.1811C81.1687 43.8024 79.1962 42.0034 79.0174 41.8562C77.99 43.0023 76.8864 44.0778 75.7141 45.0753C75.0356 45.6591 74.3307 46.2272 73.6101 46.79C73.9731 46.5796 74.2992 46.3955 74.3465 46.3745C75.6983 45.7959 78.6545 45.4698 79.738 46.7111C79.9132 46.9221 80.0419 47.1676 80.1155 47.4317C80.1892 47.6959 80.2063 47.9726 80.1655 48.2437C80.1248 48.5149 80.0272 48.7744 79.8792 49.0052C79.7312 49.236 79.5361 49.4329 79.3067 49.5831C78.3599 50.2564 76.9292 50.1091 75.8824 49.7935C74.8357 49.4779 73.0841 47.9525 72.6318 47.5475C72.353 47.7579 72.1058 47.9735 71.8059 48.1892C70.4857 49.1991 69.1759 50.2038 67.8872 51.2347C67.4401 51.5924 67.0141 51.9659 66.5828 52.3393L67.2245 51.9817C68.5763 51.4031 71.5324 51.0717 72.616 52.313C72.7905 52.5247 72.9185 52.7708 72.9918 53.0352C73.065 53.2996 73.0819 53.5764 73.0412 53.8477C73.0005 54.119 72.9032 54.3788 72.7557 54.6101C72.6081 54.8414 72.4136 55.039 72.1847 55.1903C71.2379 55.8635 69.8071 55.7163 68.7604 55.3954C67.7137 55.0745 66.1304 53.7017 65.6044 53.223C65.1783 53.6175 64.747 54.012 64.3525 54.4118C64.0843 54.6906 63.8265 54.9378 63.5635 55.2376L62.8061 56.0897C62.3485 56.6525 61.8698 57.2259 61.4332 57.7834C61.1281 58.1674 60.8441 58.5409 60.5601 58.9196C60.9966 58.5514 61.8803 57.8676 61.9592 57.8045C63.2058 57.026 66.0831 56.2265 67.3402 57.3206C67.5439 57.5036 67.7069 57.7274 67.8184 57.9775C67.93 58.2277 67.9876 58.4985 67.9876 58.7723C67.9876 59.0462 67.93 59.317 67.8184 59.5671C67.7069 59.8172 67.5439 60.0411 67.3402 60.2241C66.4986 61.0341 65.0679 61.1183 63.9843 60.95C62.785 60.7606 60.6179 59.372 60.3497 59.1721C59.8763 59.798 59.4239 60.4029 59.0031 60.9868C57.5461 63.0014 56.4099 64.7372 55.6314 65.9575L55.5525 66.0837L54.5426 65.5945L54.7004 65.3526C55.5157 64.1323 56.7045 62.407 58.2194 60.4082C58.698 59.7717 59.2188 59.1037 59.7605 58.4252C59.1971 57.8095 58.6702 57.1614 58.1825 56.4842C57.0201 56.9418 54.611 56.9576 54.2954 56.9576C54.2481 57.7361 54.206 58.4988 54.1744 59.2142C54.0692 61.6969 54.0797 63.7693 54.106 65.2211V65.3894L52.9962 64.8634C52.9962 63.4222 53.054 61.476 53.2013 59.1721C53.2487 58.3831 53.317 57.5362 53.3959 56.6683C53.0856 56.5894 50.5766 55.9477 49.6298 55.1903C48.7724 54.5012 47.8677 53.3913 47.8992 52.2236C47.8971 51.9497 47.9527 51.6784 48.0624 51.4273C48.1721 51.1763 48.3334 50.9512 48.5358 50.7666C48.7383 50.582 48.9773 50.4421 49.2374 50.356C49.4975 50.2699 49.7727 50.2396 50.0453 50.2669C51.6812 50.4773 53.054 53.1178 53.3223 54.5643C53.3223 54.6537 53.4065 55.6163 53.438 56.1949C53.4748 55.8425 53.5011 55.4953 53.5432 55.1429C53.6116 54.4223 53.7063 53.7069 53.8062 52.9337C53.8641 52.5603 53.9272 52.1868 53.9851 51.8081C54.0429 51.4294 54.1429 51.0401 54.2218 50.6509C54.4216 49.7567 54.6636 48.8572 54.9319 47.9578C54.3007 47.8946 52.0652 47.6316 51.1078 47.0793C50.1505 46.527 49.088 45.5697 48.946 44.4125C48.902 44.1418 48.9156 43.8649 48.9858 43.5999C49.056 43.3348 49.1813 43.0875 49.3535 42.8741C49.5257 42.6606 49.741 42.4859 49.9853 42.3613C50.2295 42.2367 50.4973 42.1649 50.7712 42.1507C52.4176 42.1139 54.1744 44.5125 54.6583 45.9064C54.6899 45.9905 54.9266 47.0267 55.0476 47.6001C55.2106 47.0741 55.3684 46.5218 55.5736 45.98C56.0996 44.402 56.694 42.8608 57.2726 41.2986C57.4514 40.8199 57.6197 40.3413 57.7986 39.8626C57.5724 39.8626 54.9056 39.5838 53.8325 38.9684C52.8805 38.4424 51.8179 37.4588 51.6707 36.3016C51.6275 36.031 51.6417 35.7544 51.7123 35.4897C51.7828 35.225 51.9082 34.978 52.0802 34.7648C52.2523 34.5516 52.4672 34.3769 52.7111 34.252C52.9549 34.1271 53.2223 34.0548 53.4959 34.0398C55.1475 34.003 56.9044 36.4015 57.3883 37.7954C57.4251 37.9006 57.7617 39.3734 57.8301 39.7732C58.2088 38.7212 58.5823 37.6692 58.8821 36.6172C59.327 35.197 59.6784 33.7491 59.9341 32.283C59.8289 32.283 57.0464 32.02 55.947 31.3888C54.9897 30.8628 53.9272 29.8791 53.7852 28.7219C53.7412 28.4515 53.7547 28.1749 53.825 27.9101C53.8953 27.6453 54.0206 27.3983 54.1929 27.1853C54.3652 26.9723 54.5805 26.7981 54.8248 26.674C55.0691 26.55 55.3368 26.4789 55.6104 26.4654C57.2568 26.4233 59.0136 28.8219 59.4975 30.2158C59.5291 30.3052 59.7921 31.4414 59.9026 31.9884H59.992C60.2092 30.5068 60.2937 29.0088 60.2445 27.5121C60.2445 26.6863 60.1656 25.9026 60.0867 25.1399C59.5607 25.1399 57.1726 25.1399 56.1206 24.6823C55.0686 24.2246 53.9482 23.4041 53.6747 22.2732C53.6018 22.0083 53.5856 21.7309 53.6272 21.4593C53.6688 21.1877 53.7674 20.928 53.9163 20.6971C54.0653 20.4662 54.2613 20.2693 54.4916 20.1195C54.7219 19.9696 54.9813 19.87 55.2527 19.8273C56.8886 19.6011 58.8979 21.7998 59.5344 23.1253C59.5659 23.1989 59.8394 23.9722 60.0235 24.5402C59.9867 24.1931 59.9499 23.8354 59.9026 23.4882C59.7395 22.2521 59.5081 21.1318 59.2977 20.1376C59.1714 19.5748 59.0504 19.0856 58.9295 18.5964C58.4035 18.3334 56.3415 17.2499 55.6367 16.3767C54.9319 15.5036 54.3007 14.2359 54.5847 13.1103C54.6476 12.8444 54.7655 12.5948 54.931 12.3774C55.0964 12.1601 55.3056 11.9799 55.5451 11.8485C55.7846 11.7171 56.049 11.6375 56.3212 11.6147C56.5934 11.5919 56.8673 11.6266 57.1253 11.7164Z" fill="#F2F4F7"/>
<path d="M86.9403 37.1168C85.6516 37.0642 83.0742 35.744 83.0742 35.744C83.0742 35.744 84.4576 34.308 84.5575 34.2291C85.7095 33.3139 88.4762 32.2145 89.8491 33.1298C90.0735 33.287 90.2622 33.4898 90.4028 33.725C90.5434 33.9602 90.6328 34.2224 90.6651 34.4945C90.6974 34.7666 90.6718 35.0424 90.5901 35.304C90.5084 35.5655 90.3724 35.8069 90.191 36.0122C89.4546 36.9117 88.0397 37.1642 86.9403 37.1168Z" fill="#F2F4F7"/>
<g opacity="0.5">
<path d="M60.3182 24.9087C60.2866 24.9087 60.6864 22.9467 60.7232 22.8047C61.1756 21.4002 62.8798 18.9596 64.5262 18.9649C64.8004 18.9726 65.07 19.0381 65.3172 19.157C65.5644 19.276 65.7838 19.4457 65.961 19.6552C66.1382 19.8646 66.2693 20.1091 66.3456 20.3726C66.4219 20.6362 66.4418 20.9128 66.404 21.1846C66.283 22.3418 65.2415 23.3307 64.3 23.8987C63.1954 24.5878 60.3182 24.9087 60.3182 24.9087Z" fill="white"/>
<path d="M57.1253 11.7164C58.7033 12.2739 59.4502 15.1459 59.3976 16.6187C59.3976 16.7449 59.103 18.7227 59.0767 18.7227H59.0452C59.1662 19.175 59.2977 19.6642 59.4292 20.2007C59.6606 21.1896 59.9131 22.3047 60.1077 23.5461C60.3334 24.8759 60.4809 26.2177 60.5495 27.5647C60.6334 29.0741 60.5824 30.588 60.397 32.0883C60.3946 32.1058 60.3946 32.1235 60.397 32.1409C60.6021 31.7044 61.2123 30.4946 61.2649 30.4104C62.0749 29.1796 64.3578 27.2544 65.9516 27.712C66.2132 27.7918 66.4552 27.9259 66.6615 28.1055C66.8679 28.2851 67.0341 28.5063 67.1492 28.7544C67.2644 29.0026 67.3259 29.2723 67.3298 29.5458C67.3337 29.8194 67.2799 30.0907 67.1719 30.342C66.7511 31.4256 65.4887 32.1041 64.4314 32.4039C63.2374 32.7458 60.5758 32.3461 60.3654 32.3093C60.1405 33.8321 59.8136 35.3381 59.3871 36.8171C59.1416 37.6797 58.8751 38.5406 58.5876 39.3997C58.7717 39.0263 58.9452 38.6949 58.9715 38.6528C59.7816 37.4167 62.0697 35.4968 63.6582 35.9544C63.9199 36.0343 64.1618 36.1683 64.3682 36.348C64.5745 36.5276 64.7407 36.7487 64.8559 36.9968C64.971 37.245 65.0326 37.5147 65.0365 37.7882C65.0404 38.0618 64.9865 38.3331 64.8785 38.5844C64.4577 39.668 63.1953 40.3465 62.1381 40.6464C61.0808 40.9462 58.7874 40.6464 58.1878 40.5675L57.8564 41.5563C57.3304 43.1343 56.7571 44.7123 56.2784 46.2588C56.1048 46.7848 55.9523 47.3529 55.7998 47.8999C55.9681 47.5685 56.1101 47.2897 56.1364 47.2477C56.9412 46.0168 59.2293 44.0917 60.8178 44.5493C61.079 44.6299 61.3204 44.7644 61.5264 44.9441C61.7325 45.1238 61.8986 45.3446 62.014 45.5924C62.1295 45.8402 62.1918 46.1094 62.1968 46.3827C62.2019 46.6561 62.1496 46.9274 62.0434 47.1793C61.6226 48.2681 60.3549 48.9414 59.2977 49.2465C58.2404 49.5515 56.1732 49.2833 55.4579 49.1833C55.3158 49.7462 55.1791 50.309 55.0686 50.8613C55.0002 51.2453 54.9108 51.6029 54.8635 51.9869L54.7057 53.1178C54.632 53.8384 54.5479 54.5801 54.4953 55.2849C54.4532 55.7741 54.4216 56.2423 54.3901 56.7157C54.5584 56.1897 54.9161 55.1008 54.9161 55.0167C55.4986 53.8595 56.3678 52.8707 57.4409 52.1447C57.4981 52.0107 57.5704 51.8836 57.6565 51.766C57.8055 51.5362 58.0012 51.3404 58.231 51.1914C58.4607 51.0424 58.7193 50.9436 58.9899 50.9014C59.2605 50.8592 59.5369 50.8746 59.8011 50.9465C60.0654 51.0185 60.3114 51.1454 60.5232 51.3189C61.7751 52.3972 61.4595 55.3533 60.8862 56.7104C60.8546 56.7893 60.3865 57.6151 60.0867 58.1359C60.3128 57.8571 60.5232 57.5836 60.7599 57.3048C61.2176 56.742 61.691 56.1949 62.1959 55.6058L62.9691 54.7695C63.2216 54.4854 63.5267 54.2435 63.8055 53.9331C64.463 53.2967 65.1626 52.6812 65.8832 52.0763C65.394 51.6766 63.6687 50.2248 63.1743 49.2359C62.6798 48.2471 62.3274 46.8637 62.8429 45.8169C62.9563 45.5673 63.1208 45.3443 63.3259 45.1624C63.531 44.9804 63.772 44.8436 64.0334 44.7608C64.2948 44.6779 64.5706 44.651 64.843 44.6816C65.1155 44.7122 65.3785 44.7998 65.6149 44.9385C67.0088 45.8169 67.1508 48.7888 66.7879 50.1985C66.7879 50.2879 66.3881 51.2821 66.1725 51.8239C66.6091 51.4662 67.0404 51.1085 67.4927 50.7719C68.7972 49.7672 70.149 48.7836 71.4903 47.8L72.7159 46.8952C72.5423 46.7532 70.4594 45.07 69.9018 43.9602C69.4126 42.9765 69.055 41.5879 69.5704 40.5464C69.6832 40.2962 69.8474 40.0726 70.0524 39.8902C70.2574 39.7078 70.4986 39.5707 70.7601 39.4878C71.0217 39.4049 71.2979 39.3781 71.5705 39.4091C71.8432 39.4402 72.1062 39.5284 72.3425 39.668C73.7416 40.5412 73.8784 43.5131 73.5154 44.928C73.4891 45.0332 72.9474 46.4639 72.7948 46.8216C73.689 46.1536 74.578 45.4803 75.4248 44.7755C76.5771 43.8362 77.6665 42.8223 78.686 41.7404C78.6071 41.6721 76.4242 39.9257 75.8561 38.7948C75.3617 37.8112 75.0093 36.4173 75.5248 35.3758C75.6376 35.1264 75.8016 34.9035 76.0062 34.7215C76.2108 34.5396 76.4514 34.4028 76.7123 34.3199C76.9733 34.2371 77.2487 34.2101 77.5208 34.2407C77.7929 34.2712 78.0555 34.3587 78.2915 34.4974C79.6907 35.3758 79.8327 38.3477 79.4698 39.7574C79.4698 39.8521 79.0332 40.9409 78.828 41.4564L78.9069 41.509C79.9034 40.3908 80.7993 39.1868 81.5843 37.9112C82.0261 37.2116 82.4048 36.5225 82.7625 35.844C82.3207 35.5599 80.3271 34.2397 79.7012 33.2771C79.0753 32.3145 78.6019 31.01 78.9964 29.916C79.0809 29.6552 79.2194 29.4151 79.403 29.2114C79.5865 29.0077 79.8109 28.845 80.0615 28.7339C80.3121 28.6227 80.5833 28.5656 80.8575 28.5662C81.1316 28.5669 81.4026 28.6253 81.6527 28.7377C83.1412 29.4583 83.6041 32.4197 83.399 33.8557C83.399 33.9346 83.1886 34.7289 83.036 35.3022C83.1886 34.9919 83.3569 34.6763 83.4989 34.3764C84.0249 33.2561 84.472 32.1935 84.8402 31.2204C85.0506 30.6944 85.2242 30.1947 85.3662 29.7319C85.0769 29.2059 83.9513 27.186 83.8408 26.0499C83.7304 24.9137 83.9092 23.5356 84.7666 22.7466C84.9618 22.5545 85.1953 22.4056 85.4518 22.3096C85.7083 22.2137 85.9822 22.1728 86.2556 22.1897C86.529 22.2066 86.7957 22.2808 87.0385 22.4076C87.2813 22.5343 87.4947 22.7108 87.6648 22.9254C88.6537 24.2457 87.7122 27.0703 86.8601 28.2696C86.7864 28.3748 85.4451 29.8476 85.4293 29.8476V29.816C85.2821 30.2631 85.1243 30.7418 84.9349 31.2573C84.5877 32.2146 84.1827 33.2876 83.662 34.4133C83.1115 35.6449 82.4916 36.8444 81.8052 38.0058C81.0393 39.3086 80.1591 40.5408 79.1752 41.6878L79.1384 41.7299C79.5487 41.4774 80.7164 40.8042 80.8163 40.7621C82.1734 40.1835 85.1295 39.8574 86.2131 41.0987C86.3875 41.31 86.5154 41.5556 86.5887 41.8196C86.6619 42.0836 86.6787 42.36 86.638 42.6309C86.5973 42.9018 86.5 43.1611 86.3525 43.392C86.205 43.6228 86.0105 43.82 85.7818 43.9707C84.8297 44.644 83.4042 44.4967 82.3522 44.1811C81.1687 43.8024 79.1962 42.0034 79.0174 41.8562C77.99 43.0023 76.8864 44.0778 75.7141 45.0753C75.0356 45.6591 74.3307 46.2272 73.6101 46.79C73.9731 46.5796 74.2992 46.3955 74.3465 46.3745C75.6983 45.7959 78.6545 45.4698 79.738 46.7111C79.9132 46.9221 80.0419 47.1676 80.1155 47.4317C80.1892 47.6959 80.2063 47.9726 80.1655 48.2437C80.1248 48.5149 80.0272 48.7744 79.8792 49.0052C79.7312 49.236 79.5361 49.4329 79.3067 49.5831C78.3599 50.2564 76.9292 50.1091 75.8824 49.7935C74.8357 49.4779 73.0841 47.9525 72.6318 47.5475C72.353 47.7579 72.1058 47.9735 71.8059 48.1892C70.4857 49.1991 69.1759 50.2038 67.8872 51.2347C67.4401 51.5924 67.0141 51.9659 66.5828 52.3393L67.2245 51.9817C68.5763 51.4031 71.5324 51.0717 72.616 52.313C72.7905 52.5247 72.9185 52.7708 72.9918 53.0352C73.065 53.2996 73.0819 53.5764 73.0412 53.8477C73.0005 54.119 72.9032 54.3788 72.7557 54.6101C72.6081 54.8414 72.4136 55.039 72.1847 55.1903C71.2379 55.8635 69.8071 55.7163 68.7604 55.3954C67.7137 55.0745 66.1304 53.7017 65.6044 53.223C65.1783 53.6175 64.747 54.012 64.3525 54.4118C64.0843 54.6906 63.8265 54.9378 63.5635 55.2376L62.8061 56.0897C62.3485 56.6525 61.8698 57.2259 61.4332 57.7834C61.1281 58.1674 60.8441 58.5409 60.5601 58.9196C60.9966 58.5514 61.8803 57.8676 61.9592 57.8045C63.2058 57.026 66.0831 56.2265 67.3402 57.3206C67.5439 57.5036 67.7069 57.7274 67.8184 57.9775C67.93 58.2277 67.9876 58.4985 67.9876 58.7723C67.9876 59.0462 67.93 59.317 67.8184 59.5671C67.7069 59.8172 67.5439 60.0411 67.3402 60.2241C66.4986 61.0341 65.0679 61.1183 63.9843 60.95C62.785 60.7606 60.6179 59.372 60.3497 59.1721C59.8763 59.798 59.4239 60.4029 59.0031 60.9868C57.5461 63.0014 56.4099 64.7372 55.6314 65.9575L55.5525 66.0837L54.5426 65.5945L54.7004 65.3526C55.5157 64.1323 56.7045 62.407 58.2194 60.4082C58.698 59.7717 59.2188 59.1037 59.7605 58.4252C59.1971 57.8095 58.6702 57.1614 58.1825 56.4842C57.0201 56.9418 54.611 56.9576 54.2954 56.9576C54.2481 57.7361 54.206 58.4988 54.1744 59.2142C54.0692 61.6969 54.0797 63.7693 54.106 65.2211V65.3894L52.9962 64.8634C52.9962 63.4222 53.054 61.476 53.2013 59.1721C53.2487 58.3831 53.317 57.5362 53.3959 56.6683C53.0856 56.5894 50.5766 55.9477 49.6298 55.1903C48.7724 54.5012 47.8677 53.3913 47.8992 52.2236C47.8971 51.9497 47.9527 51.6784 48.0624 51.4273C48.1721 51.1763 48.3334 50.9512 48.5358 50.7666C48.7383 50.582 48.9773 50.4421 49.2374 50.356C49.4975 50.2699 49.7727 50.2396 50.0453 50.2669C51.6812 50.4773 53.054 53.1178 53.3223 54.5643C53.3223 54.6537 53.4065 55.6163 53.438 56.1949C53.4748 55.8425 53.5011 55.4953 53.5432 55.1429C53.6116 54.4223 53.7063 53.7069 53.8062 52.9337C53.8641 52.5603 53.9272 52.1868 53.9851 51.8081C54.0429 51.4294 54.1429 51.0401 54.2218 50.6509C54.4216 49.7567 54.6636 48.8572 54.9319 47.9578C54.3007 47.8946 52.0652 47.6316 51.1078 47.0793C50.1505 46.527 49.088 45.5697 48.946 44.4125C48.902 44.1418 48.9156 43.8649 48.9858 43.5999C49.056 43.3348 49.1813 43.0875 49.3535 42.8741C49.5257 42.6606 49.741 42.4859 49.9853 42.3613C50.2295 42.2367 50.4973 42.1649 50.7712 42.1507C52.4176 42.1139 54.1744 44.5125 54.6583 45.9064C54.6899 45.9905 54.9266 47.0267 55.0476 47.6001C55.2106 47.0741 55.3684 46.5218 55.5736 45.98C56.0996 44.402 56.694 42.8608 57.2726 41.2986C57.4514 40.8199 57.6197 40.3413 57.7986 39.8626C57.5724 39.8626 54.9056 39.5838 53.8325 38.9684C52.8805 38.4424 51.8179 37.4588 51.6707 36.3016C51.6275 36.031 51.6417 35.7544 51.7123 35.4897C51.7828 35.225 51.9082 34.978 52.0802 34.7648C52.2523 34.5516 52.4672 34.3769 52.7111 34.252C52.9549 34.1271 53.2223 34.0548 53.4959 34.0398C55.1475 34.003 56.9044 36.4015 57.3883 37.7954C57.4251 37.9006 57.7617 39.3734 57.8301 39.7732C58.2088 38.7212 58.5823 37.6692 58.8821 36.6172C59.327 35.197 59.6784 33.7491 59.9341 32.283C59.8289 32.283 57.0464 32.02 55.947 31.3888C54.9897 30.8628 53.9272 29.8791 53.7852 28.7219C53.7412 28.4515 53.7547 28.1749 53.825 27.9101C53.8953 27.6453 54.0206 27.3983 54.1929 27.1853C54.3652 26.9723 54.5805 26.7981 54.8248 26.674C55.0691 26.55 55.3368 26.4789 55.6104 26.4654C57.2568 26.4233 59.0136 28.8219 59.4975 30.2158C59.5291 30.3052 59.7921 31.4414 59.9026 31.9884H59.992C60.2092 30.5068 60.2937 29.0088 60.2445 27.5121C60.2445 26.6863 60.1656 25.9026 60.0867 25.1399C59.5607 25.1399 57.1726 25.1399 56.1206 24.6823C55.0686 24.2246 53.9482 23.4041 53.6747 22.2732C53.6018 22.0083 53.5856 21.7309 53.6272 21.4593C53.6688 21.1877 53.7674 20.928 53.9163 20.6971C54.0653 20.4662 54.2613 20.2693 54.4916 20.1195C54.7219 19.9696 54.9813 19.87 55.2527 19.8273C56.8886 19.6011 58.8979 21.7998 59.5344 23.1253C59.5659 23.1989 59.8394 23.9722 60.0235 24.5402C59.9867 24.1931 59.9499 23.8354 59.9026 23.4882C59.7395 22.2521 59.5081 21.1318 59.2977 20.1376C59.1714 19.5748 59.0504 19.0856 58.9295 18.5964C58.4035 18.3334 56.3415 17.2499 55.6367 16.3767C54.9319 15.5036 54.3007 14.2359 54.5847 13.1103C54.6476 12.8444 54.7655 12.5948 54.931 12.3774C55.0964 12.1601 55.3056 11.9799 55.5451 11.8485C55.7846 11.7171 56.049 11.6375 56.3212 11.6147C56.5934 11.5919 56.8673 11.6266 57.1253 11.7164Z" fill="white"/>
<path d="M86.9364 37.1168C85.6477 37.0642 83.0703 35.744 83.0703 35.744C83.0703 35.744 84.4537 34.308 84.5536 34.2291C85.7056 33.3139 88.4723 32.2145 89.8452 33.1298C90.0696 33.287 90.2583 33.4898 90.3989 33.725C90.5395 33.9602 90.6289 34.2224 90.6612 34.4945C90.6934 34.7666 90.6679 35.0424 90.5862 35.304C90.5045 35.5655 90.3685 35.8069 90.1871 36.0122C89.4507 36.9117 88.0357 37.1642 86.9364 37.1168Z" fill="white"/>
</g>
<path d="M71.892 69.392C71.892 69.392 64.0704 50.5402 59.6941 51.3607C55.3177 52.1813 67.2001 81.4164 67.2001 81.4164C67.2001 81.4164 53.4399 55.4583 44.0561 55.4583C34.6722 55.4583 47.4961 84.1463 59.41 93.709C59.41 93.709 40.6423 73.4896 29.6963 77.8606C18.7502 82.2317 51.5621 102.714 51.5621 102.714C51.5621 102.714 32.4841 96.7125 34.688 101.362C36.892 106.012 42.82 106.822 42.82 106.822L47.838 107.916H75.19L79.398 106.28C79.398 106.28 96.9138 97.533 92.2219 93.9825C87.53 90.432 77.2099 98.0801 77.2099 98.0801C77.2099 98.0801 95.036 78.4077 91.596 71.0332C88.1559 63.6586 72.8283 84.4199 72.8283 84.4199C72.8283 84.4199 85.3418 57.9147 82.8223 53.2701C80.3027 48.6255 71.892 69.392 71.892 69.392Z" fill="#F2F4F7"/>
<path opacity="0.4" d="M71.892 69.392C71.892 69.392 64.0704 50.5402 59.6941 51.3607C55.3177 52.1813 67.2001 81.4164 67.2001 81.4164C67.2001 81.4164 53.4399 55.4583 44.0561 55.4583C34.6722 55.4583 47.4961 84.1463 59.41 93.709C59.41 93.709 40.6423 73.4896 29.6963 77.8606C18.7502 82.2317 51.5621 102.714 51.5621 102.714C51.5621 102.714 32.4841 96.7125 34.688 101.362C36.892 106.012 42.82 106.822 42.82 106.822L50.994 107.916H73.086L79.398 106.28C79.398 106.28 96.9138 97.533 92.2219 93.9825C87.53 90.432 77.2099 98.0801 77.2099 98.0801C77.2099 98.0801 95.036 78.4077 91.596 71.0332C88.1559 63.6586 72.8283 84.4199 72.8283 84.4199C72.8283 84.4199 85.3418 57.9147 82.8223 53.2701C80.3027 48.6255 71.892 69.392 71.892 69.392Z" fill="white"/>
<path d="M74.3957 70.3862C67.5156 90.7161 67.5156 105.102 67.5156 105.102C67.5156 105.102 75.6476 105.418 84.0899 99.1584" stroke="#263238" stroke-width="0.526" stroke-linecap="round" stroke-linejoin="round"/>
<path d="M70.9811 81.3325C69.5615 75.2552 67.6781 69.2957 65.3477 63.5063" stroke="#263238" stroke-width="0.526" stroke-linecap="round" stroke-linejoin="round"/>
<path d="M50.625 69.4448L68.1355 95.4082C68.1355 95.4082 80.0231 85.4142 84.0891 79.7702" stroke="#263238" stroke-width="0.526" stroke-linecap="round" stroke-linejoin="round"/>
<path d="M67.8253 101.663C67.8253 101.663 49.3732 92.9046 41.8672 87.9023" stroke="#263238" stroke-width="0.526" stroke-linecap="round" stroke-linejoin="round"/>
<path d="M123.377 27.3013H119.574V185.78H123.377V27.3013Z" fill="#C2C2C2" stroke="#ABABAB" stroke-width="0.526" stroke-linecap="round" stroke-linejoin="round"/>
<path d="M54.967 27.3013H51.1641V185.78H54.967V27.3013Z" fill="#C2C2C2" stroke="#ABABAB" stroke-width="0.526" stroke-linecap="round" stroke-linejoin="round"/>
<path d="M89.1702 27.3013H85.3672V185.78H89.1702V27.3013Z" fill="#C2C2C2" stroke="#ABABAB" stroke-width="0.526" stroke-linecap="round" stroke-linejoin="round"/>
<path d="M157.58 27.3013H153.777V185.78H157.58V27.3013Z" fill="#C2C2C2" stroke="#ABABAB" stroke-width="0.526" stroke-linecap="round" stroke-linejoin="round"/>
<path d="M156.437 32.2402H49.9375V39.4622H156.437V32.2402Z" fill="#C2C2C2" stroke="#ABABAB" stroke-width="0.526" stroke-linecap="round" stroke-linejoin="round"/>
<path d="M156.44 32.2402H87.9023V39.4622H156.44V32.2402Z" fill="#A6A6A6" stroke="#ABABAB" stroke-width="0.526" stroke-linecap="round" stroke-linejoin="round"/>
<path d="M156.437 104.96H49.9375V112.182H156.437V104.96Z" fill="#C2C2C2" stroke="#ABABAB" stroke-width="0.526" stroke-linecap="round" stroke-linejoin="round"/>
<path d="M156.44 104.96H87.9023V112.182H156.44V104.96Z" fill="#A6A6A6" stroke="#ABABAB" stroke-width="0.526" stroke-linecap="round" stroke-linejoin="round"/>
<path d="M156.437 177.674H49.9375V184.896H156.437V177.674Z" fill="#C2C2C2" stroke="#ABABAB" stroke-width="0.526" stroke-linecap="round" stroke-linejoin="round"/>
<path d="M156.44 177.674H87.9023V184.896H156.44V177.674Z" fill="#A6A6A6" stroke="#ABABAB" stroke-width="0.526" stroke-linecap="round" stroke-linejoin="round"/>
<path d="M87.9146 138.902H32.1797V185.721H87.9146V138.902Z" fill="#F2F4F7"/>
<mask id="mask0_804_8931" style="mask-type:luminance" maskUnits="userSpaceOnUse" x="32" y="138" width="56" height="48">
<path d="M87.9146 138.902H32.1797V185.722H87.9146V138.902Z" fill="white"/>
</mask>
<g mask="url(#mask0_804_8931)">
<path opacity="0.6" d="M87.9146 138.902H32.1797V185.722H87.9146V138.902Z" fill="white" stroke="#696969" stroke-width="0.526" stroke-linecap="round" stroke-linejoin="round"/>
</g>
<path d="M87.9146 138.902H32.1797V185.721H87.9146V138.902Z" stroke="#696969" stroke-width="0.526" stroke-linecap="round" stroke-linejoin="round"/>
<path d="M87.915 138.902H69.3945V185.721H87.915V138.902Z" fill="#F2F4F7"/>
<mask id="mask1_804_8931" style="mask-type:luminance" maskUnits="userSpaceOnUse" x="69" y="138" width="19" height="48">
<path d="M87.915 138.902H69.3945V185.721H87.915V138.902Z" fill="white"/>
</mask>
<g mask="url(#mask1_804_8931)">
<path opacity="0.39" d="M87.915 138.902H69.3945V185.721H87.915V138.902Z" fill="white" stroke="#696969" stroke-width="0.526" stroke-linecap="round" stroke-linejoin="round"/>
</g>
<path d="M87.915 138.902H69.3945V185.721H87.915V138.902Z" stroke="#696969" stroke-width="0.526" stroke-linecap="round" stroke-linejoin="round"/>
<path d="M78.8438 139.028V185.779" stroke="#696969" stroke-width="0.526" stroke-linecap="round" stroke-linejoin="round"/>
<path d="M90.7271 92.1567H34.9922V138.976H90.7271V92.1567Z" fill="#F2F4F7"/>
<mask id="mask2_804_8931" style="mask-type:luminance" maskUnits="userSpaceOnUse" x="34" y="92" width="57" height="47">
<path d="M90.7232 92.1572H34.9883V138.976H90.7232V92.1572Z" fill="white"/>
</mask>
<g mask="url(#mask2_804_8931)">
<path opacity="0.6" d="M90.7232 92.1572H34.9883V138.976H90.7232V92.1572Z" fill="white" stroke="#696969" stroke-width="0.526" stroke-linecap="round" stroke-linejoin="round"/>
</g>
<path d="M90.7271 92.1567H34.9922V138.976H90.7271V92.1567Z" stroke="#696969" stroke-width="0.526" stroke-linecap="round" stroke-linejoin="round"/>
<path d="M90.7275 92.1567H72.207V138.976H90.7275V92.1567Z" fill="#F2F4F7"/>
<mask id="mask3_804_8931" style="mask-type:luminance" maskUnits="userSpaceOnUse" x="72" y="92" width="19" height="47">
<path d="M90.7314 92.157H72.2109V138.976H90.7314V92.157Z" fill="white"/>
</mask>
<g mask="url(#mask3_804_8931)">
<path opacity="0.39" d="M90.7314 92.157H72.2109V138.976H90.7314V92.157Z" fill="white" stroke="#696969" stroke-width="0.526" stroke-linecap="round" stroke-linejoin="round"/>
</g>
<path d="M90.7275 92.1567H72.207V138.976H90.7275V92.1567Z" stroke="#696969" stroke-width="0.526" stroke-linecap="round" stroke-linejoin="round"/>
<path d="M81.6602 92.2827V139.034" stroke="#696969" stroke-width="0.526" stroke-linecap="round" stroke-linejoin="round"/>
<path d="M235.77 138.902H180.035V185.721H235.77V138.902Z" fill="#F2F4F7"/>
<mask id="mask4_804_8931" style="mask-type:luminance" maskUnits="userSpaceOnUse" x="180" y="138" width="56" height="48">
<path d="M235.766 138.902H180.031V185.722H235.766V138.902Z" fill="white"/>
</mask>
<g mask="url(#mask4_804_8931)">
<path opacity="0.6" d="M235.766 138.902H180.031V185.722H235.766V138.902Z" fill="white" stroke="#919191" stroke-width="0.526" stroke-linecap="round" stroke-linejoin="round"/>
</g>
<path d="M235.77 138.902H180.035V185.721H235.77V138.902Z" stroke="#919191" stroke-width="0.526" stroke-linecap="round" stroke-linejoin="round"/>
<path d="M235.767 138.902H217.246V185.721H235.767V138.902Z" fill="#F2F4F7"/>
<mask id="mask5_804_8931" style="mask-type:luminance" maskUnits="userSpaceOnUse" x="217" y="138" width="19" height="48">
<path d="M235.767 138.902H217.246V185.722H235.767V138.902Z" fill="white"/>
</mask>
<g mask="url(#mask5_804_8931)">
<path opacity="0.39" d="M235.767 138.902H217.246V185.722H235.767V138.902Z" fill="white" stroke="#919191" stroke-width="0.526" stroke-linecap="round" stroke-linejoin="round"/>
</g>
<path d="M235.767 138.902H217.246V185.721H235.767V138.902Z" stroke="#919191" stroke-width="0.526" stroke-linecap="round" stroke-linejoin="round"/>
<path d="M226.699 139.028V185.779" stroke="#919191" stroke-width="0.526" stroke-linecap="round" stroke-linejoin="round"/>
<path d="M235.77 92.0356H180.035V138.855H235.77V92.0356Z" fill="#F2F4F7"/>
<mask id="mask6_804_8931" style="mask-type:luminance" maskUnits="userSpaceOnUse" x="180" y="92" width="56" height="47">
<path d="M235.766 92.0352H180.031V138.854H235.766V92.0352Z" fill="white"/>
</mask>
<g mask="url(#mask6_804_8931)">
<path opacity="0.6" d="M235.766 92.0352H180.031V138.854H235.766V92.0352Z" fill="white" stroke="#919191" stroke-width="0.526" stroke-linecap="round" stroke-linejoin="round"/>
</g>
<path d="M235.77 92.0356H180.035V138.855H235.77V92.0356Z" stroke="#919191" stroke-width="0.526" stroke-linecap="round" stroke-linejoin="round"/>
<path d="M235.767 92.0356H217.246V138.855H235.767V92.0356Z" fill="#F2F4F7"/>
<mask id="mask7_804_8931" style="mask-type:luminance" maskUnits="userSpaceOnUse" x="217" y="92" width="19" height="47">
<path d="M235.767 92.0352H217.246V138.854H235.767V92.0352Z" fill="white"/>
</mask>
<g mask="url(#mask7_804_8931)">
<path opacity="0.39" d="M235.767 92.0352H217.246V138.854H235.767V92.0352Z" fill="white" stroke="#919191" stroke-width="0.526" stroke-linecap="round" stroke-linejoin="round"/>
</g>
<path d="M235.767 92.0356H217.246V138.855H235.767V92.0356Z" stroke="#919191" stroke-width="0.526" stroke-linecap="round" stroke-linejoin="round"/>
<path d="M226.699 92.1619V138.913" stroke="#919191" stroke-width="0.526" stroke-linecap="round" stroke-linejoin="round"/>
<path d="M230.87 53.2695H184.766V91.9989H230.87V53.2695Z" fill="#F2F4F7"/>
<mask id="mask8_804_8931" style="mask-type:luminance" maskUnits="userSpaceOnUse" x="184" y="53" width="47" height="39">
<path d="M230.873 53.269H184.77V91.9984H230.873V53.269Z" fill="white"/>
</mask>
<g mask="url(#mask8_804_8931)">
<path opacity="0.6" d="M230.873 53.269H184.77V91.9984H230.873V53.269Z" fill="white" stroke="#919191" stroke-width="0.526" stroke-linecap="round" stroke-linejoin="round"/>
</g>
<path d="M230.87 53.2695H184.766V91.9989H230.87V53.2695Z" stroke="#919191" stroke-width="0.526" stroke-linecap="round" stroke-linejoin="round"/>
<path d="M230.872 53.2695H215.555V91.9989H230.872V53.2695Z" fill="#F2F4F7"/>
<mask id="mask9_804_8931" style="mask-type:luminance" maskUnits="userSpaceOnUse" x="215" y="53" width="16" height="39">
<path d="M230.876 53.269H215.559V91.9984H230.876V53.269Z" fill="white"/>
</mask>
<g mask="url(#mask9_804_8931)">
<path opacity="0.39" d="M230.876 53.269H215.559V91.9984H230.876V53.269Z" fill="white" stroke="#919191" stroke-width="0.526" stroke-linecap="round" stroke-linejoin="round"/>
</g>
<path d="M230.872 53.2695H215.555V91.9989H230.872V53.2695Z" stroke="#919191" stroke-width="0.526" stroke-linecap="round" stroke-linejoin="round"/>
<path d="M223.371 53.375V92.0465" stroke="#919191" stroke-width="0.526" stroke-linecap="round" stroke-linejoin="round"/>
<path d="M224.976 168.122H217.754V172.64H224.976V168.122Z" fill="white" stroke="#263238" stroke-width="0.526" stroke-linecap="round" stroke-linejoin="round"/>
<path d="M157.018 185.78C159.429 185.78 161.384 183.826 161.384 181.415C161.384 179.003 159.429 177.049 157.018 177.049C154.607 177.049 152.652 179.003 152.652 181.415C152.652 183.826 154.607 185.78 157.018 185.78Z" fill="#263238" stroke="#263238" stroke-width="0.526" stroke-linecap="round" stroke-linejoin="round"/>
<path d="M228.859 109.153H226.281V181.515H228.859V109.153Z" fill="#263238" stroke="#263238" stroke-width="0.526" stroke-linecap="round" stroke-linejoin="round"/>
<path d="M227.486 134.464L221.39 129.614C218.797 127.548 216.852 124.78 215.786 121.641C214.72 118.501 214.578 115.121 215.378 111.903C215.613 110.964 216.154 110.13 216.916 109.533C217.678 108.936 218.617 108.609 219.586 108.605H235.366C236.334 108.607 237.274 108.933 238.037 109.531C238.799 110.128 239.34 110.963 239.574 111.903C240.374 115.121 240.233 118.5 239.168 121.64C238.104 124.78 236.159 127.547 233.567 129.614L227.486 134.464ZM219.596 111.072C219.175 111.071 218.765 111.211 218.433 111.471C218.101 111.73 217.866 112.094 217.766 112.503C217.078 115.261 217.198 118.158 218.111 120.849C219.024 123.541 220.692 125.913 222.915 127.683L227.476 131.313L232.041 127.683C234.265 125.914 235.934 123.542 236.849 120.851C237.764 118.159 237.886 115.262 237.201 112.503C237.1 112.094 236.865 111.731 236.533 111.472C236.201 111.212 235.792 111.072 235.371 111.072H219.596Z" fill="#263238"/>
<path d="M212.353 170.384H132.543V179.673H212.353V170.384Z" fill="white"/>
<mask id="mask10_804_8931" style="mask-type:luminance" maskUnits="userSpaceOnUse" x="132" y="170" width="81" height="10">
<path d="M212.353 170.384H132.543V179.673H212.353V170.384Z" fill="white"/>
</mask>
<g mask="url(#mask10_804_8931)">
<path opacity="0.28" d="M212.353 170.384H132.543V179.673H212.353V170.384Z" fill="black" stroke="#263238" stroke-width="0.526" stroke-linecap="round" stroke-linejoin="round"/>
</g>
<path d="M212.353 170.384H132.543V179.673H212.353V170.384Z" stroke="#263238" stroke-width="0.526" stroke-linecap="round" stroke-linejoin="round"/>
<path d="M141.485 170.384H132.543V179.673H141.485V170.384Z" stroke="#263238" stroke-width="0.526" stroke-linecap="round" stroke-linejoin="round"/>
<path d="M212.348 170.384H203.406V179.673H212.348V170.384Z" stroke="#263238" stroke-width="0.526" stroke-linecap="round" stroke-linejoin="round"/>
<path d="M176.915 170.384H167.973V179.673H176.915V170.384Z" stroke="#263238" stroke-width="0.526" stroke-linecap="round" stroke-linejoin="round"/>
<path d="M212.352 179.673H217.854L224.734 153.526H219.232L212.352 179.673Z" fill="white" stroke="#263238" stroke-width="0.526" stroke-linecap="round" stroke-linejoin="round"/>
<path d="M231.183 164.535H223.961V176.233H231.183V164.535Z" fill="white" stroke="#263238" stroke-width="0.526" stroke-linecap="round" stroke-linejoin="round"/>
<path d="M225.802 185.78C225.392 185.773 225.002 185.608 224.712 185.318C224.422 185.029 224.257 184.638 224.25 184.229V178.406C224.257 177.996 224.422 177.606 224.712 177.316C225.002 177.026 225.392 176.861 225.802 176.854C226.211 176.861 226.602 177.026 226.891 177.316C227.181 177.606 227.347 177.996 227.353 178.406V184.244C227.343 184.651 227.175 185.038 226.886 185.324C226.597 185.61 226.208 185.774 225.802 185.78Z" fill="#263238"/>
<path d="M229.493 185.78C229.084 185.773 228.693 185.608 228.403 185.318C228.114 185.029 227.948 184.638 227.941 184.229V178.406C227.948 177.996 228.114 177.606 228.403 177.316C228.693 177.026 229.084 176.861 229.493 176.854C229.907 176.854 230.305 177.017 230.6 177.307C230.895 177.597 231.064 177.992 231.071 178.406V184.244C231.06 184.655 230.889 185.046 230.594 185.333C230.3 185.62 229.904 185.78 229.493 185.78Z" fill="#263238"/>
<path d="M25.1289 185.78H242.793" stroke="#263238" stroke-width="0.526" stroke-linecap="round" stroke-linejoin="round"/>
<path d="M100.229 200.976C121.215 200.976 138.227 198.908 138.227 196.358C138.227 193.807 121.215 191.739 100.229 191.739C79.2429 191.739 62.2305 193.807 62.2305 196.358C62.2305 198.908 79.2429 200.976 100.229 200.976Z" fill="#F2F4F7"/>
<path opacity="0.5" d="M100.229 200.976C121.215 200.976 138.227 198.908 138.227 196.358C138.227 193.807 121.215 191.739 100.229 191.739C79.2429 191.739 62.2305 193.807 62.2305 196.358C62.2305 198.908 79.2429 200.976 100.229 200.976Z" fill="white"/>
<path d="M178.86 196.342C178.86 197.615 170.376 198.646 159.924 198.646C149.473 198.646 140.988 197.594 140.988 196.342C140.988 195.09 149.467 194.043 159.924 194.043C170.381 194.043 178.86 195.09 178.86 196.342Z" fill="#F2F4F7"/>
<path opacity="0.5" d="M178.86 196.342C178.86 197.615 170.376 198.646 159.924 198.646C149.473 198.646 140.988 197.594 140.988 196.342C140.988 195.09 149.467 194.043 159.924 194.043C170.381 194.043 178.86 195.09 178.86 196.342Z" fill="white"/>
<path d="M107.807 44.2175C107.807 44.2175 104.866 41.9083 101.495 43.0603C98.1232 44.2122 95.5668 49.8299 94.6568 54.3956C93.7468 58.9613 90.2489 62.4223 91.0905 67.777C91.9321 73.1317 98.018 73.968 105.366 74.757C112.714 75.546 116.701 74.6518 120.163 69.8232C123.624 64.9945 122.156 59.1191 120.11 53.9222C118.064 48.7253 114.655 43.9019 111.82 43.0077C108.985 42.1135 107.807 44.2175 107.807 44.2175Z" fill="#263238" stroke="#263238" stroke-width="0.526" stroke-linecap="round" stroke-linejoin="round"/>
<path d="M95.6602 71.6797C96.1563 71.9028 96.6723 72.0789 97.2013 72.2057" stroke="white" stroke-width="0.526" stroke-linecap="round" stroke-linejoin="round"/>
<path d="M107.072 47.957C105.874 50.6346 104.355 53.1568 102.549 55.4683C99.54 59.3344 92.8861 62.9849 92.4601 67.0403C92.3916 67.5833 92.4392 68.1346 92.5997 68.6578C92.7602 69.181 93.0299 69.6642 93.3911 70.0753" stroke="white" stroke-width="0.526" stroke-linecap="round" stroke-linejoin="round"/>
<path d="M119.28 67.3511C119.063 67.8602 118.784 68.3407 118.449 68.7818" stroke="white" stroke-width="0.526" stroke-linecap="round" stroke-linejoin="round"/>
<path d="M116.75 57.1885C116.75 57.1885 120.132 61.0914 119.806 65.2573" stroke="white" stroke-width="0.526" stroke-linecap="round" stroke-linejoin="round"/>
<path d="M106.43 45.8058C105.111 45.6716 103.78 45.8552 102.548 46.3412C101.315 46.8271 100.217 47.6013 99.3445 48.5989C99.2235 48.7356 99.113 48.8724 99.0078 49.0092" stroke="white" stroke-width="0.526" stroke-linecap="round" stroke-linejoin="round"/>
<path d="M87.0255 144.952L86.368 155.072C86.368 155.072 83.5697 168.648 82.686 174.245C81.8023 179.841 80.1822 188.352 79.8877 188.352C79.5931 188.352 74.7644 191.271 73.218 193.654C71.6716 196.037 73.6335 197.047 75.7796 196.284C77.9257 195.522 80.8397 193.365 81.7918 190.803C82.7439 188.242 83.2173 187.29 83.2804 186.874C83.3435 186.459 93.5216 159.133 94.5315 156.214C95.5414 153.294 97.6875 144.72 97.6875 144.72L102.69 127.752C102.69 127.752 108.044 145.199 108.108 145.972C108.171 146.746 113.641 191.34 113.894 193.007C114.146 194.675 114.072 195.863 115.082 196.221C116.092 196.579 118.475 196.579 119.727 196.579C120.979 196.579 125.324 197.236 127.464 196.7C129.605 196.163 129.847 195.806 128.359 194.733C126.87 193.659 118.601 192.976 117.839 189.851C117.775 189.615 117.718 143.711 117.718 143.711C117.718 143.711 117.002 128.53 115.813 124.249H88.3037L87.0255 144.952Z" fill="white" stroke="#263238" stroke-width="0.526" stroke-linecap="round" stroke-linejoin="round"/>
<path d="M75.7775 196.273C77.9183 195.495 80.8376 193.354 81.7897 190.792L81.9896 190.266C80.7745 191.56 78.8336 193.359 78.8336 193.359C78.7146 192.749 78.4493 192.177 78.0603 191.692C77.8907 191.505 77.6733 191.367 77.4315 191.294C77.1897 191.221 76.9325 191.215 76.6875 191.276L78.7915 188.962C77.2135 189.94 74.3731 191.939 73.258 193.659C71.6642 196.031 73.6209 197.047 75.7775 196.273Z" fill="#263238" stroke="#263238" stroke-width="0.526" stroke-linecap="round" stroke-linejoin="round"/>
<path d="M128.323 194.722C127.303 193.991 123.111 193.438 120.312 192.16C120.197 192.258 120.107 192.383 120.049 192.523C119.872 193.027 119.733 193.544 119.634 194.07L113.848 192.833V192.997C114.084 194.664 114.027 195.853 115.036 196.21C116.046 196.568 118.429 196.568 119.681 196.568C120.933 196.568 125.278 197.226 127.418 196.689C129.559 196.153 129.833 195.816 128.323 194.722Z" fill="#263238" stroke="#263238" stroke-width="0.526" stroke-linecap="round" stroke-linejoin="round"/>
<path d="M95.0431 99.5576C95.0431 99.5576 92.3131 100.815 89.0098 106.748C85.3962 113.223 86.0169 116.821 85.9643 124.632C85.9117 132.443 85.7539 145.409 85.7539 145.409C85.7539 145.409 95.7479 148.086 102.917 147.666C110.087 147.245 119.181 145.619 119.181 145.619C119.181 145.619 117.24 119.172 115.405 111.566C113.569 103.96 112.464 100.52 112.464 100.52C108.916 101.013 105.321 101.066 101.76 100.678C95.6743 100.084 95.0431 99.5576 95.0431 99.5576Z" fill="#263238" stroke="#263238" stroke-width="0.526" stroke-linecap="round" stroke-linejoin="round"/>
<path d="M106.543 122.949C106.816 123.849 107.069 124.759 107.29 125.669" stroke="white" stroke-width="0.526" stroke-linecap="round" stroke-linejoin="round"/>
<path d="M100.203 108.063C102.322 111.973 104.14 116.039 105.642 120.225" stroke="white" stroke-width="0.526" stroke-linecap="round" stroke-linejoin="round"/>
<path d="M162.052 94.5292C161.737 94.3188 156.566 93.5088 156.566 93.5088L155.556 93.0932C155.556 93.0932 161.815 93.5929 161.868 93.3299C161.921 93.0669 162.131 92.7513 161.71 92.6987C161.289 92.6461 153.236 91.0103 153.236 91.0103C153.236 91.0103 155.282 89.0746 155.545 88.6538C155.808 88.233 156.171 87.3914 155.751 87.3914C155.33 87.3914 155.225 87.6544 154.651 88.0226C154.078 88.3908 151.816 89.285 151.185 89.8057C150.554 90.3265 148.671 91.6941 148.671 91.6941L126.8 88.6854C126.8 88.6854 119.12 79.2174 117.453 77.1975C116.293 75.8496 114.974 74.6484 113.523 73.6207C111.914 72.9106 111.945 74.0994 111.945 74.0994L115.306 89.0378C115.306 89.0378 124.001 94.2189 124.538 94.2189C125.074 94.2189 148.565 94.9974 148.565 94.9974C148.565 94.9974 150.143 95.7338 151.132 96.3597C152.121 96.9856 158.428 98.9897 158.428 98.9897C158.428 98.9897 158.849 98.7793 158.375 98.4111C157.902 98.0429 154.862 96.5754 154.862 96.5754L161.174 97.943C161.174 97.943 161.542 97.68 161.384 97.417C161.226 97.1539 155.598 95.0026 155.598 95.0026L161.91 95.3182C161.91 95.3182 162.362 94.7396 162.052 94.5292Z" fill="white" stroke="#263238" stroke-width="0.526" stroke-linecap="round" stroke-linejoin="round"/>
<path d="M125.479 87.06C123.212 84.267 118.683 78.6914 117.453 77.1975C116.293 75.8496 114.974 74.6484 113.523 73.6207C111.914 72.9106 111.945 74.0994 111.945 74.0994L115.306 89.0378C115.306 89.0378 119.23 91.3732 121.966 92.9091L125.479 87.06Z" fill="white" stroke="#263238" stroke-width="0.526" stroke-linecap="round" stroke-linejoin="round"/>
<path d="M102.232 72.3424C102.232 72.3424 97.6668 72.5528 94.8685 75.6509C92.0702 78.7491 92.4015 85.566 93.5587 89.6583C94.7159 93.7506 96.1887 96.0071 95.8679 97.4273C95.547 98.8475 94.4003 99.3157 95.0263 100.625C95.6522 101.935 99.2764 103.355 105.678 103.145C112.079 102.935 113.289 101.567 113.342 100.368C113.394 99.1684 112.921 98.1637 113.079 97.4273C113.236 96.6909 117.855 92.5987 117.855 88.0856C117.855 83.5725 115.861 81.9998 115.388 78.7438C114.914 75.4879 115.072 75.0197 113.131 73.5995C111.19 72.1793 104.805 71.4482 102.232 72.3424Z" fill="white" stroke="#263238" stroke-width="0.526" stroke-linecap="round" stroke-linejoin="round"/>
<path d="M100.159 87.9858C98.6329 89.2628 96.9392 90.3246 95.125 91.1418" stroke="#263238" stroke-width="0.526" stroke-linecap="round" stroke-linejoin="round"/>
<path d="M100.665 88.5122C100.665 88.5122 99.5337 92.1626 96.7617 94.1772" stroke="#263238" stroke-width="0.526" stroke-linecap="round" stroke-linejoin="round"/>
<path d="M111.996 75.646L112.522 80.6851L110.312 78.1129L111.996 75.646Z" fill="white" stroke="#263238" stroke-width="0.526" stroke-linecap="round" stroke-linejoin="round"/>
<path d="M109.055 81.106L111.995 75.6461L109.318 72.7637L109.055 81.106Z" fill="white" stroke="#263238" stroke-width="0.526" stroke-linecap="round" stroke-linejoin="round"/>
<path d="M103.391 63.4219C103.849 65.2411 104.077 67.1108 104.069 68.987C104.054 70.2018 103.931 71.4128 103.701 72.6058L109.056 81.106L110.576 73.216L111.575 67.7561C111.575 67.7561 105.489 67.409 103.391 63.4219Z" fill="white" stroke="#263238" stroke-width="0.526" stroke-linecap="round" stroke-linejoin="round"/>
<path d="M108.738 76.54L109.053 81.1057L107.48 78.6388L108.738 76.54Z" fill="white" stroke="#263238" stroke-width="0.526" stroke-linecap="round" stroke-linejoin="round"/>
<path d="M101.918 72.3953L106.799 81.1584L108.74 76.5402L103.549 69.4023L101.918 72.3953Z" fill="white" stroke="#263238" stroke-width="0.526" stroke-linecap="round" stroke-linejoin="round"/>
<path d="M187.435 76.4819H143.141V112.829H187.435V76.4819Z" fill="#F2F4F7"/>
<mask id="mask11_804_8931" style="mask-type:luminance" maskUnits="userSpaceOnUse" x="143" y="76" width="45" height="37">
<path d="M187.435 76.4827H143.141V112.829H187.435V76.4827Z" fill="white"/>
</mask>
<g mask="url(#mask11_804_8931)">
<path opacity="0.2" d="M187.435 76.4827H143.141V112.829H187.435V76.4827Z" fill="black"/>
</g>
<path d="M187.435 76.4819H143.141V112.829H187.435V76.4819Z" stroke="#263238" stroke-width="0.526" stroke-linecap="round" stroke-linejoin="round"/>
<path d="M178.056 76.4819H133.762V112.829H178.056V76.4819Z" fill="#F2F4F7" stroke="#263238" stroke-width="0.526" stroke-linecap="round" stroke-linejoin="round"/>
<path d="M194.731 125.064C193.311 122.812 187.436 112.829 187.436 112.829H178.062L182.886 125.064H194.731Z" fill="#F2F4F7"/>
<mask id="mask12_804_8931" style="mask-type:luminance" maskUnits="userSpaceOnUse" x="178" y="112" width="17" height="14">
<path d="M194.735 125.064C193.315 122.813 187.44 112.829 187.44 112.829H178.066L182.89 125.064H194.735Z" fill="white"/>
</mask>
<g mask="url(#mask12_804_8931)">
<path opacity="0.2" d="M194.735 125.064C193.315 122.813 187.44 112.829 187.44 112.829H178.066L182.89 125.064H194.735Z" fill="black"/>
</g>
<path d="M194.731 125.064C193.311 122.812 187.436 112.829 187.436 112.829H178.062L182.886 125.064H194.731Z" stroke="#263238" stroke-width="0.526" stroke-linecap="round" stroke-linejoin="round"/>
<path d="M126.438 125.064C127.858 122.812 133.728 112.829 133.728 112.829H143.106L138.283 125.064H126.438Z" fill="#F2F4F7" stroke="#263238" stroke-width="0.526" stroke-linecap="round" stroke-linejoin="round"/>
<path d="M133.729 112.829L129.652 125.063H175.914L178.06 112.829H133.729Z" fill="#F2F4F7" stroke="#263238" stroke-width="0.526" stroke-linecap="round" stroke-linejoin="round"/>
<path d="M193.137 89.6323V101.804" stroke="#263238" stroke-width="0.526" stroke-linecap="round" stroke-linejoin="round"/>
<path d="M195.441 94.8979V104.766" stroke="#263238" stroke-width="0.526" stroke-linecap="round" stroke-linejoin="round"/>
<path d="M129 101.804V109.368" stroke="#263238" stroke-width="0.526" stroke-linecap="round" stroke-linejoin="round"/>
<path d="M127.031 106.081V111.998" stroke="#263238" stroke-width="0.526" stroke-linecap="round" stroke-linejoin="round"/>
<path d="M94.6211 85.4083C96.1908 87.1861 98.0126 88.7244 100.028 89.9739C103.184 91.8623 114.756 98.4215 115.666 98.7897C116.576 99.1579 144.212 94.6448 144.212 94.6448C144.212 94.6448 145.79 95.3812 146.785 96.0072C147.779 96.6331 154.08 98.6372 154.08 98.6372C154.08 98.6372 154.501 98.4268 154.028 98.0638C153.554 97.7009 150.514 96.2228 150.514 96.2228L156.826 97.5904C156.826 97.5904 157.194 97.3274 157.036 97.0644C156.878 96.8014 151.25 94.6501 151.25 94.6501L157.562 94.9657C157.562 94.9657 158.036 94.3871 157.72 94.1767C157.404 93.9663 150.94 92.4935 150.94 92.4935C150.94 92.4935 157.815 91.9149 157.867 91.6519C157.92 91.3889 158.13 91.0785 157.71 91.0259C157.289 90.9733 148.683 90.1317 148.683 90.1317C148.683 90.1317 150.94 88.7168 151.203 88.296C151.466 87.8752 151.834 87.0336 151.413 87.0336C150.993 87.0336 150.887 87.2966 150.314 87.6648C149.741 88.033 147.479 88.9272 146.848 89.4479C146.216 89.9687 144.328 91.3415 144.328 91.3415L119.038 91.3941L103.337 79.0068" fill="white"/>
<path d="M94.6211 85.4083C96.1908 87.1861 98.0126 88.7244 100.028 89.9739C103.184 91.8623 114.756 98.4215 115.666 98.7897C116.576 99.1579 144.212 94.6448 144.212 94.6448C144.212 94.6448 145.79 95.3812 146.785 96.0072C147.779 96.6331 154.08 98.6372 154.08 98.6372C154.08 98.6372 154.501 98.4268 154.028 98.0638C153.554 97.7009 150.514 96.2228 150.514 96.2228L156.826 97.5904C156.826 97.5904 157.194 97.3274 157.036 97.0644C156.878 96.8014 151.25 94.6501 151.25 94.6501L157.562 94.9657C157.562 94.9657 158.036 94.3871 157.72 94.1767C157.404 93.9663 150.94 92.4935 150.94 92.4935C150.94 92.4935 157.815 91.9149 157.867 91.6519C157.92 91.3889 158.13 91.0785 157.71 91.0259C157.289 90.9733 148.683 90.1317 148.683 90.1317C148.683 90.1317 150.94 88.7168 151.203 88.296C151.466 87.8752 151.834 87.0336 151.413 87.0336C150.993 87.0336 150.887 87.2966 150.314 87.6648C149.741 88.033 147.479 88.9272 146.848 89.4479C146.216 89.9687 144.328 91.3415 144.328 91.3415L119.038 91.3941L103.337 79.0068" stroke="#263238" stroke-width="0.526" stroke-linecap="round" stroke-linejoin="round"/>
<path d="M157.698 91.026C157.283 90.9734 148.672 90.1318 148.672 90.1318C148.672 90.1318 150.929 88.7169 151.192 88.2961C151.455 87.8753 151.823 87.0337 151.402 87.0337C150.981 87.0337 150.876 87.2967 150.303 87.6649C149.729 88.0331 147.468 88.9273 146.836 89.448C146.205 89.9688 144.317 91.3416 144.317 91.3416L119.027 91.3942L116.223 89.1693C115.171 91.0155 113.204 94.4766 111.926 96.7594C113.893 97.8535 115.382 98.6688 115.681 98.7898C116.576 99.158 144.227 94.6449 144.227 94.6449C144.227 94.6449 145.805 95.3813 146.8 96.0073C147.794 96.6332 154.095 98.6373 154.095 98.6373C154.095 98.6373 154.516 98.4269 154.043 98.0639C153.569 97.701 150.529 96.2229 150.529 96.2229L156.841 97.5905C156.841 97.5905 157.209 97.3275 157.051 97.0645C156.894 96.8015 151.265 94.6502 151.265 94.6502L157.577 94.9658C157.577 94.9658 158.051 94.3872 157.735 94.1768C157.42 93.9664 150.939 92.4936 150.939 92.4936C150.939 92.4936 157.814 91.915 157.867 91.652C157.919 91.389 158.119 91.0786 157.698 91.026Z" fill="white" stroke="#263238" stroke-width="0.526" stroke-linecap="round" stroke-linejoin="round"/>
<path d="M115.35 59.0142C115.44 58.9054 115.558 58.8239 115.692 58.7792C115.825 58.7344 115.969 58.7281 116.106 58.761C116.243 58.7939 116.368 58.8647 116.467 58.9653C116.566 59.0658 116.634 59.1922 116.665 59.3298C116.753 59.9004 116.723 60.4829 116.579 61.0418C116.434 61.6007 116.177 62.1242 115.823 62.5805C115.245 63.1591 114.719 63.3169 114.719 62.5805C114.865 61.3812 115.076 60.1908 115.35 59.0142Z" fill="white" stroke="#263238" stroke-width="0.526" stroke-linecap="round" stroke-linejoin="round"/>
<path d="M108.892 49.8196C108.707 52.3794 107.612 54.7885 105.804 56.6102C104.12 58.2664 102.216 59.6824 100.145 60.8182C100.145 60.8182 100.45 62.4646 101.07 62.9801C101.691 63.4956 102.922 63.3956 102.922 63.3956C103.637 65.3521 104.801 67.1139 106.32 68.5399C108.787 70.8017 111.669 70.5966 113.316 67.2039C114.962 63.8112 115.788 60.408 115.583 58.4512L115.377 56.4945C115.377 56.4945 110.023 53.5226 108.892 49.8196Z" fill="white" stroke="#263238" stroke-width="0.526" stroke-linecap="round" stroke-linejoin="round"/>
<path d="M108.583 59.9923C108.844 59.9923 109.056 59.6155 109.056 59.1507C109.056 58.6859 108.844 58.3091 108.583 58.3091C108.321 58.3091 108.109 58.6859 108.109 59.1507C108.109 59.6155 108.321 59.9923 108.583 59.9923Z" fill="#263238"/>
<path d="M111.153 66.7091C111.415 66.7091 111.626 66.3323 111.626 65.8675C111.626 65.4027 111.415 65.0259 111.153 65.0259C110.892 65.0259 110.68 65.4027 110.68 65.8675C110.68 66.3323 110.892 66.7091 111.153 66.7091Z" fill="#263238"/>
<path d="M113.149 59.9923C113.411 59.9923 113.623 59.6155 113.623 59.1507C113.623 58.6859 113.411 58.3091 113.149 58.3091C112.888 58.3091 112.676 58.6859 112.676 59.1507C112.676 59.6155 112.888 59.9923 113.149 59.9923Z" fill="#263238"/>
<path d="M112.201 58.2563C112.021 58.8865 111.967 59.5462 112.044 60.1973C112.201 61.0915 112.938 62.6116 112.307 62.8746C112.019 63.006 111.7 63.0559 111.386 63.0188C111.071 62.9817 110.773 62.859 110.523 62.6642" stroke="#263238" stroke-width="0.526" stroke-linecap="round" stroke-linejoin="round"/>
<path d="M107.215 57.6306C107.215 57.6306 107.467 56.021 109.577 56.2051" stroke="#263238" stroke-width="0.526" stroke-linecap="round" stroke-linejoin="round"/>
<path d="M112.863 56.6993C112.863 56.6993 114.831 55.1213 115.467 58.0091" stroke="#263238" stroke-width="0.526" stroke-linecap="round" stroke-linejoin="round"/>
</svg>
