<svg xmlns="http://www.w3.org/2000/svg" width="201" height="201" viewBox="0 0 201 201" fill="none">
  <g clip-path="url(#clip0_302_50653)">
    <path d="M18.1683 0.239746V200.81" stroke="#E4E7EC" stroke-width="0.478118"/>
    <path d="M109.967 0.239746V200.81" stroke="#E4E7EC" stroke-width="0.478118"/>
    <path d="M33.4681 0.000488281V200.571" stroke="#E4E7EC" stroke-width="0.478118"/>
    <path d="M125.266 0.000488281V200.571" stroke="#E4E7EC" stroke-width="0.478118"/>
    <path d="M48.7676 0.000488281V200.571" stroke="#E4E7EC" stroke-width="0.478118"/>
    <path d="M140.566 0.000488281V200.571" stroke="#E4E7EC" stroke-width="0.478118"/>
    <path d="M64.0674 0.000488281V200.571" stroke="#E4E7EC" stroke-width="0.478118"/>
    <path d="M155.866 0.000488281V200.571" stroke="#E4E7EC" stroke-width="0.478118"/>
    <path d="M79.3672 0.000488281V200.571" stroke="#E4E7EC" stroke-width="0.478118"/>
    <path d="M171.166 0.000488281V200.571" stroke="#E4E7EC" stroke-width="0.478118"/>
    <path d="M94.6669 0.000488281V200.571" stroke="#E4E7EC" stroke-width="0.478118"/>
    <path d="M186.466 0.000488281V200.571" stroke="#E4E7EC" stroke-width="0.478118"/>
    <path d="M0.429626 184.314L201 184.314" stroke="#E4E7EC" stroke-width="0.478118"/>
    <path d="M0.325745 92.5151L200.896 92.5151" stroke="#E4E7EC" stroke-width="0.478118"/>
    <path d="M0.173035 169.014L200.743 169.014" stroke="#E4E7EC" stroke-width="0.478118"/>
    <path d="M0.069397 77.2158L200.64 77.2158" stroke="#E4E7EC" stroke-width="0.478118"/>
    <path d="M0.156006 153.714L200.726 153.714" stroke="#E4E7EC" stroke-width="0.478118"/>
    <path d="M0.0516968 61.9165L200.622 61.9165" stroke="#E4E7EC" stroke-width="0.478118"/>
    <path d="M0.13855 138.415L200.709 138.415" stroke="#E4E7EC" stroke-width="0.478118"/>
    <path d="M0.0344849 46.6167L200.605 46.6167" stroke="#E4E7EC" stroke-width="0.478118"/>
    <path d="M0.121094 123.115L200.691 123.115" stroke="#E4E7EC" stroke-width="0.478118"/>
    <path d="M0.0172119 31.3169L200.587 31.3169" stroke="#E4E7EC" stroke-width="0.478118"/>
    <path d="M0.104065 107.815L200.674 107.815" stroke="#E4E7EC" stroke-width="0.478118"/>
    <path d="M0 16.0171L200.57 16.0171" stroke="#E4E7EC" stroke-width="0.478118"/>
  </g>
  <defs>
    <clipPath id="clip0_302_50653">
      <rect width="201" height="200.809" fill="white"/>
    </clipPath>
  </defs>
</svg>