<svg width="307" height="104" viewBox="0 0 307 104" fill="none" xmlns="http://www.w3.org/2000/svg">
<g opacity="0.7">
<rect x="5.69672" y="2.69672" width="148.607" height="20.459" fill="#F2F4F7"/>
<rect x="5.69672" y="2.69672" width="148.607" height="20.459" stroke="#E4E7EC" stroke-width="0.606557"/>
<path d="M49.921 16.5714C49.4002 16.5714 48.9343 16.4905 48.5235 16.3287C48.1126 16.1637 47.7649 15.9179 47.4802 15.5912C47.1955 15.2612 46.982 14.852 46.8397 14.3635L47.9849 14.0772C48.1143 14.4913 48.3423 14.8277 48.669 15.0865C48.9958 15.3453 49.3888 15.4731 49.8482 15.4698C50.1685 15.4634 50.4709 15.4003 50.7556 15.2806C51.0435 15.1609 51.2781 14.9765 51.4592 14.7274C51.6048 14.543 51.7115 14.3457 51.7795 14.1354C51.8474 13.9219 51.8943 13.7019 51.9202 13.4755H49.4454V12.3788H51.9299C51.8781 11.9842 51.7649 11.638 51.5902 11.3404C51.4155 11.0396 51.181 10.8066 50.8866 10.6417C50.5955 10.4734 50.2493 10.3926 49.8482 10.399C49.3694 10.4023 48.965 10.5349 48.6351 10.7969C48.3051 11.059 48.0803 11.4132 47.9606 11.8596L46.7911 11.6946C46.9658 10.9312 47.3249 10.3408 47.8684 9.92349C48.4119 9.50294 49.0961 9.29267 49.921 9.29267C50.5971 9.29267 51.1778 9.44633 51.663 9.75365C52.1515 10.0577 52.5268 10.4831 52.7888 11.0298C53.0541 11.5766 53.1883 12.2106 53.1915 12.932C53.1948 13.6114 53.067 14.226 52.8082 14.7759C52.5494 15.3259 52.1741 15.7626 51.6824 16.0861C51.1939 16.4096 50.6068 16.5714 49.921 16.5714ZM53.776 17.5904V15.5087C54.0607 15.5087 54.2629 15.4116 54.3826 15.2175C54.5023 15.0234 54.5977 14.687 54.6689 14.2082C54.7142 13.9235 54.7514 13.6227 54.7805 13.3057C54.8096 12.9886 54.8339 12.6538 54.8533 12.3012C54.8759 11.9486 54.8953 11.5766 54.9115 11.1851H58.8129V15.5087H59.3418V17.5904H58.2354V16.4258H54.8775V17.5904H53.776ZM55.3434 15.5087H57.6483V12.1022H55.9354C55.9257 12.2963 55.9144 12.4953 55.9014 12.6991C55.8885 12.8997 55.8739 13.1002 55.8577 13.3008C55.8416 13.5014 55.8238 13.6938 55.8044 13.8782C55.7882 14.0594 55.7688 14.2276 55.7461 14.3829C55.7105 14.6546 55.6669 14.8778 55.6151 15.0525C55.5634 15.2272 55.4728 15.3793 55.3434 15.5087ZM64.857 11.1851V16.4258H63.7361V13.0048L61.2419 16.4258H60.3054V11.1851H61.4263V14.5188L63.9302 11.1851H64.857ZM68.6409 10.5931C68.3724 10.5931 68.1266 10.5268 67.9034 10.3942C67.6801 10.2615 67.5022 10.0852 67.3696 9.86526C67.237 9.64204 67.1706 9.39457 67.1706 9.12283H68.0829C68.0829 9.27811 68.1363 9.41074 68.243 9.52073C68.353 9.62749 68.4857 9.68086 68.6409 9.68086C68.7962 9.68086 68.9272 9.62749 69.034 9.52073C69.144 9.41074 69.199 9.27811 69.199 9.12283H70.1112C70.1112 9.39457 70.0449 9.64204 69.9123 9.86526C69.7796 10.0852 69.6017 10.2615 69.3785 10.3942C69.1553 10.5268 68.9094 10.5931 68.6409 10.5931ZM70.7615 11.1851V16.4258H69.6405V13.0048L67.1464 16.4258H66.2099V11.1851H67.3308V14.5188L69.8346 11.1851H70.7615ZM72.1143 16.4258V11.1851H73.2838V13.2523H75.6372V11.1851H76.8066V16.4258H75.6372V14.3489H73.2838V16.4258H72.1143ZM79.7158 17.5904V15.5087C80.0005 15.5087 80.2027 15.4116 80.3224 15.2175C80.4421 15.0234 80.5375 14.687 80.6087 14.2082C80.654 13.9235 80.6912 13.6227 80.7203 13.3057C80.7494 12.9886 80.7737 12.6538 80.7931 12.3012C80.8157 11.9486 80.8351 11.5766 80.8513 11.1851H84.7527V15.5087H85.2816V17.5904H84.1753V16.4258H80.8173V17.5904H79.7158ZM81.2832 15.5087H83.5881V12.1022H81.8752C81.8655 12.2963 81.8542 12.4953 81.8412 12.6991C81.8283 12.8997 81.8137 13.1002 81.7975 13.3008C81.7814 13.5014 81.7636 13.6938 81.7442 13.8782C81.728 14.0594 81.7086 14.2276 81.6859 14.3829C81.6504 14.6546 81.6067 14.8778 81.5549 15.0525C81.5032 15.2272 81.4126 15.3793 81.2832 15.5087ZM86.944 18.755L87.9533 15.9842L87.9727 16.7994L85.6872 11.1851H86.9051L88.5259 15.3388H88.2153L89.7923 11.1851H90.9618L88.0406 18.755H86.944ZM91.6855 16.4258V11.1851H95.4219V12.2818H92.8549V16.4258H91.6855ZM97.6906 16.5714C97.3121 16.5714 96.9919 16.5002 96.7298 16.3578C96.4678 16.2123 96.2689 16.0198 96.133 15.7804C96.0004 15.541 95.934 15.2774 95.934 14.9895C95.934 14.7371 95.9761 14.5107 96.0602 14.3101C96.1443 14.1063 96.2737 13.9316 96.4484 13.786C96.6231 13.6372 96.8495 13.5159 97.1278 13.4221C97.338 13.3542 97.5839 13.2927 97.8653 13.2377C98.15 13.1827 98.4573 13.1326 98.7873 13.0873C99.1205 13.0388 99.4683 12.987 99.8306 12.932L99.4133 13.1698C99.4165 12.8075 99.3356 12.5406 99.1706 12.3691C99.0057 12.1977 98.7274 12.1119 98.336 12.1119C98.0999 12.1119 97.8718 12.1669 97.6518 12.2769C97.4318 12.3869 97.2782 12.5762 97.1908 12.8447L96.1233 12.5098C96.2527 12.0667 96.4985 11.7108 96.8609 11.4423C97.2264 11.1738 97.7181 11.0396 98.336 11.0396C98.8018 11.0396 99.2111 11.1156 99.5637 11.2676C99.9195 11.4197 100.183 11.6688 100.355 12.0149C100.448 12.1993 100.505 12.3885 100.524 12.5826C100.544 12.7735 100.554 12.9822 100.554 13.2086V16.4258H99.5297V15.2903L99.6996 15.4747C99.4634 15.8532 99.1868 16.1314 98.8698 16.3093C98.556 16.484 98.1629 16.5714 97.6906 16.5714ZM97.9236 15.6397C98.1888 15.6397 98.4153 15.5928 98.6029 15.499C98.7905 15.4051 98.9393 15.2903 99.0493 15.1544C99.1625 15.0186 99.2386 14.8908 99.2774 14.7711C99.3389 14.6223 99.3728 14.4524 99.3793 14.2616C99.389 14.0675 99.3938 13.9106 99.3938 13.7909L99.7529 13.8977C99.4003 13.9526 99.0978 14.0012 98.8455 14.0432C98.5932 14.0853 98.3765 14.1257 98.1953 14.1645C98.0141 14.2001 97.854 14.2406 97.7149 14.2858C97.579 14.3344 97.4642 14.391 97.3704 14.4557C97.2766 14.5204 97.2038 14.5948 97.152 14.6789C97.1035 14.763 97.0792 14.8617 97.0792 14.9749C97.0792 15.1043 97.1116 15.2191 97.1763 15.3194C97.241 15.4165 97.3348 15.4941 97.4577 15.5523C97.5839 15.6106 97.7392 15.6397 97.9236 15.6397ZM103.282 16.5714C102.904 16.5714 102.584 16.5002 102.322 16.3578C102.06 16.2123 101.861 16.0198 101.725 15.7804C101.592 15.541 101.526 15.2774 101.526 14.9895C101.526 14.7371 101.568 14.5107 101.652 14.3101C101.736 14.1063 101.865 13.9316 102.04 13.786C102.215 13.6372 102.441 13.5159 102.719 13.4221C102.93 13.3542 103.176 13.2927 103.457 13.2377C103.742 13.1827 104.049 13.1326 104.379 13.0873C104.712 13.0388 105.06 12.987 105.422 12.932L105.005 13.1698C105.008 12.8075 104.927 12.5406 104.762 12.3691C104.597 12.1977 104.319 12.1119 103.928 12.1119C103.692 12.1119 103.463 12.1669 103.244 12.2769C103.024 12.3869 102.87 12.5762 102.783 12.8447L101.715 12.5098C101.844 12.0667 102.09 11.7108 102.453 11.4423C102.818 11.1738 103.31 11.0396 103.928 11.0396C104.394 11.0396 104.803 11.1156 105.155 11.2676C105.511 11.4197 105.775 11.6688 105.946 12.0149C106.04 12.1993 106.097 12.3885 106.116 12.5826C106.136 12.7735 106.145 12.9822 106.145 13.2086V16.4258H105.121V15.2903L105.291 15.4747C105.055 15.8532 104.779 16.1314 104.461 16.3093C104.148 16.484 103.755 16.5714 103.282 16.5714ZM103.515 15.6397C103.781 15.6397 104.007 15.5928 104.195 15.499C104.382 15.4051 104.531 15.2903 104.641 15.1544C104.754 15.0186 104.83 14.8908 104.869 14.7711C104.931 14.6223 104.965 14.4524 104.971 14.2616C104.981 14.0675 104.986 13.9106 104.986 13.7909L105.345 13.8977C104.992 13.9526 104.69 14.0012 104.437 14.0432C104.185 14.0853 103.968 14.1257 103.787 14.1645C103.606 14.2001 103.446 14.2406 103.307 14.2858C103.171 14.3344 103.056 14.391 102.962 14.4557C102.868 14.5204 102.795 14.5948 102.744 14.6789C102.695 14.763 102.671 14.8617 102.671 14.9749C102.671 15.1043 102.703 15.2191 102.768 15.3194C102.833 15.4165 102.926 15.4941 103.049 15.5523C103.176 15.6106 103.331 15.6397 103.515 15.6397ZM109.927 16.5714C109.416 16.5714 108.987 16.45 108.641 16.2074C108.295 15.9648 108.035 15.6348 107.86 15.2175C107.685 14.797 107.598 14.3263 107.598 13.8055C107.598 13.2782 107.685 12.8058 107.86 12.3885C108.035 11.9712 108.29 11.6429 108.627 11.4035C108.966 11.1609 109.385 11.0396 109.883 11.0396C110.378 11.0396 110.807 11.1609 111.169 11.4035C111.535 11.6429 111.818 11.9712 112.018 12.3885C112.219 12.8026 112.319 13.2749 112.319 13.8055C112.319 14.3295 112.221 14.8002 112.023 15.2175C111.826 15.6348 111.548 15.9648 111.189 16.2074C110.83 16.45 110.409 16.5714 109.927 16.5714ZM107.399 18.755V11.1851H108.432V14.8633H108.578V18.755H107.399ZM109.747 15.5232C110.052 15.5232 110.302 15.4472 110.5 15.2952C110.697 15.1431 110.843 14.9377 110.936 14.6789C111.033 14.4169 111.082 14.1257 111.082 13.8055C111.082 13.4884 111.033 13.2005 110.936 12.9417C110.839 12.6797 110.689 12.4726 110.485 12.3206C110.281 12.1653 110.022 12.0877 109.709 12.0877C109.411 12.0877 109.168 12.1605 108.981 12.306C108.793 12.4484 108.654 12.649 108.563 12.9077C108.476 13.1633 108.432 13.4625 108.432 13.8055C108.432 14.1451 108.476 14.4444 108.563 14.7032C108.654 14.962 108.795 15.1641 108.986 15.3097C109.18 15.4521 109.434 15.5232 109.747 15.5232Z" fill="#475467"/>
<rect x="153.697" y="2.69672" width="148.607" height="20.459" fill="#F2F4F7"/>
<rect x="153.697" y="2.69672" width="148.607" height="20.459" stroke="#E4E7EC" stroke-width="0.606557"/>
<path d="M203.358 16.4258V10.5349H201.097V9.43824H206.789V10.5349H204.528V16.4258H203.358ZM209.102 16.5714C208.578 16.5714 208.121 16.4533 207.729 16.2171C207.338 15.981 207.034 15.6559 206.817 15.2418C206.603 14.8245 206.497 14.3457 206.497 13.8055C206.497 13.2555 206.607 12.7735 206.827 12.3594C207.046 11.9453 207.352 11.6218 207.744 11.3889C208.135 11.156 208.588 11.0396 209.102 11.0396C209.63 11.0396 210.089 11.1576 210.48 11.3938C210.872 11.6299 211.176 11.9567 211.393 12.374C211.609 12.7881 211.718 13.2652 211.718 13.8055C211.718 14.3489 211.608 14.8293 211.388 15.2466C211.171 15.6607 210.867 15.9858 210.476 16.222C210.084 16.4549 209.626 16.5714 209.102 16.5714ZM209.102 15.4747C209.568 15.4747 209.914 15.3194 210.141 15.0089C210.367 14.6983 210.48 14.2972 210.48 13.8055C210.48 13.2976 210.366 12.8932 210.136 12.5923C209.906 12.2883 209.562 12.1362 209.102 12.1362C208.789 12.1362 208.53 12.2074 208.326 12.3497C208.125 12.4888 207.977 12.6845 207.879 12.9369C207.782 13.186 207.734 13.4755 207.734 13.8055C207.734 14.3133 207.849 14.7193 208.078 15.0234C208.311 15.3243 208.653 15.4747 209.102 15.4747ZM215.102 16.5714C214.577 16.5714 214.12 16.4533 213.728 16.2171C213.337 15.981 213.033 15.6559 212.816 15.2418C212.603 14.8245 212.496 14.3457 212.496 13.8055C212.496 13.2555 212.606 12.7735 212.826 12.3594C213.046 11.9453 213.351 11.6218 213.743 11.3889C214.134 11.156 214.587 11.0396 215.102 11.0396C215.629 11.0396 216.088 11.1576 216.48 11.3938C216.871 11.6299 217.175 11.9567 217.392 12.374C217.609 12.7881 217.717 13.2652 217.717 13.8055C217.717 14.3489 217.607 14.8293 217.387 15.2466C217.17 15.6607 216.866 15.9858 216.475 16.222C216.083 16.4549 215.626 16.5714 215.102 16.5714ZM215.102 15.4747C215.567 15.4747 215.914 15.3194 216.14 15.0089C216.366 14.6983 216.48 14.2972 216.48 13.8055C216.48 13.2976 216.365 12.8932 216.135 12.5923C215.905 12.2883 215.561 12.1362 215.102 12.1362C214.788 12.1362 214.529 12.2074 214.325 12.3497C214.125 12.4888 213.976 12.6845 213.879 12.9369C213.782 13.186 213.733 13.4755 213.733 13.8055C213.733 14.3133 213.848 14.7193 214.078 15.0234C214.311 15.3243 214.652 15.4747 215.102 15.4747ZM220.719 16.4258V11.1851H221.84V15.3874H223.32V11.1851H224.441V15.3874H225.921V11.1851H227.042V16.4258H220.719ZM232.938 11.1851V16.4258H231.817V13.0048L229.323 16.4258H228.387V11.1851H229.508V14.5188L232.011 11.1851H232.938ZM236.819 16.5714C236.308 16.5714 235.879 16.45 235.533 16.2074C235.187 15.9648 234.927 15.6348 234.752 15.2175C234.577 14.797 234.49 14.3263 234.49 13.8055C234.49 13.2782 234.577 12.8058 234.752 12.3885C234.927 11.9712 235.182 11.6429 235.519 11.4035C235.858 11.1609 236.277 11.0396 236.776 11.0396C237.27 11.0396 237.699 11.1609 238.061 11.4035C238.427 11.6429 238.71 11.9712 238.911 12.3885C239.111 12.8026 239.211 13.2749 239.211 13.8055C239.211 14.3295 239.113 14.8002 238.915 15.2175C238.718 15.6348 238.44 15.9648 238.081 16.2074C237.722 16.45 237.301 16.5714 236.819 16.5714ZM234.291 18.755V11.1851H235.325V14.8633H235.47V18.755H234.291ZM236.64 15.5232C236.944 15.5232 237.194 15.4472 237.392 15.2952C237.589 15.1431 237.735 14.9377 237.828 14.6789C237.926 14.4169 237.974 14.1257 237.974 13.8055C237.974 13.4884 237.926 13.2005 237.828 12.9417C237.731 12.6797 237.581 12.4726 237.377 12.3206C237.173 12.1653 236.915 12.0877 236.601 12.0877C236.303 12.0877 236.061 12.1605 235.873 12.306C235.685 12.4484 235.546 12.649 235.456 12.9077C235.368 13.1633 235.325 13.4625 235.325 13.8055C235.325 14.1451 235.368 14.4444 235.456 14.7032C235.546 14.962 235.687 15.1641 235.878 15.3097C236.072 15.4521 236.326 15.5232 236.64 15.5232ZM239.509 16.4258L241.426 13.7763L239.548 11.1851H240.926L242.105 12.8592L243.265 11.1851H244.643L242.765 13.7763L244.692 16.4258H243.314L242.105 14.6935L240.887 16.4258H239.509ZM247.236 16.5714C246.654 16.5714 246.16 16.429 245.756 16.1443C245.352 15.8564 245.067 15.4456 244.902 14.9118L246.096 14.6449C246.186 14.9134 246.321 15.1189 246.498 15.2612C246.68 15.4035 246.925 15.4747 247.236 15.4747C247.605 15.4747 247.898 15.3647 248.114 15.1447C248.331 14.9248 248.467 14.6304 248.522 14.2616H246.78V13.3445H248.522C248.47 12.9951 248.341 12.7072 248.134 12.4807C247.927 12.251 247.639 12.1362 247.27 12.1362C246.985 12.1362 246.736 12.2122 246.523 12.3643C246.312 12.5163 246.16 12.7379 246.067 13.0291L244.902 12.7136C245.028 12.1961 245.297 11.7884 245.708 11.4908C246.122 11.19 246.628 11.0396 247.226 11.0396C247.754 11.0396 248.21 11.1592 248.595 11.3986C248.983 11.6348 249.281 11.9615 249.488 12.3788C249.698 12.7961 249.803 13.2749 249.803 13.8152C249.803 14.3425 249.701 14.8148 249.497 15.2321C249.293 15.6462 248.999 15.9729 248.614 16.2123C248.232 16.4517 247.773 16.5714 247.236 16.5714ZM250.867 16.4258V11.1851H254.604V12.2818H252.037V16.4258H250.867Z" fill="#475467"/>
<rect x="5.69672" y="22.5493" width="148.607" height="20.0164" fill="#FCFCFD"/>
<rect x="5.69672" y="22.5493" width="148.607" height="20.0164" stroke="#E4E7EC" stroke-width="0.606557"/>
<rect x="15.705" y="30.1309" width="128.59" height="4.85246" rx="2.42623" fill="#E4E7EC"/>
<rect x="153.697" y="22.5493" width="148.607" height="20.0164" fill="#FCFCFD"/>
<rect x="153.697" y="22.5493" width="148.607" height="20.0164" stroke="#E4E7EC" stroke-width="0.606557"/>
<rect x="204.951" y="30.1309" width="46.0984" height="4.85246" rx="2.42623" fill="#E4E7EC"/>
<rect x="5.69672" y="41.9594" width="148.607" height="20.0164" fill="#FCFCFD"/>
<rect x="5.69672" y="41.9594" width="148.607" height="20.0164" stroke="#E4E7EC" stroke-width="0.606557"/>
<rect x="15.705" y="49.541" width="128.59" height="4.85246" rx="2.42623" fill="#E4E7EC"/>
<rect x="153.697" y="41.9594" width="148.607" height="20.0164" fill="#FCFCFD"/>
<rect x="153.697" y="41.9594" width="148.607" height="20.0164" stroke="#E4E7EC" stroke-width="0.606557"/>
<rect x="204.951" y="49.541" width="46.0984" height="4.85246" rx="2.42623" fill="#E4E7EC"/>
<rect x="5.69672" y="61.3686" width="148.607" height="20.0164" fill="#FCFCFD"/>
<rect x="5.69672" y="61.3686" width="148.607" height="20.0164" stroke="#E4E7EC" stroke-width="0.606557"/>
<rect x="15.705" y="68.9502" width="128.59" height="4.85246" rx="2.42623" fill="#E4E7EC"/>
<rect x="153.697" y="61.3686" width="148.607" height="20.0164" fill="#FCFCFD"/>
<rect x="153.697" y="61.3686" width="148.607" height="20.0164" stroke="#E4E7EC" stroke-width="0.606557"/>
<rect x="204.951" y="68.9502" width="46.0984" height="4.85246" rx="2.42623" fill="#E4E7EC"/>
<rect x="5.69672" y="80.7788" width="148.607" height="20.0164" fill="#FCFCFD"/>
<rect x="5.69672" y="80.7788" width="148.607" height="20.0164" stroke="#E4E7EC" stroke-width="0.606557"/>
<rect x="15.705" y="88.3604" width="128.59" height="4.85246" rx="2.42623" fill="#E4E7EC"/>
<rect x="153.697" y="80.7788" width="148.607" height="20.0164" fill="#FCFCFD"/>
<rect x="153.697" y="80.7788" width="148.607" height="20.0164" stroke="#E4E7EC" stroke-width="0.606557"/>
<rect x="204.951" y="88.3604" width="46.0984" height="4.85246" rx="2.42623" fill="#E4E7EC"/>
<rect width="307" height="104" fill="url(#paint0_linear_771_14526)"/>
</g>
<defs>
<linearGradient id="paint0_linear_771_14526" x1="153.5" y1="0" x2="153.5" y2="104" gradientUnits="userSpaceOnUse">
<stop stop-color="#FCFCFD" stop-opacity="0.4"/>
<stop offset="0.695" stop-color="#FCFCFD"/>
</linearGradient>
</defs>
</svg>
