<svg width="356" height="356" viewBox="0 0 356 356" fill="none" xmlns="http://www.w3.org/2000/svg">
<path d="M183.105 306.011C270.882 306.011 342.038 267.997 342.038 221.105C342.038 174.212 270.882 136.199 183.105 136.199C95.3294 136.199 24.1729 174.212 24.1729 221.105C24.1729 267.997 95.3294 306.011 183.105 306.011Z" fill="#F5F5F5"/>
<path d="M119.146 268.367L68.4731 238.904L154.184 189.371L119.146 268.367Z" fill="#E0E0E0"/>
<path d="M46.0027 237.096L66.6507 249.001C67.0799 249.218 67.5543 249.332 68.0356 249.332C68.5168 249.332 68.9912 249.218 69.4204 249.001L97.9004 232.383C98.068 232.327 98.2138 232.22 98.3171 232.077C98.4205 231.934 98.4761 231.762 98.4761 231.585C98.4761 231.409 98.4205 231.237 98.3171 231.093C98.2138 230.95 98.068 230.843 97.9004 230.788L77.2524 218.876C76.8232 218.658 76.3488 218.545 75.8676 218.545C75.3863 218.545 74.9119 218.658 74.4827 218.876L46.0027 235.494C45.836 235.552 45.6914 235.66 45.589 235.803C45.4867 235.947 45.4316 236.119 45.4316 236.295C45.4316 236.471 45.4867 236.643 45.589 236.787C45.6914 236.931 45.836 237.039 46.0027 237.096Z" fill="#E0E0E0"/>
<path d="M48.2379 235.245C46.8139 232.953 42.4208 230.432 36.6536 229.186C30.8864 227.94 25.0907 226.416 26.4151 223.049C27.8391 219.439 33.2075 219.261 38.455 221.411C44.1866 223.761 48.423 229.571 48.5013 233.23L48.2379 235.245Z" fill="#F2F4F7"/>
<g opacity="0.1">
<path d="M48.2379 235.245C46.8139 232.953 42.4208 230.432 36.6536 229.186C30.8864 227.94 25.0907 226.416 26.4151 223.049C27.8391 219.439 33.2075 219.261 38.455 221.411C44.1866 223.761 48.423 229.571 48.5013 233.23L48.2379 235.245Z" fill="black"/>
</g>
<path d="M48.6864 234.206C48.6052 234.205 48.526 234.181 48.4579 234.137C48.3898 234.093 48.3357 234.03 48.3019 233.956C43.7237 224.487 33.1078 222.956 29.7899 223.476C29.6767 223.492 29.5616 223.463 29.4696 223.395C29.3776 223.327 29.3162 223.226 29.2986 223.113C29.2895 223.057 29.2915 223 29.3044 222.945C29.3174 222.89 29.3411 222.838 29.3742 222.793C29.4073 222.747 29.4492 222.708 29.4973 222.679C29.5454 222.65 29.5989 222.63 29.6546 222.621C33.1719 222.08 44.3147 223.668 49.1064 233.586C49.1557 233.689 49.1624 233.807 49.1251 233.915C49.0878 234.023 49.0095 234.112 48.9071 234.163C48.838 234.195 48.7623 234.209 48.6864 234.206Z" fill="white"/>
<path d="M48.2382 235.245C48.2382 235.245 45.4827 224.33 38.498 218.463C36.4261 216.719 34.226 214.533 32.6667 213.031C29.3488 209.798 30.7372 206.274 35.3296 206.345C42.1648 206.437 47.1631 212.19 49.3275 219.716C51.492 227.242 48.2382 235.245 48.2382 235.245Z" fill="#F2F4F7"/>
<path d="M49.3278 231.009C49.2197 231.009 49.1152 230.969 49.0349 230.897C48.9546 230.824 48.9041 230.725 48.8935 230.617C47.6119 216.733 37.0173 209.755 34.1337 209.015C34.0233 208.987 33.9286 208.916 33.8705 208.817C33.8124 208.719 33.7957 208.602 33.824 208.492C33.8523 208.381 33.9234 208.286 34.0215 208.228C34.1197 208.17 34.2369 208.154 34.3473 208.182C37.8504 209.079 48.4378 216.32 49.755 230.539C49.7649 230.653 49.7293 230.766 49.656 230.854C49.5826 230.942 49.4775 230.998 49.3634 231.009H49.3278Z" fill="white"/>
<path d="M67.3476 247.249L47.8958 236.014L47.8887 194.291L67.3476 205.526V247.249Z" fill="#263238"/>
<path d="M67.3477 205.526L95.1441 189.478V231.201L67.3477 247.249V205.526Z" fill="#37474F"/>
<path d="M95.1441 189.478L67.3476 205.526L47.8887 194.291L75.6923 178.242L95.1441 189.478Z" fill="#455A64"/>
<path d="M79.3592 205.013L83.14 202.828C83.6312 202.543 84.03 202.671 84.03 203.12C83.9939 203.392 83.8946 203.653 83.7401 203.88C83.5856 204.107 83.3801 204.296 83.14 204.43L79.3592 206.615C78.868 206.9 78.4692 206.772 78.4692 206.324C78.5053 206.051 78.6046 205.791 78.7591 205.563C78.9136 205.336 79.1191 205.147 79.3592 205.013Z" fill="#263238"/>
<path d="M69.6191 226.687L91.8549 213.85L92.3675 214.142L91.8549 229.3L92.3675 229.599L70.1318 242.436L69.6191 242.137V226.687Z" fill="#263238"/>
<path d="M70.1323 226.978L92.3681 214.141V229.599L70.1323 242.436V226.978Z" fill="#455A64"/>
<path d="M78.8465 224.565L82.6273 222.387C83.1185 222.102 83.5173 222.23 83.5173 222.671C83.4817 222.945 83.3827 223.207 83.2282 223.435C83.0737 223.664 82.8679 223.853 82.6273 223.989L78.8465 226.174C78.3553 226.459 77.9565 226.324 77.9565 225.882C77.9932 225.609 78.0926 225.348 78.247 225.119C78.4014 224.891 78.6066 224.701 78.8465 224.565Z" fill="#263238"/>
<path d="M69.6191 207.463L91.8549 194.625L92.3675 194.917L91.8549 210.076L92.3675 210.375L70.1318 223.212L69.6191 222.913V207.463Z" fill="#263238"/>
<path d="M70.1323 207.755L92.3681 194.917V210.375L70.1323 223.212V207.755Z" fill="#455A64"/>
<path d="M78.8465 205.341L82.6273 203.162C83.1185 202.878 83.5173 203.006 83.5173 203.447C83.4817 203.721 83.3827 203.982 83.2282 204.211C83.0737 204.44 82.8679 204.629 82.6273 204.764L78.8465 206.95C78.3553 207.235 77.9565 207.1 77.9565 206.658C77.9932 206.385 78.0926 206.124 78.247 205.895C78.4014 205.667 78.6066 205.477 78.8465 205.341Z" fill="#263238"/>
<path d="M67.3476 203.753L47.8958 192.518L47.8887 150.788L67.3476 162.023V203.753Z" fill="#263238"/>
<path d="M67.3477 162.023L95.1441 145.974V187.704L67.3477 203.753V162.023Z" fill="#37474F"/>
<path d="M95.1441 145.975L67.3476 162.023L47.8887 150.788L75.6923 134.739L95.1441 145.975Z" fill="#455A64"/>
<path d="M70.1323 163.625L92.3681 150.788L92.8807 151.087V166.537L70.645 179.382L70.1323 179.082V163.625Z" fill="#263238"/>
<path d="M79.3592 161.51L83.14 159.324C83.6312 159.04 84.03 159.175 84.03 159.616C83.9933 159.89 83.8939 160.151 83.7395 160.379C83.5851 160.608 83.3799 160.798 83.14 160.934L79.3592 163.112C78.868 163.397 78.4692 163.269 78.4692 162.827C78.5048 162.554 78.6038 162.292 78.7583 162.063C78.9128 161.835 79.1186 161.645 79.3592 161.51Z" fill="#263238"/>
<path d="M69.6191 183.183L91.8549 170.346V185.803L92.3675 186.095L70.1318 198.932L69.6191 198.641V183.183Z" fill="#263238"/>
<path d="M70.1323 183.483L92.3681 170.638V186.096L70.1323 198.933V183.483Z" fill="#455A64"/>
<path d="M78.8465 181.069L82.6273 178.883C83.1185 178.598 83.5173 178.727 83.5173 179.175C83.4812 179.448 83.3819 179.708 83.2274 179.936C83.0729 180.163 82.8674 180.351 82.6273 180.485L78.8465 182.671C78.3553 182.956 77.9565 182.828 77.9565 182.379C77.9926 182.107 78.0919 181.846 78.2464 181.619C78.4009 181.391 78.6064 181.203 78.8465 181.069Z" fill="#263238"/>
<path d="M70.1323 163.625L92.3681 150.788V166.245L70.1323 179.082V163.625Z" fill="#263238"/>
<path d="M103.489 158.42L91.314 151.4V165.013L103.489 172.041V158.42Z" fill="#263238"/>
<path d="M78.4692 181.283V162.023L83.2396 159.26L84.03 160.421L97.9282 152.39V170.047L78.4692 181.283Z" fill="#F2F4F7"/>
<g opacity="0.2">
<path d="M78.4692 181.283V162.023L83.2396 159.26L84.03 160.421L97.9282 152.39V170.047L78.4692 181.283Z" fill="black"/>
</g>
<path d="M78.4692 181.282L79.8576 164.429L99.3166 153.194L97.9282 170.047L78.4692 181.282Z" fill="#F2F4F7"/>
<path d="M81.246 171.265L70.6372 165.142V178.755L81.246 184.878V171.265Z" fill="#37474F"/>
<path d="M81.2461 170.047L103.489 157.21V172.66L81.2461 185.505V170.047Z" fill="#455A64"/>
<path d="M89.9681 167.633L93.7488 165.447C94.2401 165.163 94.6388 165.298 94.6388 165.739C94.6022 166.013 94.5028 166.274 94.3484 166.502C94.194 166.731 93.9888 166.921 93.7488 167.057L89.9681 169.235C89.4768 169.52 89.0781 169.392 89.0781 168.95C89.1148 168.677 89.2142 168.416 89.3686 168.187C89.523 167.959 89.7282 167.769 89.9681 167.633Z" fill="#263238"/>
<path d="M81.2463 170.047L80.5059 169.62V185.078L81.2463 185.505V170.047Z" fill="#263238"/>
<path d="M80.5059 169.62L102.749 156.782L103.489 157.209L81.2463 170.047L80.5059 169.62Z" fill="#37474F"/>
<path d="M267 58.5978L264.109 56.9175L116.59 142.073V265.412C116.551 265.794 116.613 266.18 116.771 266.53C116.928 266.88 117.175 267.182 117.487 267.406L120.378 269.086C120.729 269.247 121.116 269.313 121.5 269.275C121.884 269.238 122.251 269.099 122.564 268.873L263.896 187.256C264.793 186.671 265.539 185.882 266.075 184.954C266.611 184.027 266.92 182.986 266.979 181.916L267 58.5978Z" fill="#E6E6E6"/>
<path d="M119.481 267.093C119.481 269.058 120.855 269.855 122.564 268.873L263.896 187.256C264.793 186.671 265.54 185.882 266.075 184.954C266.611 184.027 266.92 182.986 266.979 181.916V58.5977L119.481 143.76V267.093Z" fill="#FAFAFA"/>
<path d="M266.288 59.8079V181.93C266.23 182.875 265.953 183.794 265.48 184.614C265.007 185.434 264.35 186.134 263.561 186.658L122.229 268.253C121.921 268.448 121.568 268.561 121.204 268.581C120.307 268.581 120.214 267.541 120.214 267.093V144.166L266.288 59.8079ZM267 58.5762L119.481 143.76V267.093C119.481 268.517 120.193 269.293 121.183 269.293C121.672 269.274 122.147 269.129 122.564 268.873L263.896 187.256C264.793 186.67 265.54 185.882 266.075 184.954C266.611 184.026 266.92 182.986 266.979 181.916V58.5975L267 58.5762Z" fill="#E0E0E0"/>
<path d="M119.481 143.76V157.11L266.979 71.9477V58.5977L119.481 143.76Z" fill="#F2F4F7"/>
<path d="M212.026 95.5579V98.4059C212.026 98.9898 212.446 99.2318 212.952 98.9399L258.299 72.7526V67.7686L212.952 93.9844C212.687 94.1582 212.466 94.3905 212.306 94.6633C212.145 94.9361 212.05 95.2422 212.026 95.5579Z" fill="#FAFAFA"/>
<path d="M263.162 64.9701C263.675 64.6711 264.088 64.9132 264.088 65.5041V68.3521C264.071 68.6733 263.978 68.9859 263.818 69.2643C263.657 69.5428 263.432 69.7792 263.162 69.9541L258.299 72.7594V67.7754L263.162 64.9701Z" fill="#455A64"/>
<path d="M262.806 68.9072L262.258 68.7363C262.318 68.5037 262.349 68.2645 262.35 68.0243C262.375 67.8053 262.341 67.5837 262.254 67.3814C262.167 67.1792 262.028 67.0032 261.852 66.8708C261.732 66.8 261.596 66.7627 261.457 66.7627C261.318 66.7627 261.181 66.8 261.062 66.8708C260.717 67.1357 260.439 67.478 260.251 67.8701C260.063 68.2622 259.97 68.6931 259.979 69.1279C259.953 69.347 259.986 69.569 260.073 69.7716C260.161 69.9741 260.3 70.1499 260.478 70.2813C260.581 70.344 260.699 70.3761 260.819 70.3739C260.975 70.3705 261.128 70.3264 261.261 70.2457C261.676 69.9628 261.984 69.5493 262.137 69.0709L262.685 69.2418H262.728C262.77 69.2425 262.811 69.2298 262.846 69.2055C262.88 69.1812 262.906 69.1465 262.92 69.1065C262.923 69.0657 262.913 69.025 262.893 68.9895C262.873 68.954 262.843 68.9254 262.806 68.9072ZM261.062 69.9467C261.007 69.9882 260.942 70.0135 260.874 70.0198C260.806 70.0261 260.738 70.0131 260.677 69.9823C260.567 69.8819 260.483 69.7563 260.432 69.6161C260.381 69.4759 260.365 69.3254 260.385 69.1777C260.378 68.8142 260.453 68.4538 260.605 68.1234C260.756 67.793 260.981 67.5011 261.261 67.2696C261.336 67.2229 261.422 67.196 261.51 67.1912C261.561 67.1911 261.61 67.206 261.652 67.234C261.761 67.3354 261.845 67.4612 261.895 67.6011C261.946 67.7409 261.963 67.8909 261.944 68.0385C261.95 68.4025 261.874 68.7631 261.721 69.0934C261.568 69.4238 261.343 69.7155 261.062 69.9467Z" fill="#FAFAFA"/>
<path d="M263.212 48.4798C262.861 48.308 262.47 48.2357 262.081 48.2709C261.691 48.306 261.319 48.4473 261.005 48.6792L119.673 130.296C118.775 130.88 118.027 131.668 117.491 132.596C116.955 133.524 116.647 134.566 116.59 135.636V142.094L119.481 143.781L267 58.5974V52.1395C267.043 51.759 266.983 51.3739 266.827 51.0244C266.67 50.6749 266.423 50.374 266.11 50.153C265.576 49.8398 263.718 48.786 263.212 48.4798Z" fill="#263238"/>
<path d="M119.481 137.302C119.537 136.232 119.845 135.19 120.381 134.262C120.917 133.333 121.665 132.545 122.564 131.962L263.896 50.3596C265.598 49.3771 266.979 50.1745 266.979 52.1396V58.5975L119.481 143.76V137.302Z" fill="#37474F"/>
<path d="M266.117 50.1677C265.765 49.992 265.371 49.917 264.979 49.9509C264.587 49.9849 264.212 50.1264 263.896 50.3599L122.564 131.955C121.653 132.523 120.903 133.315 120.385 134.255L117.48 132.582C118.001 131.639 118.753 130.845 119.666 130.275L261.005 48.6725C261.32 48.4417 261.692 48.3017 262.082 48.2678C262.471 48.2339 262.862 48.3074 263.212 48.4802C263.718 48.7864 265.569 49.8473 266.06 50.1463L266.117 50.1677Z" fill="#455A64"/>
<path d="M249.627 61.9441C249.21 62.2212 248.864 62.5923 248.617 63.0276C248.369 63.4629 248.228 63.9503 248.203 64.4503C248.203 65.3688 248.851 65.7462 249.627 65.2834C250.044 65.0063 250.39 64.6352 250.638 64.1999C250.885 63.7645 251.027 63.2772 251.051 62.7771C251.072 61.8444 250.425 61.4671 249.627 61.9441Z" fill="#F2F4F7"/>
<path d="M254.69 59.0176C254.273 59.2931 253.927 59.6629 253.679 60.0971C253.432 60.5313 253.29 61.0176 253.266 61.5167C253.266 62.4423 253.914 62.8126 254.69 62.3569C255.106 62.079 255.451 61.7077 255.699 61.2725C255.946 60.8374 256.088 60.3505 256.114 59.8506C256.135 58.925 255.487 58.5548 254.69 59.0176Z" fill="#F2F4F7"/>
<path d="M259.745 56.0983C259.328 56.3754 258.982 56.7465 258.734 57.1819C258.487 57.6172 258.345 58.1045 258.321 58.6046C258.321 59.5302 258.969 59.9004 259.745 59.4376C260.163 59.1618 260.51 58.791 260.758 58.3554C261.005 57.9198 261.146 57.4318 261.169 56.9314C261.197 56.0129 260.549 55.6355 259.745 56.0983Z" fill="#F2F4F7"/>
<path d="M122.564 268.872L148.402 253.956V140.406L119.481 157.11V267.092C119.481 269.058 120.855 269.848 122.564 268.872Z" fill="#F5F5F5"/>
<path d="M147.69 141.638V253.543L122.208 268.253C121.9 268.448 121.547 268.561 121.183 268.58C120.286 268.58 120.193 267.541 120.193 267.092V157.516L147.69 141.638ZM148.402 140.406L119.481 157.11V267.092C119.481 268.516 120.193 269.292 121.183 269.292C121.672 269.273 122.147 269.129 122.564 268.872L148.402 253.956V140.406Z" fill="#E0E0E0"/>
<path d="M129.078 158.242L142.92 150.232C143.425 149.933 143.838 150.175 143.838 150.766V151.969C143.82 152.289 143.728 152.601 143.569 152.879C143.409 153.157 143.187 153.394 142.92 153.571L129.078 161.567C128.566 161.866 128.153 161.624 128.153 161.033V159.844C128.172 159.523 128.265 159.211 128.426 158.933C128.587 158.655 128.81 158.418 129.078 158.242Z" fill="#E0E0E0"/>
<path d="M125.262 161.517V162.72C125.245 163.041 125.152 163.354 124.991 163.632C124.83 163.91 124.606 164.147 124.337 164.322L123.297 164.92C122.785 165.219 122.372 164.977 122.372 164.386V163.183C122.389 162.862 122.482 162.55 122.643 162.271C122.804 161.993 123.028 161.756 123.297 161.581L124.337 160.983C124.849 160.684 125.262 160.912 125.262 161.517Z" fill="#F2F4F7"/>
<path d="M129.078 164.899L142.92 156.903C143.425 156.604 143.838 156.846 143.838 157.43V158.634C143.82 158.955 143.728 159.267 143.569 159.547C143.409 159.826 143.187 160.064 142.92 160.243L129.078 168.238C128.566 168.53 128.153 168.295 128.153 167.704V166.501C128.171 166.18 128.264 165.868 128.425 165.59C128.585 165.312 128.809 165.075 129.078 164.899Z" fill="#E0E0E0"/>
<path d="M125.262 168.167V169.37C125.245 169.692 125.153 170.004 124.992 170.283C124.831 170.561 124.607 170.797 124.337 170.972L123.297 171.578C122.785 171.87 122.372 171.635 122.372 171.044V169.84C122.388 169.519 122.481 169.207 122.642 168.928C122.803 168.65 123.027 168.413 123.297 168.238L124.337 167.633C124.849 167.32 125.262 167.576 125.262 168.167Z" fill="#F2F4F7"/>
<path d="M129.078 171.549L142.92 163.553C143.425 163.262 143.838 163.496 143.838 164.087V165.291C143.822 165.611 143.73 165.923 143.57 166.201C143.411 166.48 143.188 166.717 142.92 166.893L129.078 174.888C128.566 175.188 128.153 174.945 128.153 174.362V173.151C128.172 172.831 128.266 172.519 128.427 172.241C128.588 171.963 128.811 171.726 129.078 171.549Z" fill="#E0E0E0"/>
<path d="M125.262 174.824V176.028C125.245 176.349 125.153 176.661 124.992 176.94C124.831 177.218 124.607 177.455 124.337 177.63L123.297 178.235C122.785 178.527 122.372 178.285 122.372 177.701V176.49C122.39 176.17 122.483 175.858 122.644 175.579C122.805 175.301 123.029 175.065 123.297 174.888L124.337 174.29C124.849 173.998 125.262 174.233 125.262 174.824Z" fill="#F2F4F7"/>
<path d="M129.078 193.621L142.92 185.618C143.425 185.326 143.838 185.561 143.838 186.152V187.356C143.822 187.676 143.73 187.988 143.57 188.266C143.411 188.545 143.188 188.781 142.92 188.958L129.078 196.961C128.566 197.252 128.153 197.017 128.153 196.427V195.223C128.171 194.902 128.264 194.59 128.425 194.312C128.585 194.034 128.809 193.797 129.078 193.621Z" fill="#E0E0E0"/>
<path d="M125.262 196.889V198.092C125.245 198.414 125.153 198.726 124.992 199.005C124.831 199.283 124.607 199.519 124.337 199.694L123.297 200.3C122.785 200.592 122.372 200.357 122.372 199.766V198.562C122.388 198.241 122.481 197.929 122.642 197.65C122.803 197.372 123.027 197.135 123.297 196.96L124.337 196.355C124.849 196.063 125.262 196.298 125.262 196.889Z" fill="#F2F4F7"/>
<path d="M129.078 199.51L142.92 191.528C143.425 191.236 143.838 191.471 143.838 192.062V193.265C143.822 193.586 143.73 193.898 143.57 194.176C143.411 194.454 143.188 194.691 142.92 194.867L129.078 202.849C128.566 203.148 128.153 202.906 128.153 202.315V201.112C128.172 200.791 128.266 200.48 128.427 200.201C128.588 199.923 128.811 199.687 129.078 199.51Z" fill="#E0E0E0"/>
<path d="M125.262 202.785V203.988C125.245 204.309 125.153 204.622 124.992 204.9C124.831 205.179 124.607 205.415 124.337 205.59L123.297 206.188C122.785 206.487 122.372 206.245 122.372 205.654V204.451C122.39 204.13 122.483 203.818 122.644 203.54C122.805 203.262 123.029 203.025 123.297 202.849L124.337 202.251C124.849 201.959 125.262 202.208 125.262 202.785Z" fill="#F2F4F7"/>
<path d="M129.078 205.405L142.92 197.409C143.425 197.11 143.838 197.352 143.838 197.943V199.146C143.82 199.466 143.728 199.778 143.569 200.056C143.409 200.334 143.187 200.571 142.92 200.748L129.078 208.744C128.566 209.043 128.153 208.801 128.153 208.21V207.007C128.172 206.686 128.265 206.374 128.426 206.096C128.587 205.818 128.81 205.581 129.078 205.405Z" fill="#E0E0E0"/>
<path d="M125.262 208.68V209.884C125.245 210.205 125.152 210.517 124.991 210.795C124.83 211.074 124.606 211.31 124.337 211.486L123.297 212.084C122.785 212.383 122.372 212.141 122.372 211.55V210.346C122.389 210.025 122.482 209.713 122.643 209.435C122.804 209.156 123.028 208.92 123.297 208.744L124.337 208.146C124.849 207.847 125.262 208.089 125.262 208.68Z" fill="#F2F4F7"/>
<path d="M128.153 178.819V180.891L129.954 178.819H128.153Z" fill="#F2F4F7"/>
<path d="M131.051 178.385C131.051 178.776 131.321 178.926 131.663 178.726L143.226 172.076C143.405 171.959 143.554 171.801 143.66 171.615C143.766 171.43 143.827 171.222 143.838 171.008C143.838 170.617 143.568 170.46 143.226 170.659L131.663 177.331C131.485 177.446 131.337 177.601 131.231 177.784C131.124 177.967 131.063 178.173 131.051 178.385Z" fill="#E0E0E0"/>
<path d="M128.153 182.151V184.23L129.954 182.151H128.153Z" fill="#F2F4F7"/>
<path d="M131.051 181.724C131.051 182.108 131.321 182.265 131.663 182.066L143.226 175.408C143.405 175.293 143.554 175.137 143.661 174.952C143.767 174.768 143.828 174.56 143.838 174.348C143.838 173.956 143.568 173.799 143.226 173.999L131.663 180.67C131.485 180.785 131.337 180.941 131.231 181.124C131.124 181.307 131.063 181.512 131.051 181.724Z" fill="#E0E0E0"/>
<path d="M128.153 185.49V187.569L129.954 185.49H128.153Z" fill="#F2F4F7"/>
<path d="M131.051 185.063C131.051 185.447 131.321 185.604 131.663 185.405L143.226 178.747C143.405 178.632 143.554 178.476 143.661 178.291C143.767 178.107 143.828 177.899 143.838 177.686C143.838 177.295 143.568 177.138 143.226 177.338L131.663 184.009C131.485 184.124 131.337 184.279 131.231 184.463C131.124 184.646 131.063 184.851 131.051 185.063Z" fill="#E0E0E0"/>
<path d="M128.153 188.83V190.909L129.954 188.83H128.153Z" fill="#F2F4F7"/>
<path d="M131.051 188.402C131.051 188.787 131.321 188.943 131.663 188.744L143.226 182.087C143.405 181.971 143.554 181.815 143.661 181.63C143.767 181.446 143.828 181.239 143.838 181.026C143.838 180.634 143.568 180.478 143.226 180.677L131.663 187.348C131.485 187.463 131.337 187.619 131.231 187.802C131.124 187.985 131.063 188.191 131.051 188.402Z" fill="#E0E0E0"/>
<path d="M157.074 144.386V161.788C157.074 162.5 157.587 162.813 158.221 162.45L177.352 151.399C177.686 151.184 177.964 150.892 178.163 150.548C178.363 150.204 178.477 149.817 178.498 149.42V135.116C178.498 134.404 177.986 134.091 177.352 134.454L166.252 140.862C165.618 141.225 165.106 140.933 165.106 140.207V139.751C165.106 139.039 164.6 138.726 163.966 139.089L158.221 142.4C157.887 142.617 157.609 142.911 157.41 143.256C157.211 143.601 157.096 143.988 157.074 144.386Z" fill="#F2F4F7"/>
<path d="M160.841 165.07V166.188C160.841 166.729 161.225 166.95 161.695 166.679L176.049 158.392C176.298 158.23 176.505 158.011 176.654 157.754C176.802 157.496 176.888 157.207 176.904 156.911V155.793C176.904 155.252 176.519 155.031 176.049 155.302L161.695 163.589C161.446 163.751 161.239 163.97 161.091 164.227C160.942 164.485 160.857 164.774 160.841 165.07Z" fill="#E0E0E0"/>
<path d="M183.696 129.114V146.515C183.696 147.227 184.208 147.533 184.835 147.17L203.966 136.127C204.299 135.91 204.576 135.618 204.776 135.274C204.975 134.93 205.09 134.545 205.113 134.148V119.837C205.113 119.125 204.6 118.811 203.966 119.175L192.866 125.583C192.233 125.946 191.727 125.647 191.727 124.92V124.465C191.727 123.753 191.215 123.447 190.581 123.81L184.835 127.128C184.502 127.346 184.225 127.639 184.028 127.984C183.83 128.33 183.716 128.717 183.696 129.114Z" fill="#F2F4F7"/>
<path d="M187.441 149.798V150.944C187.441 151.492 187.825 151.713 188.295 151.442L202.649 143.112C202.898 142.948 203.105 142.728 203.253 142.469C203.401 142.211 203.487 141.921 203.504 141.624V140.513C203.504 139.965 203.119 139.744 202.649 140.022L188.295 148.31C188.047 148.474 187.84 148.694 187.691 148.952C187.543 149.211 187.457 149.5 187.441 149.798Z" fill="#E0E0E0"/>
<path d="M157.074 179.345V196.747C157.074 197.459 157.587 197.772 158.221 197.409L177.352 186.359C177.681 186.145 177.957 185.857 178.156 185.519C178.355 185.18 178.472 184.8 178.498 184.408V170.097C178.498 169.385 177.986 169.078 177.352 169.442L166.252 175.85C165.618 176.213 165.106 175.921 165.106 175.195V174.739C165.106 174.027 164.6 173.714 163.966 174.077L158.221 177.395C157.891 177.608 157.616 177.896 157.417 178.235C157.218 178.573 157.101 178.954 157.074 179.345Z" fill="#F2F4F7"/>
<path d="M160.841 200.029V201.147C160.841 201.688 161.225 201.909 161.695 201.638L176.049 193.351C176.297 193.188 176.504 192.969 176.652 192.712C176.801 192.455 176.887 192.166 176.904 191.87V190.752C176.904 190.211 176.519 189.99 176.049 190.261L161.695 198.548C161.446 198.71 161.239 198.929 161.091 199.186C160.942 199.444 160.857 199.733 160.841 200.029Z" fill="#E0E0E0"/>
<path d="M183.696 164.066V181.467C183.696 182.179 184.208 182.492 184.835 182.129L203.966 171.079C204.3 170.864 204.577 170.573 204.776 170.231C204.975 169.888 205.091 169.503 205.113 169.107V154.796C205.113 154.084 204.6 153.77 203.966 154.134L192.866 160.542C192.233 160.905 191.727 160.606 191.727 159.879V159.424C191.727 158.712 191.215 158.398 190.581 158.769L184.835 162.087C184.503 162.304 184.226 162.596 184.028 162.94C183.83 163.284 183.716 163.67 183.696 164.066Z" fill="#F2F4F7"/>
<path d="M187.441 184.756V185.867C187.441 186.415 187.825 186.636 188.295 186.358L202.649 178.078C202.898 177.914 203.105 177.694 203.253 177.435C203.401 177.177 203.487 176.887 203.504 176.59V175.479C203.504 174.931 203.119 174.71 202.649 174.981L188.295 183.268C188.047 183.432 187.84 183.653 187.691 183.911C187.543 184.169 187.457 184.459 187.441 184.756Z" fill="#E0E0E0"/>
<path d="M210.595 112.994V130.395C210.595 131.107 211.108 131.421 211.734 131.058L230.873 120.007C231.205 119.79 231.481 119.498 231.679 119.154C231.877 118.81 231.991 118.424 232.012 118.028V103.724C232.012 103.012 231.5 102.699 230.873 103.062L219.766 109.47C219.139 109.84 218.627 109.541 218.627 108.815V108.359C218.627 107.647 218.114 107.334 217.48 107.697L211.734 111.022C211.403 111.238 211.127 111.529 210.929 111.872C210.731 112.215 210.617 112.599 210.595 112.994Z" fill="#F2F4F7"/>
<path d="M214.042 134.518V135.636C214.042 136.177 214.426 136.398 214.903 136.127L229.264 127.839C229.515 127.678 229.724 127.46 229.873 127.203C230.023 126.945 230.11 126.656 230.126 126.358V125.248C230.126 124.699 229.741 124.479 229.264 124.749L214.917 133.037C214.664 133.196 214.452 133.414 214.3 133.671C214.148 133.929 214.059 134.219 214.042 134.518Z" fill="#E0E0E0"/>
<path d="M236.882 98.5623V115.964C236.882 116.676 237.395 116.982 238.029 116.619L257.16 105.575C257.492 105.358 257.768 105.066 257.966 104.722C258.164 104.378 258.278 103.992 258.299 103.596V89.2849C258.299 88.5729 257.794 88.2597 257.16 88.6228L246.06 95.0308C245.426 95.3939 244.914 95.0949 244.914 94.3686V93.9129C244.914 93.2009 244.408 92.8948 243.774 93.2579L238.029 96.5758C237.694 96.7922 237.415 97.0853 237.216 97.4307C237.016 97.7761 236.902 98.164 236.882 98.5623Z" fill="#F2F4F7"/>
<path d="M240.656 119.246V120.328C240.656 120.876 241.033 121.097 241.51 120.826L255.864 112.539C256.112 112.375 256.318 112.156 256.466 111.899C256.615 111.642 256.701 111.354 256.718 111.058V109.94C256.718 109.392 256.334 109.171 255.864 109.449L241.51 117.729C241.257 117.895 241.047 118.12 240.898 118.383C240.75 118.647 240.667 118.943 240.656 119.246Z" fill="#E0E0E0"/>
<path d="M214.042 169.456V170.574C214.042 171.115 214.426 171.336 214.903 171.065L229.264 162.785C229.515 162.624 229.724 162.406 229.873 162.148C230.023 161.891 230.11 161.601 230.126 161.304V160.2C230.126 159.659 229.741 159.438 229.264 159.709L214.917 167.997C214.667 168.154 214.457 168.368 214.305 168.622C214.153 168.875 214.062 169.161 214.042 169.456Z" fill="#E0E0E0"/>
<path d="M214.404 145.006L229.264 136.412C229.94 136.02 230.495 136.341 230.495 137.124V154.311C230.472 154.739 230.349 155.156 230.135 155.527C229.921 155.898 229.622 156.213 229.264 156.447L214.404 165.041C213.692 165.433 213.172 165.12 213.172 164.329V147.142C213.196 146.714 213.32 146.298 213.534 145.927C213.748 145.556 214.046 145.24 214.404 145.006Z" fill="#FAFAFA"/>
<path d="M213.849 165.568C213.674 165.57 213.503 165.526 213.35 165.44C213.17 165.32 213.025 165.153 212.932 164.958C212.838 164.763 212.798 164.545 212.816 164.33V147.142C212.841 146.651 212.984 146.172 213.231 145.747C213.479 145.323 213.825 144.963 214.24 144.7L229.128 136.106C229.306 135.982 229.513 135.909 229.729 135.894C229.945 135.879 230.16 135.923 230.353 136.02C230.533 136.14 230.678 136.305 230.773 136.499C230.868 136.693 230.91 136.909 230.894 137.124V154.312C230.869 154.803 230.727 155.281 230.479 155.706C230.232 156.131 229.886 156.49 229.47 156.754L214.582 165.355C214.361 165.489 214.108 165.562 213.849 165.568ZM229.84 136.604C229.708 136.609 229.58 136.651 229.47 136.725L214.582 145.319C214.277 145.52 214.023 145.789 213.84 146.106C213.657 146.422 213.55 146.777 213.528 147.142V164.33C213.528 164.579 213.593 164.757 213.706 164.821C213.794 164.849 213.886 164.857 213.977 164.842C214.067 164.827 214.153 164.79 214.226 164.735L229.114 156.142C229.418 155.938 229.672 155.667 229.855 155.35C230.037 155.032 230.145 154.677 230.168 154.312V137.124C230.179 137.033 230.168 136.941 230.135 136.856C230.103 136.77 230.051 136.694 229.983 136.633C229.938 136.612 229.889 136.602 229.84 136.604Z" fill="#EBEBEB"/>
<path d="M231.044 138.733L227.726 140.648C227.366 140.882 227.066 141.197 226.851 141.568C226.636 141.939 226.511 142.356 226.487 142.784V146.615C226.487 147.405 227.043 147.726 227.726 147.327L231.044 145.412C231.403 145.177 231.701 144.862 231.915 144.491C232.129 144.12 232.253 143.703 232.276 143.276V139.445C232.276 138.662 231.721 138.341 231.044 138.733Z" fill="#F2F4F7"/>
<path d="M215.537 146.864L222.999 142.592C223.333 142.4 223.611 142.556 223.611 142.955V143.19C223.598 143.403 223.536 143.611 223.43 143.796C223.324 143.981 223.176 144.14 222.999 144.258L215.537 148.53C215.195 148.73 214.917 148.573 214.924 148.174V147.932C214.935 147.718 214.996 147.51 215.103 147.325C215.209 147.139 215.358 146.981 215.537 146.864Z" fill="#EBEBEB"/>
<path d="M215.537 150.232L222.999 145.96C223.333 145.76 223.611 145.924 223.611 146.316V146.551C223.6 146.764 223.539 146.972 223.432 147.158C223.326 147.343 223.177 147.501 222.999 147.619L215.537 151.891C215.195 152.09 214.917 151.891 214.924 151.535V151.285C214.938 151.074 215 150.869 215.106 150.686C215.212 150.503 215.36 150.348 215.537 150.232Z" fill="#EBEBEB"/>
<path d="M215.537 153.536L222.999 149.264C223.333 149.071 223.611 149.228 223.611 149.62V149.862C223.598 150.075 223.536 150.282 223.43 150.468C223.324 150.653 223.176 150.811 222.999 150.93L215.537 155.202C215.195 155.401 214.917 155.244 214.924 154.846V154.604C214.935 154.39 214.996 154.182 215.102 153.996C215.209 153.81 215.358 153.653 215.537 153.536Z" fill="#EBEBEB"/>
<path d="M215.537 156.868L227.926 149.748C228.267 149.556 228.545 149.748 228.545 150.104V150.346C228.533 150.56 228.47 150.768 228.363 150.954C228.255 151.139 228.105 151.297 227.926 151.414L215.537 158.534C215.195 158.726 214.917 158.57 214.924 158.178V157.929C214.936 157.716 214.998 157.51 215.104 157.325C215.211 157.141 215.359 156.984 215.537 156.868Z" fill="#EBEBEB"/>
<path d="M215.537 160.2L227.926 153.08C228.267 152.881 228.545 153.08 228.545 153.436V153.671C228.533 153.885 228.471 154.094 228.363 154.279C228.256 154.465 228.106 154.622 227.926 154.739L215.537 161.859C215.195 162.058 214.917 161.895 214.924 161.503V161.261C214.935 161.048 214.996 160.841 215.102 160.656C215.209 160.472 215.358 160.315 215.537 160.2Z" fill="#EBEBEB"/>
<path d="M240.072 154.44V155.551C240.072 156.099 240.457 156.32 240.927 156.049L255.281 147.761C255.53 147.598 255.738 147.378 255.886 147.12C256.034 146.861 256.12 146.571 256.135 146.273V145.163C256.135 144.614 255.758 144.394 255.281 144.664L240.927 152.952C240.678 153.116 240.471 153.336 240.323 153.595C240.174 153.853 240.089 154.143 240.072 154.44Z" fill="#E0E0E0"/>
<path d="M240.436 129.983L255.316 121.389C256.028 120.99 256.555 121.311 256.555 122.101V139.289C256.53 139.717 256.405 140.133 256.19 140.504C255.975 140.875 255.676 141.19 255.316 141.425L240.436 150.018C239.724 150.41 239.197 150.09 239.197 149.306V132.119C239.22 131.69 239.345 131.273 239.56 130.902C239.775 130.531 240.075 130.216 240.436 129.983Z" fill="#FAFAFA"/>
<path d="M239.88 150.538C239.706 150.54 239.534 150.496 239.382 150.41C239.202 150.291 239.057 150.125 238.962 149.931C238.867 149.737 238.825 149.522 238.841 149.306V132.119C238.864 131.626 239.006 131.147 239.254 130.72C239.502 130.294 239.848 129.934 240.265 129.669L255.145 121.076C255.319 120.94 255.529 120.859 255.749 120.844C255.968 120.828 256.188 120.879 256.378 120.989C256.569 121.099 256.722 121.264 256.819 121.462C256.915 121.66 256.95 121.883 256.918 122.101V139.288C256.894 139.78 256.752 140.258 256.504 140.683C256.256 141.108 255.91 141.468 255.494 141.731L240.614 150.324C240.392 150.458 240.139 150.532 239.88 150.538ZM240.592 130.289C240.285 130.49 240.03 130.761 239.846 131.078C239.662 131.396 239.554 131.752 239.531 132.119V149.306C239.52 149.397 239.532 149.489 239.564 149.575C239.596 149.66 239.648 149.737 239.716 149.798C239.804 149.827 239.897 149.833 239.988 149.817C240.079 149.801 240.164 149.762 240.236 149.705L255.117 141.111C255.423 140.911 255.679 140.642 255.863 140.325C256.047 140.009 256.155 139.654 256.178 139.288V122.101C256.216 122.008 256.22 121.904 256.187 121.809C256.155 121.714 256.088 121.633 256.001 121.584C255.914 121.534 255.811 121.518 255.712 121.538C255.614 121.559 255.526 121.614 255.466 121.695L240.592 130.289Z" fill="#EBEBEB"/>
<path d="M257.068 123.71L253.75 125.625C253.391 125.859 253.093 126.175 252.879 126.546C252.665 126.917 252.541 127.333 252.518 127.761V131.591C252.518 132.375 253.073 132.695 253.75 132.303L257.068 130.388C257.427 130.154 257.726 129.839 257.941 129.468C258.156 129.097 258.282 128.68 258.307 128.252V124.422C258.307 123.631 257.744 123.311 257.068 123.71Z" fill="#F2F4F7"/>
<path d="M241.568 131.834L249.022 127.562C249.364 127.363 249.642 127.562 249.642 127.918V128.16C249.631 128.375 249.57 128.583 249.462 128.769C249.354 128.955 249.203 129.112 249.022 129.228L241.568 133.5C241.226 133.699 240.948 133.536 240.948 133.144V132.895C240.962 132.682 241.025 132.475 241.132 132.291C241.24 132.107 241.389 131.95 241.568 131.834Z" fill="#EBEBEB"/>
<path d="M241.568 135.173L249.022 130.901C249.364 130.709 249.642 130.901 249.642 131.257V131.499C249.63 131.713 249.567 131.922 249.459 132.107C249.352 132.293 249.202 132.45 249.022 132.567L241.568 136.839C241.226 137.039 240.948 136.882 240.948 136.483V136.241C240.96 136.027 241.022 135.818 241.13 135.633C241.237 135.447 241.387 135.29 241.568 135.173Z" fill="#EBEBEB"/>
<path d="M241.568 138.505L249.022 134.233C249.364 134.034 249.642 134.233 249.642 134.589V134.824C249.63 135.039 249.568 135.247 249.46 135.433C249.353 135.618 249.203 135.776 249.022 135.892L241.568 140.164C241.226 140.357 240.948 140.2 240.948 139.808V139.552C240.964 139.342 241.028 139.138 241.135 138.956C241.243 138.774 241.391 138.62 241.568 138.505Z" fill="#EBEBEB"/>
<path d="M241.568 141.845L253.956 134.725C254.298 134.525 254.576 134.689 254.576 135.081V135.28C254.564 135.494 254.501 135.703 254.394 135.888C254.286 136.074 254.136 136.231 253.956 136.348L241.568 143.468C241.226 143.667 240.948 143.504 240.948 143.112V142.87C240.965 142.663 241.03 142.463 241.138 142.285C241.245 142.107 241.392 141.956 241.568 141.845Z" fill="#EBEBEB"/>
<path d="M241.568 145.177L253.956 138.057C254.298 137.864 254.576 138.021 254.576 138.413V138.655C254.564 138.869 254.501 139.077 254.394 139.263C254.286 139.448 254.136 139.606 253.956 139.723L241.568 146.843C241.226 147.035 240.948 146.878 240.948 146.487V146.237C240.962 146.025 241.025 145.818 241.132 145.634C241.24 145.449 241.389 145.293 241.568 145.177Z" fill="#EBEBEB"/>
<path d="M214.042 204.935V206.053C214.042 206.594 214.426 206.815 214.903 206.544L229.264 198.256C229.515 198.096 229.724 197.877 229.873 197.62C230.023 197.362 230.11 197.073 230.126 196.776V195.658C230.126 195.117 229.741 194.896 229.264 195.166L214.917 203.454C214.664 203.613 214.452 203.831 214.3 204.088C214.148 204.346 214.059 204.636 214.042 204.935Z" fill="#E0E0E0"/>
<path d="M214.404 180.478L229.264 171.884C229.94 171.492 230.496 171.813 230.496 172.596V189.784C230.471 190.211 230.347 190.627 230.133 190.998C229.919 191.369 229.622 191.685 229.264 191.92L214.376 200.513C213.664 200.905 213.144 200.592 213.144 199.801V182.614C213.17 182.183 213.297 181.765 213.517 181.394C213.736 181.022 214.04 180.708 214.404 180.478Z" fill="#FAFAFA"/>
<path d="M213.849 201.04C213.675 201.042 213.503 200.998 213.351 200.912C213.172 200.791 213.028 200.624 212.934 200.429C212.84 200.234 212.8 200.017 212.817 199.801V182.614C212.842 182.122 212.984 181.644 213.232 181.219C213.479 180.794 213.825 180.435 214.241 180.172L229.115 171.592C229.288 171.459 229.496 171.381 229.714 171.367C229.931 171.352 230.148 171.403 230.337 171.512C230.526 171.621 230.678 171.783 230.775 171.979C230.872 172.174 230.908 172.394 230.88 172.61V189.798C230.855 190.289 230.713 190.767 230.465 191.192C230.218 191.617 229.872 191.976 229.456 192.24L214.568 200.834C214.35 200.962 214.103 201.033 213.849 201.04ZM229.841 172.069C229.709 172.077 229.582 172.119 229.471 172.19L214.583 180.791C214.277 180.992 214.022 181.261 213.839 181.577C213.656 181.894 213.55 182.249 213.529 182.614V199.801C213.49 199.894 213.487 199.998 213.519 200.093C213.552 200.189 213.618 200.269 213.706 200.319C213.793 200.368 213.896 200.385 213.994 200.364C214.093 200.344 214.181 200.288 214.241 200.207L229.129 191.613C229.433 191.41 229.686 191.139 229.869 190.821C230.052 190.504 230.159 190.149 230.183 189.784V172.596C230.193 172.505 230.182 172.413 230.15 172.328C230.118 172.242 230.065 172.166 229.997 172.105C229.949 172.079 229.895 172.066 229.841 172.069Z" fill="#EBEBEB"/>
<path d="M231.044 174.205L227.726 176.12C227.366 176.354 227.066 176.669 226.851 177.04C226.636 177.411 226.511 177.828 226.487 178.256V182.087C226.487 182.877 227.043 183.191 227.726 182.799L231.044 180.884C231.403 180.65 231.701 180.334 231.915 179.963C232.129 179.592 232.253 179.176 232.276 178.748V174.917C232.276 174.134 231.721 173.814 231.044 174.205Z" fill="#F2F4F7"/>
<path d="M215.537 182.336L222.999 178.064C223.333 177.872 223.611 178.028 223.611 178.42V178.662C223.598 178.875 223.536 179.083 223.43 179.268C223.324 179.453 223.176 179.611 222.999 179.73L215.537 184.002C215.195 184.201 214.917 184.045 214.924 183.646V183.404C214.935 183.19 214.996 182.982 215.102 182.796C215.209 182.611 215.358 182.453 215.537 182.336Z" fill="#EBEBEB"/>
<path d="M215.537 185.668L222.999 181.396C223.333 181.197 223.611 181.361 223.611 181.752V181.987C223.599 182.201 223.538 182.408 223.432 182.594C223.325 182.779 223.177 182.937 222.999 183.055L215.537 187.327C215.195 187.519 214.917 187.363 214.924 186.971V186.722C214.938 186.511 215 186.306 215.106 186.123C215.212 185.94 215.36 185.784 215.537 185.668Z" fill="#EBEBEB"/>
<path d="M215.537 189.007L222.999 184.735C223.333 184.543 223.611 184.7 223.611 185.091V185.333C223.598 185.547 223.536 185.754 223.43 185.939C223.324 186.125 223.176 186.283 222.999 186.401L215.537 190.673C215.195 190.873 214.917 190.709 214.924 190.317V190.104C214.929 189.885 214.987 189.67 215.094 189.479C215.201 189.288 215.353 189.126 215.537 189.007Z" fill="#EBEBEB"/>
<path d="M215.537 192.34L227.926 185.22C228.267 185.027 228.545 185.184 228.545 185.576V185.832C228.533 186.046 228.47 186.254 228.363 186.44C228.255 186.625 228.105 186.783 227.926 186.9L215.537 194.02C215.195 194.212 214.917 194.056 214.924 193.664V193.415C214.934 193.2 214.995 192.99 215.101 192.804C215.208 192.617 215.357 192.458 215.537 192.34Z" fill="#EBEBEB"/>
<path d="M215.537 195.679L227.926 188.559C228.267 188.359 228.545 188.516 228.545 188.915V189.15C228.533 189.364 228.47 189.572 228.363 189.757C228.255 189.943 228.105 190.101 227.926 190.218L215.537 197.338C215.195 197.537 214.917 197.373 214.924 196.982V196.739C214.935 196.527 214.996 196.319 215.102 196.135C215.209 195.95 215.358 195.794 215.537 195.679Z" fill="#EBEBEB"/>
<path d="M240.072 189.905V191.022C240.072 191.571 240.457 191.791 240.927 191.514L255.281 183.233C255.53 183.07 255.738 182.85 255.886 182.591C256.034 182.333 256.12 182.043 256.135 181.745V180.634C256.135 180.086 255.758 179.865 255.281 180.136L240.927 188.424C240.679 188.587 240.473 188.806 240.324 189.063C240.176 189.32 240.09 189.608 240.072 189.905Z" fill="#E0E0E0"/>
<path d="M240.436 165.454L255.316 156.861C256.028 156.462 256.555 156.782 256.555 157.573V174.753C256.532 175.182 256.408 175.599 256.192 175.97C255.977 176.341 255.677 176.656 255.316 176.889L240.436 185.49C239.724 185.882 239.197 185.561 239.197 184.778V167.59C239.22 167.162 239.345 166.745 239.56 166.374C239.775 166.002 240.075 165.687 240.436 165.454Z" fill="#FAFAFA"/>
<path d="M239.88 186.01C239.706 186.011 239.534 185.967 239.382 185.882C239.202 185.762 239.057 185.597 238.962 185.403C238.867 185.209 238.825 184.993 238.841 184.778V167.59C238.864 167.098 239.005 166.618 239.253 166.192C239.501 165.765 239.848 165.405 240.265 165.141L255.145 156.547C255.319 156.411 255.529 156.331 255.749 156.315C255.968 156.3 256.188 156.35 256.378 156.461C256.569 156.571 256.722 156.736 256.819 156.934C256.915 157.132 256.95 157.354 256.918 157.572V174.753C256.895 175.246 256.754 175.726 256.506 176.152C256.258 176.578 255.911 176.939 255.494 177.202L240.614 185.832C240.388 185.953 240.136 186.014 239.88 186.01ZM240.592 165.76C240.285 165.962 240.03 166.233 239.846 166.55C239.662 166.868 239.554 167.224 239.531 167.59V184.778C239.519 184.868 239.53 184.959 239.562 185.044C239.594 185.128 239.648 185.203 239.716 185.262C239.803 185.293 239.896 185.301 239.987 185.286C240.078 185.271 240.164 185.233 240.236 185.177L255.138 176.576C255.445 176.374 255.701 176.104 255.885 175.786C256.069 175.469 256.177 175.112 256.199 174.746V157.572C256.238 157.48 256.241 157.376 256.209 157.28C256.176 157.185 256.11 157.105 256.022 157.055C255.935 157.005 255.832 156.989 255.734 157.01C255.635 157.03 255.548 157.086 255.487 157.167L240.592 165.76Z" fill="#EBEBEB"/>
<path d="M257.068 159.182L253.75 161.097C253.391 161.331 253.093 161.647 252.879 162.018C252.665 162.389 252.541 162.805 252.518 163.233V167.063C252.518 167.847 253.073 168.167 253.75 167.775L257.068 165.86C257.427 165.626 257.726 165.31 257.941 164.939C258.156 164.568 258.282 164.152 258.307 163.724V159.894C258.307 159.103 257.744 158.776 257.068 159.182Z" fill="#F2F4F7"/>
<path d="M241.568 167.32L249.022 163.048C249.364 162.849 249.642 163.012 249.642 163.404V163.639C249.63 163.853 249.568 164.062 249.46 164.247C249.353 164.433 249.203 164.59 249.022 164.707L241.568 168.979C241.226 169.171 240.948 168.979 240.948 168.623V168.374C240.963 168.162 241.026 167.957 241.134 167.774C241.241 167.591 241.39 167.436 241.568 167.32Z" fill="#EBEBEB"/>
<path d="M241.568 170.645L249.022 166.373C249.364 166.181 249.642 166.373 249.642 166.729V166.971C249.63 167.186 249.567 167.394 249.459 167.579C249.352 167.765 249.202 167.922 249.022 168.039L241.568 172.311C241.226 172.511 240.948 172.347 240.948 171.955V171.713C240.959 171.499 241.02 171.29 241.128 171.104C241.236 170.918 241.387 170.761 241.568 170.645Z" fill="#EBEBEB"/>
<path d="M241.568 173.977L249.022 169.705C249.364 169.506 249.642 169.662 249.642 170.061V170.296C249.63 170.51 249.567 170.718 249.459 170.904C249.352 171.089 249.202 171.247 249.022 171.364L241.568 175.636C241.226 175.828 240.948 175.672 240.948 175.28V175.031C240.963 174.819 241.026 174.614 241.134 174.431C241.241 174.248 241.39 174.093 241.568 173.977Z" fill="#EBEBEB"/>
<path d="M241.568 177.288L253.956 170.168C254.298 169.969 254.576 170.125 254.576 170.524V170.759C254.564 170.973 254.501 171.181 254.394 171.367C254.286 171.552 254.136 171.71 253.956 171.827L241.568 178.947C241.226 179.146 240.948 178.983 240.948 178.591V178.349C240.96 178.136 241.022 177.928 241.13 177.744C241.238 177.559 241.388 177.403 241.568 177.288Z" fill="#EBEBEB"/>
<path d="M241.568 180.648L253.956 173.528C254.298 173.329 254.576 173.493 254.576 173.884V174.119C254.565 174.334 254.504 174.543 254.396 174.729C254.288 174.914 254.137 175.072 253.956 175.187L241.568 182.307C241.226 182.5 240.948 182.343 240.948 181.951V181.702C240.963 181.491 241.026 181.285 241.134 181.102C241.241 180.919 241.39 180.764 241.568 180.648Z" fill="#EBEBEB"/>
<path d="M160.841 235.672V236.783C160.841 237.331 161.225 237.552 161.702 237.281L176.049 228.993C176.299 228.832 176.508 228.614 176.658 228.356C176.807 228.099 176.894 227.81 176.911 227.512V226.416C176.911 225.868 176.526 225.647 176.049 225.925L161.702 234.205C161.455 234.366 161.248 234.582 161.098 234.837C160.949 235.091 160.861 235.377 160.841 235.672Z" fill="#E0E0E0"/>
<path d="M161.204 211.214L176.092 202.621C176.804 202.229 177.324 202.542 177.324 203.333V220.52C177.299 220.948 177.175 221.363 176.961 221.734C176.747 222.105 176.449 222.421 176.092 222.656L161.204 231.25C160.492 231.642 159.972 231.321 159.972 230.538V213.35C159.994 212.922 160.117 212.506 160.331 212.134C160.545 211.763 160.844 211.448 161.204 211.214Z" fill="#FAFAFA"/>
<path d="M160.648 231.77C160.474 231.772 160.302 231.727 160.15 231.642C159.971 231.522 159.827 231.357 159.733 231.163C159.639 230.969 159.598 230.753 159.616 230.538V213.351C159.641 212.859 159.783 212.381 160.031 211.956C160.278 211.531 160.624 211.172 161.04 210.908L175.928 202.315C176.1 202.178 176.309 202.097 176.528 202.081C176.747 202.064 176.966 202.115 177.156 202.224C177.346 202.334 177.499 202.498 177.595 202.696C177.691 202.894 177.725 203.115 177.693 203.333V220.52C177.669 221.012 177.526 221.49 177.279 221.915C177.031 222.34 176.685 222.699 176.269 222.963L161.381 231.556C161.16 231.69 160.907 231.764 160.648 231.77ZM161.381 211.521C161.076 211.723 160.822 211.994 160.639 212.311C160.456 212.629 160.35 212.985 160.328 213.351V230.538C160.289 230.631 160.286 230.735 160.318 230.83C160.351 230.926 160.417 231.006 160.505 231.055C160.592 231.105 160.695 231.122 160.793 231.101C160.892 231.081 160.979 231.025 161.04 230.944L175.928 222.343C176.232 222.141 176.485 221.871 176.668 221.555C176.851 221.239 176.958 220.885 176.981 220.52V203.333C177.02 203.24 177.023 203.136 176.991 203.041C176.958 202.945 176.892 202.865 176.805 202.816C176.717 202.766 176.614 202.75 176.516 202.77C176.417 202.791 176.33 202.846 176.269 202.927L161.381 211.521Z" fill="#EBEBEB"/>
<path d="M177.843 204.942L174.525 206.858C174.165 207.091 173.865 207.406 173.65 207.777C173.434 208.148 173.31 208.565 173.287 208.994V212.824C173.287 213.607 173.842 213.928 174.525 213.536L177.843 211.621C178.201 211.386 178.499 211.07 178.713 210.699C178.927 210.328 179.051 209.912 179.075 209.485V205.654C179.075 204.864 178.52 204.551 177.843 204.942Z" fill="#F2F4F7"/>
<path d="M162.336 213.073L169.798 208.801C170.132 208.602 170.41 208.766 170.41 209.157V209.392C170.399 209.606 170.338 209.814 170.232 210C170.125 210.185 169.977 210.343 169.798 210.46L162.336 214.732C161.994 214.932 161.724 214.732 161.724 214.376V214.134C161.734 213.922 161.795 213.714 161.901 213.53C162.008 213.345 162.157 213.189 162.336 213.073Z" fill="#EBEBEB"/>
<path d="M162.336 216.405L169.798 212.133C170.132 211.941 170.41 212.098 170.41 212.496V212.731C170.397 212.944 170.336 213.152 170.229 213.337C170.123 213.522 169.975 213.681 169.798 213.799L162.336 218.071C161.994 218.263 161.724 218.071 161.724 217.715V217.466C161.736 217.254 161.797 217.047 161.904 216.863C162.01 216.678 162.158 216.522 162.336 216.405Z" fill="#EBEBEB"/>
<path d="M162.336 219.744L169.798 215.472C170.132 215.273 170.41 215.437 170.41 215.828V216.063C170.399 216.277 170.338 216.485 170.232 216.671C170.125 216.856 169.977 217.014 169.798 217.131L162.336 221.432C161.994 221.631 161.724 221.432 161.724 221.076V220.827C161.731 220.61 161.79 220.399 161.897 220.21C162.003 220.022 162.154 219.862 162.336 219.744Z" fill="#EBEBEB"/>
<path d="M162.336 223.076L174.725 215.956C175.067 215.757 175.344 215.956 175.344 216.312V216.547C175.334 216.762 175.272 216.971 175.164 217.157C175.056 217.342 174.906 217.5 174.725 217.615L162.336 224.735C161.994 224.935 161.724 224.778 161.724 224.379V224.137C161.736 223.925 161.797 223.718 161.904 223.534C162.01 223.35 162.158 223.193 162.336 223.076Z" fill="#EBEBEB"/>
<path d="M162.336 226.416L174.725 219.296C175.067 219.103 175.344 219.296 175.344 219.652V219.894C175.332 220.108 175.27 220.316 175.162 220.502C175.054 220.687 174.905 220.845 174.725 220.962L162.336 228.082C161.994 228.274 161.724 228.117 161.724 227.726V227.477C161.736 227.264 161.797 227.058 161.904 226.873C162.01 226.689 162.158 226.532 162.336 226.416Z" fill="#EBEBEB"/>
<path d="M186.872 220.641V221.759C186.872 222.3 187.256 222.528 187.726 222.251L202.08 213.963C202.33 213.802 202.538 213.584 202.687 213.326C202.835 213.068 202.92 212.779 202.934 212.482V211.371C202.934 210.823 202.557 210.602 202.08 210.873L187.726 219.16C187.478 219.323 187.271 219.542 187.123 219.799C186.975 220.057 186.888 220.345 186.872 220.641Z" fill="#E0E0E0"/>
<path d="M187.256 196.185L202.137 187.591C202.849 187.199 203.376 187.52 203.376 188.303V205.491C203.352 205.919 203.228 206.336 203.013 206.707C202.797 207.079 202.497 207.394 202.137 207.627L187.256 216.22C186.544 216.619 186.017 216.299 186.017 215.508V198.321C186.042 197.893 186.167 197.476 186.382 197.105C186.598 196.734 186.897 196.419 187.256 196.185Z" fill="#FAFAFA"/>
<path d="M186.679 216.747C186.505 216.748 186.333 216.704 186.181 216.619C186.001 216.498 185.856 216.331 185.761 216.136C185.666 215.941 185.624 215.724 185.64 215.508V198.32C185.665 197.829 185.808 197.351 186.055 196.926C186.303 196.502 186.649 196.142 187.064 195.878L201.938 187.256C202.111 187.121 202.32 187.04 202.539 187.025C202.758 187.009 202.976 187.059 203.167 187.169C203.357 187.278 203.51 187.441 203.607 187.638C203.704 187.835 203.74 188.057 203.71 188.274V205.462C203.687 205.953 203.546 206.432 203.298 206.857C203.05 207.283 202.703 207.642 202.286 207.904L187.406 216.505C187.189 216.647 186.938 216.731 186.679 216.747ZM202.671 187.783C202.536 187.787 202.405 187.828 202.294 187.904L187.413 196.512C187.107 196.712 186.851 196.981 186.667 197.298C186.483 197.614 186.375 197.969 186.352 198.335V215.522C186.339 215.613 186.349 215.706 186.382 215.791C186.414 215.877 186.468 215.954 186.537 216.013C186.624 216.042 186.717 216.049 186.807 216.034C186.898 216.02 186.983 215.983 187.057 215.928L201.938 207.334C202.244 207.132 202.499 206.862 202.683 206.544C202.867 206.227 202.975 205.871 202.998 205.504V188.302C203.009 188.212 202.998 188.12 202.966 188.034C202.934 187.949 202.881 187.872 202.813 187.811C202.769 187.791 202.72 187.781 202.671 187.783Z" fill="#EBEBEB"/>
<path d="M203.867 189.911L200.549 191.827C200.192 192.062 199.894 192.378 199.68 192.749C199.466 193.119 199.342 193.535 199.317 193.963V197.793C199.317 198.583 199.873 198.904 200.549 198.505L203.867 196.59C204.227 196.357 204.528 196.042 204.743 195.671C204.958 195.299 205.083 194.882 205.106 194.454V190.623C205.106 189.84 204.551 189.52 203.867 189.911Z" fill="#F2F4F7"/>
<path d="M188.367 198.043L195.821 193.771C196.163 193.579 196.441 193.735 196.441 194.134V194.376C196.428 194.59 196.366 194.798 196.258 194.984C196.151 195.169 196.001 195.327 195.821 195.444L188.367 199.716C188.025 199.908 187.747 199.752 187.747 199.353V199.111C187.759 198.897 187.822 198.688 187.929 198.503C188.037 198.317 188.187 198.16 188.367 198.043Z" fill="#EBEBEB"/>
<path d="M188.367 201.382L195.821 197.11C196.163 196.911 196.441 197.074 196.441 197.466V197.701C196.43 197.916 196.368 198.124 196.261 198.31C196.153 198.496 196.002 198.653 195.821 198.769L188.367 203.041C188.025 203.24 187.747 203.077 187.747 202.685V202.436C187.76 202.224 187.823 202.018 187.93 201.835C188.038 201.651 188.187 201.496 188.367 201.382Z" fill="#EBEBEB"/>
<path d="M188.367 204.714L195.821 200.442C196.163 200.25 196.441 200.407 196.441 200.798V201.04C196.428 201.255 196.366 201.463 196.258 201.648C196.151 201.834 196.001 201.991 195.821 202.108L188.367 206.38C188.025 206.58 187.747 206.423 187.747 206.024V205.768C187.761 205.556 187.825 205.351 187.932 205.168C188.04 204.985 188.189 204.83 188.367 204.714Z" fill="#EBEBEB"/>
<path d="M188.367 208.046L200.755 200.926C201.097 200.734 201.375 200.891 201.375 201.282V201.496C201.363 201.71 201.3 201.918 201.192 202.104C201.085 202.289 200.935 202.447 200.755 202.564L188.367 209.684C188.025 209.876 187.747 209.719 187.747 209.328V209.079C187.765 208.871 187.83 208.67 187.937 208.491C188.044 208.312 188.191 208.16 188.367 208.046Z" fill="#EBEBEB"/>
<path d="M188.367 211.386L200.755 204.266C201.097 204.066 201.375 204.23 201.375 204.622V204.857C201.363 205.071 201.301 205.279 201.193 205.465C201.086 205.651 200.935 205.808 200.755 205.925L188.367 213.045C188.025 213.244 187.747 213.045 187.747 212.689V212.447C187.759 212.233 187.821 212.026 187.929 211.841C188.036 211.657 188.186 211.501 188.367 211.386Z" fill="#EBEBEB"/>
<path d="M119.481 143.76L116.59 142.072V155.437L119.481 157.11V143.76Z" fill="#F2F4F7"/>
<path opacity="0.1" d="M119.481 143.76L116.59 142.072V155.437L119.481 157.11V143.76Z" fill="black"/>
<path d="M290.304 198.982C289.975 198.833 289.612 198.773 289.252 198.808C288.892 198.843 288.548 198.972 288.253 199.182C287.413 199.728 286.713 200.463 286.208 201.328C285.704 202.194 285.409 203.166 285.348 204.166C285.31 204.525 285.368 204.889 285.515 205.219C285.663 205.549 285.895 205.834 286.189 206.045L322.23 228.829C322.942 229.328 324.017 229.299 325.192 228.623C326.373 227.859 327.356 226.826 328.063 225.61C328.769 224.394 329.178 223.028 329.257 221.624C329.257 220.271 328.759 219.338 327.962 218.947L290.304 198.982Z" fill="#0B192C"/>
<path opacity="0.15" d="M285.348 204.195C285.348 206.039 286.637 206.793 288.239 205.875C289.079 205.329 289.779 204.594 290.284 203.728C290.788 202.863 291.083 201.891 291.144 200.891C291.144 199.047 289.855 198.292 288.253 199.211C287.413 199.756 286.713 200.492 286.208 201.357C285.704 202.223 285.409 203.194 285.348 204.195Z" fill="black"/>
<path d="M277.374 194.191C276.863 194.522 276.437 194.969 276.131 195.496C275.826 196.023 275.649 196.615 275.616 197.224C275.593 197.44 275.628 197.659 275.717 197.858C275.805 198.056 275.945 198.228 276.121 198.356L287 204.671C287.198 204.763 287.416 204.8 287.633 204.779C287.85 204.758 288.056 204.679 288.232 204.55C288.749 204.219 289.179 203.769 289.486 203.237C289.793 202.706 289.969 202.109 289.998 201.496C290.023 201.278 289.99 201.057 289.901 200.857C289.812 200.657 289.671 200.484 289.492 200.357L278.613 194.041C278.412 193.953 278.191 193.921 277.973 193.947C277.756 193.974 277.549 194.058 277.374 194.191Z" fill="#263238"/>
<path opacity="0.1" d="M289.599 204.693L326.68 227.477C326.24 227.933 325.742 228.328 325.199 228.652C324.024 229.328 322.97 229.364 322.23 228.858L286.195 206.074C286.523 206.226 286.885 206.287 287.244 206.252C287.603 206.217 287.947 206.087 288.239 205.875C288.756 205.562 289.216 205.162 289.599 204.693Z" fill="#F1F2F3"/>
<path d="M295.822 172.254C295.822 171.948 295.822 171.656 295.779 171.357C295.737 171.058 295.744 170.766 295.708 170.474C295.673 170.182 295.673 170.09 295.651 169.897C295.601 169.385 295.523 168.886 295.445 168.409C295.402 168.196 295.366 167.968 295.324 167.754C295.281 167.541 295.238 167.348 295.196 167.142C295.067 166.594 294.939 166.053 294.783 165.54C294.697 165.298 294.626 165.049 294.54 164.828C294.526 164.791 294.514 164.753 294.505 164.714C294.412 164.472 294.334 164.244 294.241 164.002C294.145 163.74 294.036 163.484 293.914 163.233C293.836 163.046 293.748 162.863 293.65 162.685C293.599 162.551 293.535 162.422 293.458 162.3C293.387 162.144 293.302 161.987 293.216 161.838L293.152 161.731C293.081 161.595 292.995 161.467 292.917 161.332C292.839 161.197 292.803 161.161 292.753 161.076C292.37 160.475 291.941 159.904 291.472 159.367C291.386 159.281 291.308 159.189 291.23 159.103C291.151 159.018 291.094 158.961 291.03 158.89L290.767 158.634C290.524 158.379 290.265 158.141 289.991 157.922C289.867 157.812 289.736 157.709 289.599 157.615C289.464 157.509 289.329 157.409 289.186 157.316C288.974 157.159 288.753 157.013 288.524 156.882L288.346 156.768H288.31L280.478 152.218L280.422 152.183C278.394 151.052 276.106 150.473 273.786 150.503C270.325 150.503 266.424 151.642 262.287 154.027C248.047 162.229 236.555 182.179 236.555 198.598C236.555 206.779 239.403 212.532 244.045 215.23H244.088L251.92 219.773H251.963L252.091 219.844C252.297 219.958 252.497 220.065 252.703 220.165C252.91 220.264 253.216 220.4 253.479 220.506C253.743 220.613 253.949 220.691 254.191 220.763C254.316 220.81 254.445 220.849 254.576 220.877C254.707 220.93 254.843 220.971 254.982 220.998L255.402 221.104C255.502 221.133 255.605 221.154 255.708 221.169L256.263 221.268H256.392L257.061 221.354C260.898 221.76 265.356 220.677 270.126 217.929C284.366 209.72 295.858 189.762 295.858 173.358C295.843 173.016 295.836 172.646 295.822 172.254ZM278.585 160.649C279.142 162.69 279.415 164.798 279.396 166.914C279.396 181.389 268.802 199.73 256.27 206.964C254.441 208.053 252.465 208.876 250.404 209.406C249.846 207.363 249.573 205.252 249.592 203.134C249.592 188.659 260.179 170.317 272.718 163.084C274.547 161.995 276.522 161.175 278.585 160.649Z" fill="#0B192C"/>
<path opacity="0.1" d="M251.55 219.595L244.003 215.223C239.375 212.518 236.513 206.758 236.513 198.591C236.513 191.272 238.805 183.254 242.6 175.885L250.432 180.435C246.63 187.797 244.338 195.821 244.338 203.141C244.366 211.143 247.065 216.818 251.55 219.595Z" fill="black"/>
<path opacity="0.4" d="M295.822 172.254C295.822 171.948 295.822 171.656 295.779 171.357C295.737 171.058 295.744 170.766 295.708 170.474C295.672 170.182 295.672 170.09 295.651 169.898C295.601 169.385 295.523 168.886 295.445 168.409C295.402 168.196 295.366 167.968 295.324 167.754C295.281 167.541 295.238 167.349 295.195 167.142C295.067 166.594 294.939 166.053 294.782 165.54C294.697 165.298 294.626 165.049 294.54 164.828C294.526 164.791 294.514 164.753 294.505 164.714C294.412 164.472 294.334 164.244 294.241 164.002C294.145 163.741 294.036 163.484 293.914 163.233C293.836 163.046 293.748 162.863 293.65 162.685C293.599 162.551 293.535 162.422 293.458 162.3C293.387 162.144 293.302 161.987 293.216 161.838L293.152 161.731C293.081 161.596 292.995 161.467 292.917 161.332C292.839 161.197 292.803 161.161 292.753 161.076C292.369 160.475 291.941 159.904 291.472 159.367C291.386 159.282 291.308 159.189 291.23 159.104C291.151 159.018 291.094 158.961 291.03 158.89L290.767 158.634C290.524 158.379 290.265 158.141 289.991 157.922C289.866 157.812 289.736 157.71 289.599 157.616C289.464 157.509 289.329 157.409 289.186 157.316C288.974 157.159 288.753 157.014 288.524 156.882C283.853 154.034 277.132 154.105 270.112 158.541C256.007 167.427 244.444 187.128 244.373 203.112C244.337 211.428 247.321 217.231 252.084 219.873C252.29 219.987 252.49 220.094 252.696 220.193C252.903 220.293 253.209 220.428 253.472 220.535C253.736 220.642 253.942 220.72 254.184 220.791C254.309 220.839 254.438 220.877 254.569 220.905C254.7 220.959 254.836 220.999 254.975 221.026L255.395 221.133C255.495 221.161 255.597 221.183 255.701 221.197L256.256 221.297H256.384L257.054 221.382C260.891 221.788 265.348 220.706 270.119 217.958C284.359 209.748 295.85 189.791 295.85 173.386C295.843 173.016 295.836 172.646 295.822 172.254ZM267.499 213.479C264.309 215.323 261.24 216.291 258.613 216.291C253.686 216.291 251.422 212.931 250.404 209.406C249.846 207.363 249.573 205.252 249.592 203.134C249.592 188.659 260.179 170.318 272.718 163.084C274.547 161.995 276.522 161.175 278.584 160.649C279.573 160.407 280.586 160.28 281.603 160.271C289.749 160.271 290.617 169.47 290.617 173.429C290.617 187.904 280.037 206.245 267.499 213.479Z" fill="white"/>
<path opacity="0.1" d="M290.617 173.429C290.617 187.897 280.036 206.245 267.498 213.479C264.308 215.323 261.24 216.292 258.62 216.292C257.474 216.338 256.334 216.122 255.284 215.662C254.234 215.202 253.303 214.509 252.56 213.636C252.432 213.486 252.311 213.33 252.19 213.173C252.069 213.016 251.955 212.853 251.856 212.682C251.775 212.565 251.702 212.444 251.635 212.319C251.585 212.24 251.535 212.162 251.492 212.084C251.45 212.005 251.393 211.884 251.336 211.785C251.279 211.685 251.243 211.6 251.2 211.507C251.158 211.414 251.108 211.322 251.065 211.222L250.852 210.71C250.766 210.496 250.688 210.282 250.617 210.062C250.545 209.841 250.467 209.627 250.41 209.407C252.472 208.876 254.448 208.054 256.277 206.964C268.808 199.731 279.403 181.389 279.403 166.914C279.421 164.799 279.148 162.69 278.591 160.649C279.579 160.407 280.592 160.28 281.61 160.271C282.007 160.273 282.404 160.297 282.799 160.343L283.169 160.4C289.855 161.51 290.617 169.741 290.617 173.429Z" fill="black"/>
<path opacity="0.7" d="M286.118 170.88C286.118 185.355 275.537 203.696 262.999 210.93C259.809 212.774 256.741 213.778 254.113 213.778C253.591 213.78 253.069 213.737 252.554 213.65C252.426 213.5 252.305 213.343 252.184 213.187C252.063 213.03 251.949 212.866 251.849 212.695C251.769 212.579 251.695 212.457 251.628 212.332C251.579 212.254 251.529 212.176 251.486 212.097C251.443 212.019 251.386 211.898 251.329 211.798C251.272 211.699 251.237 211.613 251.194 211.521C251.151 211.428 251.102 211.336 251.059 211.236L250.845 210.723C250.76 210.51 250.681 210.296 250.61 210.075C250.539 209.855 250.461 209.641 250.404 209.42C252.466 208.89 254.441 208.067 256.271 206.978C268.802 199.744 279.396 181.403 279.396 166.928C279.415 164.812 279.142 162.704 278.585 160.663C279.573 160.42 280.586 160.294 281.604 160.285C282.001 160.287 282.398 160.31 282.793 160.356L283.163 160.413C285.74 163.432 286.118 168.295 286.118 170.88Z" fill="#D0D5DD"/>
</svg>
