<svg width="336" height="336" viewBox="0 0 336 336" fill="none" xmlns="http://www.w3.org/2000/svg">
<path d="M336 256.973H0V257.141H336V256.973Z" fill="#EBEBEB"/>
<path d="M292.771 267.785H280.077V267.953H292.771V267.785Z" fill="#EBEBEB"/>
<path d="M216.734 266.616H196.93V266.784H216.734V266.616Z" fill="#EBEBEB"/>
<path d="M279.404 261.549H247.746V261.717H279.404V261.549Z" fill="#EBEBEB"/>
<path d="M42.625 262.678H35.2532V262.846H42.625V262.678Z" fill="#EBEBEB"/>
<path d="M74.5185 262.678H48.6062V262.846H74.5185V262.678Z" fill="#EBEBEB"/>
<path d="M151.301 265.514H114.913V265.682H151.301V265.514Z" fill="#EBEBEB"/>
<path d="M159.264 227.002H29.5074C28.4909 227 27.5166 226.595 26.7985 225.875C26.0803 225.156 25.677 224.181 25.677 223.165V40.7636C25.6859 39.7529 26.0931 38.7866 26.8103 38.0744C27.5275 37.3622 28.4967 36.9618 29.5074 36.9601H159.264C160.282 36.9601 161.258 37.3643 161.977 38.0839C162.697 38.8035 163.101 39.7795 163.101 40.7972V223.165C163.101 224.182 162.697 225.158 161.977 225.878C161.258 226.597 160.282 227.002 159.264 227.002ZM29.5074 37.0945C28.5355 37.0963 27.6039 37.4836 26.9173 38.1715C26.2306 38.8594 25.845 39.7917 25.845 40.7636V223.165C25.845 224.137 26.2306 225.069 26.9173 225.757C27.6039 226.445 28.5355 226.832 29.5074 226.834H159.264C160.236 226.832 161.169 226.445 161.856 225.757C162.544 225.069 162.931 224.137 162.933 223.165V40.7636C162.931 39.791 162.544 38.8588 161.856 38.1711C161.169 37.4834 160.236 37.0963 159.264 37.0945H29.5074Z" fill="#EBEBEB"/>
<path d="M304.624 227.002H174.861C173.844 227 172.869 226.595 172.15 225.876C171.431 225.157 171.026 224.182 171.024 223.165V40.7636C171.035 39.7523 171.444 38.786 172.162 38.074C172.88 37.362 173.85 36.9618 174.861 36.9601H304.624C305.634 36.9636 306.602 37.3648 307.317 38.0768C308.033 38.7887 308.439 39.7541 308.448 40.7636V223.165C308.448 224.18 308.046 225.154 307.329 225.873C306.612 226.592 305.64 226.998 304.624 227.002ZM174.861 37.0945C173.889 37.0963 172.956 37.4834 172.269 38.1711C171.581 38.8588 171.194 39.791 171.192 40.7636V223.165C171.194 224.137 171.581 225.069 172.269 225.757C172.956 226.445 173.889 226.832 174.861 226.834H304.624C305.597 226.832 306.529 226.445 307.217 225.757C307.905 225.069 308.292 224.137 308.294 223.165V40.7636C308.292 39.791 307.905 38.8588 307.217 38.1711C306.529 37.4834 305.597 37.0963 304.624 37.0945H174.861Z" fill="#EBEBEB"/>
<path d="M292.771 267.785H280.077V267.953H292.771V267.785Z" fill="#EBEBEB"/>
<path d="M216.734 266.616H196.93V266.784H216.734V266.616Z" fill="#EBEBEB"/>
<path d="M279.404 261.549H247.746V261.717H279.404V261.549Z" fill="#EBEBEB"/>
<path d="M42.625 262.678H35.2532V262.846H42.625V262.678Z" fill="#EBEBEB"/>
<path d="M74.5185 262.678H48.6062V262.846H74.5185V262.678Z" fill="#EBEBEB"/>
<path d="M151.301 265.514H114.913V265.682H151.301V265.514Z" fill="#EBEBEB"/>
<path d="M256.61 112.217H272.086V109.005H256.61V112.217Z" fill="#E6E6E6"/>
<path d="M88.8056 112.217L256.617 112.217V109.005L88.8056 109.005V112.217Z" fill="#F0F0F0"/>
<path d="M183.987 55.5813H225.006L218.541 109.012H177.522L183.987 55.5813Z" fill="#F5F5F5"/>
<path d="M191.452 62.5831H215.846L211.081 102.003H186.681L191.452 62.5831Z" fill="#FAFAFA"/>
<path d="M124.528 58.0204H174.29L168.121 109.012H118.366L124.528 58.0204Z" fill="#F5F5F5"/>
<path d="M131.651 64.7003H165.546L160.997 102.326H127.101L131.651 64.7003Z" fill="#FAFAFA"/>
<path d="M210.759 73.873H245.045L240.798 109.012H206.505L210.759 73.873Z" fill="#F0F0F0"/>
<path d="M215.664 78.4762H239.023L235.884 104.402H212.526L215.664 78.4762Z" fill="#FAFAFA"/>
<path d="M292.556 155.044H271.361C267.628 155.099 264.018 156.391 261.099 158.719C258.18 161.047 256.117 164.279 255.233 167.906L249.635 191.292L238.131 191.251H238.09C235.431 191.251 232.856 192.179 230.807 193.874C228.758 195.569 227.365 197.926 226.868 200.538L225.336 208.542C224.177 208.718 223.097 209.235 222.232 210.025C221.367 210.816 220.757 211.846 220.477 212.984H228.602L219.073 256.973H221.505L231.061 212.984H237.741L228.151 256.973H230.584L240.14 212.984H266.785L276.341 256.973H278.773L269.217 212.984H275.897L285.453 256.973H287.886L278.33 212.984H277.328C281.062 212.939 284.675 211.652 287.596 209.325C290.516 206.998 292.578 203.765 293.456 200.135L301.52 166.535C301.883 165.171 301.924 163.741 301.641 162.358C301.359 160.975 300.76 159.676 299.892 158.563C299.023 157.45 297.909 156.554 296.637 155.943C295.364 155.332 293.967 155.025 292.556 155.044ZM247.532 199.974C246.949 202.374 245.586 204.512 243.655 206.052C241.724 207.592 239.337 208.447 236.867 208.481H228.373L229.798 201.089C230.169 199.163 231.199 197.425 232.71 196.175C234.222 194.924 236.122 194.239 238.084 194.235L248.876 194.269L247.532 199.974Z" fill="#E6E6E6"/>
<path d="M130.22 251.516H153.357V149.258H130.22V251.516Z" fill="#F0F0F0"/>
<path d="M47.0731 256.973H148.921V251.516H47.0731V256.973Z" fill="#F0F0F0"/>
<path d="M130.228 149.258H42.6257V251.516H130.228V149.258Z" fill="#F5F5F5"/>
<path d="M121.134 159.855H51.7229V204.268H121.134V159.855Z" fill="#F0F0F0"/>
<path d="M121.134 212.688H51.7229V240.919H121.134V212.688Z" fill="#F0F0F0"/>
<path d="M68.4099 161.616H104.443C105.4 161.616 106.176 160.84 106.176 159.882V159.479C106.176 158.521 105.4 157.745 104.443 157.745H68.4099C67.4523 157.745 66.6761 158.521 66.6761 159.479V159.882C66.6761 160.84 67.4523 161.616 68.4099 161.616Z" fill="#F5F5F5"/>
<path d="M68.4099 214.63H104.443C105.4 214.63 106.176 213.854 106.176 212.896V212.493C106.176 211.536 105.4 210.759 104.443 210.759H68.4099C67.4523 210.759 66.6761 211.536 66.6761 212.493V212.896C66.6761 213.854 67.4523 214.63 68.4099 214.63Z" fill="#F5F5F5"/>
<path d="M221.263 155.044H200.068C196.335 155.098 192.725 156.391 189.806 158.719C186.887 161.047 184.824 164.278 183.94 167.906L178.342 191.292L166.837 191.251C164.177 191.25 161.6 192.176 159.55 193.872C157.5 195.567 156.106 197.925 155.608 200.538L154.076 208.542C152.918 208.719 151.838 209.236 150.974 210.026C150.109 210.817 149.498 211.846 149.218 212.984H157.349L147.753 256.973H150.179L159.734 212.984H166.454L156.865 256.973H159.264L168.82 212.984H195.471L205.027 256.973H207.453L197.897 212.984H204.617L214.166 256.973H216.592L207.037 212.984H206.035C209.769 212.939 213.382 211.652 216.302 209.325C219.223 206.998 221.285 203.765 222.163 200.135L230.227 166.535C230.588 165.171 230.628 163.742 230.345 162.359C230.062 160.977 229.463 159.679 228.595 158.566C227.727 157.453 226.614 156.557 225.342 155.946C224.07 155.335 222.674 155.026 221.263 155.044ZM176.239 199.974C175.654 202.374 174.288 204.511 172.357 206.051C170.426 207.591 168.037 208.446 165.567 208.481H157.087L158.511 201.089C158.881 199.162 159.911 197.424 161.423 196.173C162.935 194.922 164.835 194.237 166.797 194.235L177.596 194.268L176.239 199.974Z" fill="#E6E6E6"/>
<path d="M167.998 287.32C239.958 287.32 298.292 283.914 298.292 279.713C298.292 275.512 239.958 272.106 167.998 272.106C96.0387 272.106 37.7041 275.512 37.7041 279.713C37.7041 283.914 96.0387 287.32 167.998 287.32Z" fill="#F5F5F5"/>
<path d="M101.425 72.5762C101.889 64.4517 119.065 65.2581 122.439 72.8382C125.812 80.4184 123.043 87.387 132.404 91.9634C148.956 100.027 150.757 110.739 144.5 121.283C138.244 131.826 113.81 139.212 100.518 121.955C87.4072 104.92 107.339 101.123 97.0235 93.1058C88.0322 86.0766 88.7982 73.5573 101.425 72.5762Z" fill="#263238"/>
<path d="M94.0813 111.693C93.8595 111.962 93.7386 112.097 93.584 112.271C93.4294 112.446 93.2816 112.594 93.1338 112.755C92.8314 113.058 92.529 113.36 92.2266 113.635C91.615 114.207 90.9901 114.731 90.3584 115.242C89.0888 116.236 87.7578 117.149 86.3734 117.977C85.0098 118.793 83.6033 119.535 82.16 120.201C81.4342 120.523 80.7152 120.873 79.9827 121.142L78.8806 121.565L78.3296 121.773C78.0082 121.895 77.6779 121.991 77.3418 122.062C76.5089 122.244 75.642 122.193 74.8367 121.913C74.0315 121.633 73.3193 121.136 72.7789 120.476C72.0791 119.611 71.5747 118.605 71.3005 117.526C70.8741 115.893 70.6484 114.214 70.6285 112.527C70.5846 109.417 70.848 106.311 71.4147 103.253L74.4253 103.502C74.5229 106.393 74.7697 109.278 75.1645 112.144C75.3386 113.441 75.6494 114.716 76.0918 115.947C76.2075 116.323 76.4101 116.666 76.6832 116.948C76.7302 116.948 76.6832 116.888 76.5085 116.801C76.3918 116.757 76.2697 116.73 76.1456 116.72C76.1456 116.72 76.1456 116.72 76.2262 116.673L76.7034 116.438L77.6643 115.981L79.5459 115.013C80.7757 114.341 81.992 113.635 83.1478 112.863C84.3037 112.09 85.4326 111.297 86.5078 110.437C87.0387 110.013 87.5562 109.577 88.04 109.093C88.2886 108.871 88.5171 108.642 88.7456 108.421L89.0749 108.098L89.3168 107.836L94.0813 111.693Z" fill="#FFC3BD"/>
<path d="M94.2148 102.285C91.7485 101.68 85.4788 109.798 85.4788 109.798L89.289 117.049C89.289 117.049 99.8192 111.102 99.4228 107.829C99.0061 104.415 97.81 103.166 94.2148 102.285Z" fill="#F2F4F7"/>
<path opacity="0.2" d="M94.2148 102.285C91.7485 101.68 85.4788 109.798 85.4788 109.798L89.289 117.049C89.289 117.049 99.8192 111.102 99.4228 107.829C99.0061 104.415 97.81 103.166 94.2148 102.285Z" fill="black"/>
<path opacity="0.2" d="M92.5827 105.094L93.1875 114.589C91.0909 116.021 89.2832 117.049 89.2832 117.049L88.4902 115.53L92.5827 105.094Z" fill="black"/>
<path d="M73.9744 105.504L76.7497 99.3215L70.8496 100.726C70.8496 100.726 69.8281 104.422 71.6291 106.102L73.9744 105.504Z" fill="#FFC3BD"/>
<path d="M76.4075 94.8999L71.3407 95.3233L70.8501 100.733L76.7503 99.3284L76.4075 94.8999Z" fill="#FFC3BD"/>
<path d="M99.6792 270.534L93.732 270.769L92.677 256.953L98.6242 256.724L99.6792 270.534Z" fill="#FFC3BD"/>
<path d="M152.639 219.737L148.762 224.267L137.015 216.754L140.893 212.218L152.639 219.737Z" fill="#FFC3BD"/>
<path d="M147.457 224.011L151.011 218.326C151.071 218.227 151.164 218.153 151.275 218.118C151.385 218.083 151.504 218.09 151.61 218.138L156.508 220.302C156.626 220.361 156.73 220.444 156.814 220.544C156.898 220.645 156.96 220.762 156.998 220.888C157.035 221.014 157.046 221.146 157.03 221.277C157.014 221.407 156.971 221.533 156.905 221.646C155.628 223.608 154.889 224.488 153.357 226.988C152.396 228.527 150.837 231.692 149.506 233.796C148.176 235.899 146.012 234.716 146.375 233.715C148.001 229.219 147.53 227.062 147.242 225.026C147.195 224.673 147.271 224.315 147.457 224.011Z" fill="#263238"/>
<path d="M93.5359 270.419L99.9871 268.612C100.098 268.577 100.217 268.585 100.323 268.633C100.428 268.682 100.512 268.767 100.558 268.874L102.722 273.773C102.771 273.9 102.792 274.037 102.784 274.173C102.775 274.309 102.738 274.442 102.675 274.563C102.611 274.684 102.523 274.79 102.415 274.874C102.307 274.957 102.183 275.017 102.05 275.05C99.7922 275.641 98.6901 275.816 95.8341 276.609C94.0869 277.099 88.9865 279.397 86.4866 279.599C83.9868 279.801 83.6642 277.334 84.6857 277.032C87.9747 276.06 90.8009 273.931 92.6421 271.038C92.8563 270.731 93.1735 270.512 93.5359 270.419Z" fill="#263238"/>
<g opacity="0.2">
<path d="M92.677 256.96L93.2213 264.083L99.1685 263.848L98.6242 256.724L92.677 256.96Z" fill="black"/>
<path d="M140.893 212.218L137.015 216.754L143.077 220.625L146.954 216.089L140.893 212.218Z" fill="black"/>
</g>
<path d="M91.1034 104.765C90.5255 108.125 89.9744 116.659 92.4474 136.497L116.639 137.989C116.828 128.715 117.311 121.242 122.331 103.32C122.457 102.878 122.481 102.413 122.404 101.96C122.326 101.507 122.148 101.078 121.882 100.703C121.617 100.327 121.27 100.017 120.869 99.7927C120.468 99.5689 120.021 99.4378 119.563 99.4091C117.721 99.3015 115.403 99.2276 113.037 99.3284C109.312 99.4097 105.596 99.7465 101.916 100.336C98.7776 100.901 95.3437 101.775 93.3479 102.305C92.7769 102.456 92.2615 102.768 91.8634 103.205C91.4653 103.641 91.2014 104.183 91.1034 104.765Z" fill="#F2F4F7"/>
<path opacity="0.2" d="M91.1034 104.765C90.5255 108.125 89.9744 116.659 92.4474 136.497L116.639 137.989C116.828 128.715 117.311 121.242 122.331 103.32C122.457 102.878 122.481 102.413 122.404 101.96C122.326 101.507 122.148 101.078 121.882 100.703C121.617 100.327 121.27 100.017 120.869 99.7927C120.468 99.5689 120.021 99.4378 119.563 99.4091C117.721 99.3015 115.403 99.2276 113.037 99.3284C109.312 99.4097 105.596 99.7465 101.916 100.336C98.7776 100.901 95.3437 101.775 93.3479 102.305C92.7769 102.456 92.2615 102.768 91.8634 103.205C91.4653 103.641 91.2014 104.183 91.1034 104.765Z" fill="black"/>
<path d="M92.448 136.497C92.448 136.497 84.9216 182.072 84.1891 200.249C83.4297 219.159 91.9372 262.167 91.9372 262.167H100.001C100.001 262.167 97.0579 221.108 98.9193 202.608C100.935 182.448 110.162 137.585 110.162 137.585L92.448 136.497Z" fill="#263238"/>
<path d="M100.7 262.456H91.2379L90.5391 259.439L101.137 259.069L100.7 262.456Z" fill="#F2F4F7"/>
<path opacity="0.2" d="M102.178 148.552C95.4986 160.131 98.8989 182.22 100.498 190.458C102.326 178.362 105.061 163.578 107.158 152.725C106.634 146.496 105.256 143.21 102.178 148.552Z" fill="black"/>
<path d="M98.8386 136.886C98.8386 136.886 102.199 191.48 106.365 199.033C112.998 211.008 141.121 220.826 141.121 220.826L146.403 214.643C146.403 214.643 128.81 200.014 119.523 191.701C117.312 176.602 125.127 152.772 116.68 137.988L98.8386 136.886Z" fill="#263238"/>
<path d="M117.084 136.591L117.568 138.795C117.642 138.97 117.434 139.124 117.151 139.111L92.2873 137.572C92.0655 137.572 91.8908 137.438 91.8908 137.303L91.8035 135.126C91.8035 134.971 91.9916 134.857 92.2335 134.871L116.701 136.416C116.774 136.412 116.848 136.426 116.914 136.456C116.981 136.486 117.039 136.533 117.084 136.591Z" fill="#F2F4F7"/>
<path d="M113.621 139.104L114.293 139.144C114.42 139.144 114.528 139.091 114.521 139.01L114.387 136.181C114.387 136.093 114.273 136.02 114.145 136.013L113.473 135.973C113.345 135.973 113.238 136.026 113.244 136.107L113.379 138.943C113.379 139.044 113.493 139.104 113.621 139.104Z" fill="#263238"/>
<path d="M94.08 137.921L94.752 137.962C94.8864 137.962 94.9872 137.908 94.9872 137.827L94.8528 134.991C94.8528 134.911 94.7386 134.837 94.6042 134.83L93.9322 134.79C93.7978 134.79 93.697 134.844 93.7037 134.924L93.8314 137.753C93.8515 137.841 93.959 137.915 94.08 137.921Z" fill="#263238"/>
<path d="M103.86 138.526L104.532 138.566C104.659 138.566 104.767 138.513 104.76 138.425L104.626 135.596C104.626 135.516 104.511 135.442 104.384 135.428L103.712 135.388C103.584 135.388 103.476 135.442 103.483 135.529L103.618 138.358C103.618 138.432 103.732 138.513 103.86 138.526Z" fill="#263238"/>
<path d="M147.041 213.945L140.482 221.619L137.378 220.376L144.682 211.001L147.041 213.945Z" fill="#F2F4F7"/>
<path d="M94.1153 123.01C93.3681 123.173 92.6973 123.582 92.21 124.172C91.7228 124.762 91.4472 125.498 91.4273 126.262C91.3545 126.108 91.2667 125.962 91.1652 125.825C91.0424 125.639 90.8981 125.467 90.7351 125.315C90.5723 125.157 90.3945 125.015 90.2043 124.891C90.0163 124.769 89.8158 124.668 89.6062 124.589C89.3898 124.503 89.1643 124.442 88.9342 124.407C88.7129 124.364 88.4877 124.344 88.2622 124.347C88.0364 124.356 87.8118 124.383 87.5902 124.428C87.1483 124.522 86.73 124.705 86.3604 124.965C86.1754 125.09 86.0042 125.234 85.8497 125.395C85.6958 125.56 85.5564 125.738 85.4331 125.926C85.3089 126.116 85.2053 126.319 85.1239 126.531C85.0448 126.749 84.9841 126.974 84.9425 127.203C84.9061 127.425 84.8904 127.65 84.8955 127.875C84.8945 128.327 84.9907 128.774 85.1777 129.185C85.269 129.392 85.3792 129.59 85.507 129.777C85.6319 129.96 85.7761 130.129 85.9371 130.281C86.0985 130.44 86.2764 130.582 86.4679 130.704C86.6559 130.826 86.8564 130.927 87.066 131.006C87.2835 131.089 87.5086 131.15 87.738 131.188C87.9049 131.214 88.0732 131.229 88.242 131.235C87.5621 131.57 87.0127 132.121 86.68 132.802C86.3474 133.483 86.2504 134.255 86.4042 134.998C86.558 135.74 86.9539 136.41 87.5298 136.902C88.1058 137.395 88.829 137.683 89.586 137.72C88.9098 138.064 88.3665 138.622 88.0409 139.307C87.7153 139.992 87.6257 140.765 87.7861 141.507C87.9465 142.248 88.3479 142.916 88.9276 143.405C89.5073 143.894 90.2327 144.178 90.9905 144.211C90.3134 144.558 89.7711 145.12 89.4492 145.809C89.1273 146.498 89.0442 147.274 89.213 148.016C89.3818 148.757 89.7929 149.421 90.3813 149.903C90.9697 150.385 91.7019 150.657 92.4622 150.676C91.914 150.952 91.4498 151.369 91.1182 151.886C90.8762 152.266 90.7118 152.691 90.6343 153.135C90.5926 153.357 90.5746 153.582 90.5806 153.807C90.5773 154.27 90.6736 154.729 90.8628 155.151C90.9528 155.357 91.0631 155.553 91.1921 155.736C91.3193 155.921 91.4657 156.092 91.6289 156.247C91.7896 156.406 91.9651 156.55 92.1531 156.677C92.9219 157.163 93.8513 157.327 94.7403 157.134C94.9712 157.089 95.1965 157.019 95.4123 156.926C95.6162 156.835 95.8119 156.727 95.9969 156.603C96.1805 156.474 96.3515 156.327 96.5076 156.166C96.6655 156.005 96.8053 155.827 96.9243 155.635C97.0484 155.445 97.152 155.242 97.2334 155.03C97.3162 154.813 97.377 154.588 97.4148 154.358C97.446 154.19 97.464 154.019 97.4686 153.848C97.8061 154.532 98.3623 155.084 99.0489 155.416C99.7355 155.748 100.513 155.842 101.259 155.682C102.005 155.523 102.677 155.119 103.167 154.534C103.657 153.95 103.939 153.219 103.967 152.457C104.307 153.139 104.866 153.688 105.554 154.017C106.241 154.346 107.019 154.437 107.764 154.274C108.509 154.111 109.179 153.705 109.667 153.119C110.155 152.533 110.433 151.801 110.458 151.039C110.801 151.719 111.36 152.266 112.048 152.594C112.736 152.921 113.513 153.011 114.257 152.849C115.001 152.686 115.67 152.281 116.159 151.697C116.648 151.112 116.928 150.382 116.957 149.621C117.299 150.301 117.859 150.848 118.546 151.176C119.234 151.503 120.011 151.593 120.755 151.431C121.5 151.268 122.169 150.863 122.657 150.279C123.146 149.694 123.427 148.964 123.455 148.203C123.794 148.888 124.354 149.44 125.043 149.77C125.733 150.101 126.514 150.19 127.261 150.024C128.007 149.859 128.677 149.448 129.163 148.857C129.648 148.266 129.922 147.529 129.94 146.765C130.012 146.919 130.1 147.065 130.202 147.202C130.324 147.388 130.469 147.56 130.632 147.712C130.795 147.872 130.973 148.016 131.163 148.142C131.351 148.263 131.552 148.364 131.761 148.445C131.978 148.527 132.203 148.588 132.433 148.626C132.654 148.668 132.879 148.686 133.105 148.68C133.331 148.68 133.556 148.655 133.777 148.606C134.215 148.5 134.631 148.318 135.006 148.069C135.189 147.938 135.36 147.791 135.517 147.632C135.671 147.467 135.811 147.289 135.934 147.101C136.058 146.912 136.16 146.709 136.236 146.496C136.319 146.29 136.382 146.076 136.424 145.858C136.462 145.636 136.48 145.411 136.478 145.186C136.469 144.724 136.373 144.268 136.196 143.842C136.102 143.637 135.99 143.441 135.86 143.257C135.735 143.072 135.591 142.901 135.43 142.746C135.265 142.591 135.087 142.449 134.899 142.323C134.71 142.202 134.51 142.101 134.301 142.021C134.083 141.938 133.858 141.877 133.629 141.839C133.464 141.813 133.298 141.798 133.132 141.792C133.812 141.457 134.361 140.906 134.694 140.225C135.026 139.544 135.123 138.772 134.969 138.029C134.816 137.287 134.42 136.617 133.844 136.125C133.268 135.632 132.545 135.344 131.788 135.307C132.461 134.961 133.001 134.403 133.324 133.718C133.647 133.034 133.735 132.262 133.574 131.523C133.413 130.783 133.012 130.117 132.434 129.629C131.856 129.141 131.132 128.857 130.376 128.822C131.051 128.474 131.591 127.912 131.912 127.224C132.232 126.536 132.315 125.76 132.148 125.02C131.98 124.279 131.571 123.616 130.986 123.133C130.4 122.65 129.67 122.375 128.911 122.351C129.062 122.277 129.208 122.194 129.348 122.102C129.716 121.842 130.033 121.517 130.282 121.142C130.403 120.953 130.504 120.752 130.585 120.543C130.67 120.327 130.73 120.101 130.766 119.871C130.806 119.65 130.826 119.425 130.827 119.199C130.82 118.973 130.793 118.749 130.746 118.527C130.55 117.639 130.01 116.865 129.244 116.374C128.478 115.883 127.549 115.715 126.66 115.907C126.442 115.957 126.228 116.026 126.022 116.115C125.814 116.205 125.616 116.315 125.43 116.444C125.247 116.571 125.076 116.715 124.92 116.874C124.768 117.041 124.629 117.218 124.503 117.405C124.381 117.595 124.28 117.798 124.201 118.01C124.115 118.226 124.054 118.452 124.019 118.682C123.987 118.85 123.969 119.021 123.966 119.193C123.632 118.508 123.08 117.954 122.396 117.618C121.713 117.281 120.937 117.183 120.191 117.337C119.445 117.491 118.771 117.889 118.277 118.469C117.783 119.048 117.495 119.776 117.461 120.537C117.116 119.86 116.557 119.316 115.871 118.991C115.184 118.666 114.409 118.577 113.667 118.739C112.925 118.901 112.258 119.305 111.77 119.887C111.281 120.468 111 121.196 110.969 121.955C110.626 121.274 110.067 120.727 109.379 120.4C108.692 120.072 107.915 119.982 107.17 120.145C106.426 120.307 105.757 120.712 105.268 121.297C104.78 121.881 104.499 122.611 104.471 123.373C104.126 122.696 103.567 122.152 102.881 121.827C102.194 121.502 101.42 121.413 100.678 121.575C99.9356 121.737 99.2682 122.141 98.78 122.723C98.2917 123.304 98.0102 124.032 97.9793 124.79C97.6291 124.103 97.0574 123.553 96.3563 123.23C95.6553 122.906 94.8658 122.829 94.1153 123.01Z" fill="#F2F4F7"/>
<path opacity="0.7" d="M94.1153 123.01C93.3681 123.173 92.6973 123.582 92.21 124.172C91.7228 124.762 91.4472 125.498 91.4273 126.262C91.3545 126.108 91.2667 125.962 91.1652 125.825C91.0424 125.639 90.8981 125.467 90.7351 125.315C90.5723 125.157 90.3945 125.015 90.2043 124.891C90.0163 124.769 89.8158 124.668 89.6062 124.589C89.3898 124.503 89.1643 124.442 88.9342 124.407C88.7129 124.364 88.4877 124.344 88.2622 124.347C88.0364 124.356 87.8118 124.383 87.5902 124.428C87.1483 124.522 86.73 124.705 86.3604 124.965C86.1754 125.09 86.0042 125.234 85.8497 125.395C85.6958 125.56 85.5564 125.738 85.4331 125.926C85.3089 126.116 85.2053 126.319 85.1239 126.531C85.0448 126.749 84.9841 126.974 84.9425 127.203C84.9061 127.425 84.8904 127.65 84.8955 127.875C84.8945 128.327 84.9907 128.774 85.1777 129.185C85.269 129.392 85.3792 129.59 85.507 129.777C85.6319 129.96 85.7761 130.129 85.9371 130.281C86.0985 130.44 86.2764 130.582 86.4679 130.704C86.6559 130.826 86.8564 130.927 87.066 131.006C87.2835 131.089 87.5086 131.15 87.738 131.188C87.9049 131.214 88.0732 131.229 88.242 131.235C87.5621 131.57 87.0127 132.121 86.68 132.802C86.3474 133.483 86.2504 134.255 86.4042 134.998C86.558 135.74 86.9539 136.41 87.5298 136.902C88.1058 137.395 88.829 137.683 89.586 137.72C88.9098 138.064 88.3665 138.622 88.0409 139.307C87.7153 139.992 87.6257 140.765 87.7861 141.507C87.9465 142.248 88.3479 142.916 88.9276 143.405C89.5073 143.894 90.2327 144.178 90.9905 144.211C90.3134 144.558 89.7711 145.12 89.4492 145.809C89.1273 146.498 89.0442 147.274 89.213 148.016C89.3818 148.757 89.7929 149.421 90.3813 149.903C90.9697 150.385 91.7019 150.657 92.4622 150.676C91.914 150.952 91.4498 151.369 91.1182 151.886C90.8762 152.266 90.7118 152.691 90.6343 153.135C90.5926 153.357 90.5746 153.582 90.5806 153.807C90.5773 154.27 90.6736 154.729 90.8628 155.151C90.9528 155.357 91.0631 155.553 91.1921 155.736C91.3193 155.921 91.4657 156.092 91.6289 156.247C91.7896 156.406 91.9651 156.55 92.1531 156.677C92.9219 157.163 93.8513 157.327 94.7403 157.134C94.9712 157.089 95.1965 157.019 95.4123 156.926C95.6162 156.835 95.8119 156.727 95.9969 156.603C96.1805 156.474 96.3515 156.327 96.5076 156.166C96.6655 156.005 96.8053 155.827 96.9243 155.635C97.0484 155.445 97.152 155.242 97.2334 155.03C97.3162 154.813 97.377 154.588 97.4148 154.358C97.446 154.19 97.464 154.019 97.4686 153.848C97.8061 154.532 98.3623 155.084 99.0489 155.416C99.7355 155.748 100.513 155.842 101.259 155.682C102.005 155.523 102.677 155.119 103.167 154.534C103.657 153.95 103.939 153.219 103.967 152.457C104.307 153.139 104.866 153.688 105.554 154.017C106.241 154.346 107.019 154.437 107.764 154.274C108.509 154.111 109.179 153.705 109.667 153.119C110.155 152.533 110.433 151.801 110.458 151.039C110.801 151.719 111.36 152.266 112.048 152.594C112.736 152.921 113.513 153.011 114.257 152.849C115.001 152.686 115.67 152.281 116.159 151.697C116.648 151.112 116.928 150.382 116.957 149.621C117.299 150.301 117.859 150.848 118.546 151.176C119.234 151.503 120.011 151.593 120.755 151.431C121.5 151.268 122.169 150.863 122.657 150.279C123.146 149.694 123.427 148.964 123.455 148.203C123.794 148.888 124.354 149.44 125.043 149.77C125.733 150.101 126.514 150.19 127.261 150.024C128.007 149.859 128.677 149.448 129.163 148.857C129.648 148.266 129.922 147.529 129.94 146.765C130.012 146.919 130.1 147.065 130.202 147.202C130.324 147.388 130.469 147.56 130.632 147.712C130.795 147.872 130.973 148.016 131.163 148.142C131.351 148.263 131.552 148.364 131.761 148.445C131.978 148.527 132.203 148.588 132.433 148.626C132.654 148.668 132.879 148.686 133.105 148.68C133.331 148.68 133.556 148.655 133.777 148.606C134.215 148.5 134.631 148.318 135.006 148.069C135.189 147.938 135.36 147.791 135.517 147.632C135.671 147.467 135.811 147.289 135.934 147.101C136.058 146.912 136.16 146.709 136.236 146.496C136.319 146.29 136.382 146.076 136.424 145.858C136.462 145.636 136.48 145.411 136.478 145.186C136.469 144.724 136.373 144.268 136.196 143.842C136.102 143.637 135.99 143.441 135.86 143.257C135.735 143.072 135.591 142.901 135.43 142.746C135.265 142.591 135.087 142.449 134.899 142.323C134.71 142.202 134.51 142.101 134.301 142.021C134.083 141.938 133.858 141.877 133.629 141.839C133.464 141.813 133.298 141.798 133.132 141.792C133.812 141.457 134.361 140.906 134.694 140.225C135.026 139.544 135.123 138.772 134.969 138.029C134.816 137.287 134.42 136.617 133.844 136.125C133.268 135.632 132.545 135.344 131.788 135.307C132.461 134.961 133.001 134.403 133.324 133.718C133.647 133.034 133.735 132.262 133.574 131.523C133.413 130.783 133.012 130.117 132.434 129.629C131.856 129.141 131.132 128.857 130.376 128.822C131.051 128.474 131.591 127.912 131.912 127.224C132.232 126.536 132.315 125.76 132.148 125.02C131.98 124.279 131.571 123.616 130.986 123.133C130.4 122.65 129.67 122.375 128.911 122.351C129.062 122.277 129.208 122.194 129.348 122.102C129.716 121.842 130.033 121.517 130.282 121.142C130.403 120.953 130.504 120.752 130.585 120.543C130.67 120.327 130.73 120.101 130.766 119.871C130.806 119.65 130.826 119.425 130.827 119.199C130.82 118.973 130.793 118.749 130.746 118.527C130.55 117.639 130.01 116.865 129.244 116.374C128.478 115.883 127.549 115.715 126.66 115.907C126.442 115.957 126.228 116.026 126.022 116.115C125.814 116.205 125.616 116.315 125.43 116.444C125.247 116.571 125.076 116.715 124.92 116.874C124.768 117.041 124.629 117.218 124.503 117.405C124.381 117.595 124.28 117.798 124.201 118.01C124.115 118.226 124.054 118.452 124.019 118.682C123.987 118.85 123.969 119.021 123.966 119.193C123.632 118.508 123.08 117.954 122.396 117.618C121.713 117.281 120.937 117.183 120.191 117.337C119.445 117.491 118.771 117.889 118.277 118.469C117.783 119.048 117.495 119.776 117.461 120.537C117.116 119.86 116.557 119.316 115.871 118.991C115.184 118.666 114.409 118.577 113.667 118.739C112.925 118.901 112.258 119.305 111.77 119.887C111.281 120.468 111 121.196 110.969 121.955C110.626 121.274 110.067 120.727 109.379 120.4C108.692 120.072 107.915 119.982 107.17 120.145C106.426 120.307 105.757 120.712 105.268 121.297C104.78 121.881 104.499 122.611 104.471 123.373C104.126 122.696 103.567 122.152 102.881 121.827C102.194 121.502 101.42 121.413 100.678 121.575C99.9356 121.737 99.2682 122.141 98.78 122.723C98.2917 123.304 98.0102 124.032 97.9793 124.79C97.6291 124.103 97.0574 123.553 96.3563 123.23C95.6553 122.906 94.8658 122.829 94.1153 123.01Z" fill="white"/>
<path d="M125.044 121.19L91.1975 128.57C90.5231 128.717 90.0955 129.383 90.2426 130.057L94.7792 150.864C94.9263 151.538 95.5923 151.966 96.2667 151.819L130.113 144.439C130.788 144.292 131.215 143.626 131.068 142.952L126.531 122.145C126.384 121.47 125.718 121.043 125.044 121.19Z" fill="#E4E7EC"/>
<path d="M122.305 105.215C123.481 108.172 124.502 111.108 125.436 114.119C126.37 117.13 127.224 120.167 127.909 123.272C127.996 123.661 128.077 124.058 128.158 124.448L128.272 125.032L128.332 125.328L128.379 125.61C128.403 125.732 128.419 125.856 128.426 125.98C128.478 126.641 128.36 127.305 128.084 127.908C127.78 128.547 127.302 129.087 126.706 129.467C126.304 129.719 125.864 129.903 125.402 130.012C125.076 130.088 124.743 130.138 124.408 130.16C123.426 130.206 122.441 130.13 121.478 129.931C120.649 129.771 119.828 129.569 119.018 129.326C115.949 128.381 112.973 127.155 110.128 125.664L111.203 122.842C114.153 123.514 117.17 124.233 120.047 124.683C120.766 124.797 121.471 124.878 122.143 124.925C122.707 124.985 123.276 124.974 123.837 124.891C124.005 124.891 124.092 124.75 123.743 124.931C123.47 125.101 123.253 125.346 123.118 125.637C123 125.885 122.94 126.156 122.943 126.43C122.943 126.484 122.943 126.484 122.943 126.511C122.943 126.538 122.943 126.585 122.943 126.511L122.869 126.242L122.721 125.698C122.62 125.341 122.533 124.978 122.419 124.622C121.592 121.739 120.651 118.857 119.67 115.974C118.689 113.091 117.654 110.215 116.606 107.392L122.305 105.215Z" fill="#FFC3BD"/>
<path d="M121.477 99.6911C123.849 100.578 126.248 109.099 126.248 109.099L116.43 115.234C116.43 115.234 113.312 107.009 114.522 103.945C115.785 100.746 118.762 98.6764 121.477 99.6911Z" fill="#F2F4F7"/>
<path opacity="0.2" d="M121.477 99.6911C123.849 100.578 126.248 109.099 126.248 109.099L116.43 115.234C116.43 115.234 113.312 107.009 114.522 103.945C115.785 100.746 118.762 98.6764 121.477 99.6911Z" fill="black"/>
<path d="M146.497 227.069H146.429C146.296 227.101 146.157 227.099 146.024 227.064C145.892 227.029 145.77 226.961 145.67 226.867C145.6 226.817 145.545 226.749 145.512 226.669C145.479 226.59 145.468 226.502 145.482 226.417C145.583 225.665 147.531 224.744 147.753 224.643C147.776 224.627 147.803 224.619 147.831 224.619C147.858 224.619 147.885 224.627 147.908 224.643C147.929 224.661 147.944 224.684 147.951 224.711C147.958 224.737 147.957 224.765 147.948 224.791C147.666 225.57 147.169 226.807 146.497 227.069ZM147.565 225.053C146.792 225.436 145.811 226.061 145.757 226.457C145.754 226.495 145.761 226.534 145.777 226.568C145.794 226.602 145.819 226.632 145.851 226.652C145.915 226.716 145.995 226.763 146.082 226.788C146.169 226.812 146.261 226.814 146.349 226.793C146.712 226.713 147.169 226.068 147.531 225.08L147.565 225.053Z" fill="#F2F4F7"/>
<path d="M147.647 225.013C146.975 225.275 145.557 225.423 145.107 225.013C145.026 224.935 144.975 224.832 144.96 224.721C144.945 224.61 144.969 224.497 145.026 224.401C145.07 224.302 145.136 224.215 145.219 224.145C145.301 224.075 145.398 224.025 145.503 223.998C146.336 223.749 147.795 224.67 147.855 224.67C147.877 224.683 147.894 224.702 147.906 224.725C147.918 224.747 147.924 224.772 147.922 224.798C147.922 224.823 147.915 224.847 147.902 224.868C147.889 224.889 147.87 224.907 147.848 224.919L147.647 225.013ZM145.543 224.267C145.486 224.288 145.433 224.32 145.388 224.361C145.343 224.403 145.307 224.453 145.281 224.509C145.207 224.677 145.281 224.751 145.281 224.798C145.584 225.08 146.767 225.019 147.452 224.798C146.948 224.522 146.061 224.126 145.564 224.267H145.543Z" fill="#F2F4F7"/>
<path d="M91.661 272.026C91.1822 272.207 90.6556 272.219 90.1692 272.059C90.054 272.003 89.9542 271.92 89.8781 271.817C89.802 271.714 89.752 271.595 89.7324 271.468C89.7176 271.391 89.7221 271.311 89.7456 271.236C89.769 271.161 89.8107 271.093 89.8668 271.038C90.4581 270.46 93.0789 270.984 93.3746 271.038C93.4027 271.042 93.4285 271.056 93.448 271.077C93.4675 271.097 93.4795 271.124 93.4821 271.152C93.488 271.182 93.484 271.212 93.4706 271.239C93.4572 271.266 93.4352 271.287 93.4082 271.3C92.8494 271.595 92.2645 271.838 91.661 272.026ZM90.317 271.125C90.227 271.143 90.1434 271.185 90.0751 271.246C90.052 271.267 90.0352 271.294 90.0269 271.323C90.0185 271.353 90.019 271.385 90.028 271.414C90.0394 271.498 90.0702 271.577 90.1181 271.646C90.166 271.715 90.2296 271.771 90.3036 271.811C90.7404 272.026 91.7013 271.811 92.9176 271.246C92.0596 271.057 91.1754 271.016 90.3036 271.125H90.317Z" fill="#F2F4F7"/>
<path d="M93.4089 271.32H93.3551C92.5823 271.199 90.8754 270.346 90.8015 269.66C90.8015 269.499 90.8418 269.277 91.2047 269.136C91.334 269.079 91.4735 269.05 91.6146 269.05C91.7557 269.05 91.8953 269.079 92.0246 269.136C92.9183 269.539 93.4828 271.045 93.503 271.112C93.5162 271.132 93.5233 271.155 93.5233 271.179C93.5233 271.203 93.5162 271.226 93.503 271.246C93.4945 271.265 93.4815 271.282 93.4651 271.295C93.4487 271.308 93.4294 271.316 93.4089 271.32ZM91.3929 269.378H91.3122C91.0703 269.472 91.077 269.58 91.0838 269.613C91.1308 270.016 92.3202 270.735 93.1401 270.957C92.9015 270.321 92.472 269.774 91.9103 269.391C91.7452 269.324 91.5612 269.319 91.3929 269.378Z" fill="#F2F4F7"/>
<path d="M113.038 99.0865C109.31 99.1671 105.592 99.5039 101.91 100.094C100.566 100.336 99.1747 100.632 97.8777 100.934C96.8764 102.003 95.136 107.406 97.0915 111.062C98.3817 108.898 100.552 107.03 101.997 106.814C103.583 107.245 105.149 109.644 105.532 111.76C108.126 111.29 113.737 105.222 116.956 100.336L117.776 99.073C116.257 99.026 114.671 99.0193 113.038 99.0865Z" fill="#F2F4F7"/>
<path d="M112.695 87.1113C111.774 90.6931 110.679 97.1913 113.031 99.3283C113.031 99.3283 110.813 102.937 105.182 103.589C98.9863 104.315 101.909 100.336 101.909 100.336C105.941 99.0393 106.036 96.1363 105.511 93.4617L112.695 87.1113Z" fill="#FFC3BD"/>
<path d="M101.91 100.337C101.91 100.337 99.4306 102.951 101.789 107.729C106.776 105.41 111.553 102.662 113.032 99.342L101.91 100.337Z" fill="#FFC3BD"/>
<path opacity="0.2" d="M109.765 89.6985L105.511 93.4617C105.645 94.0895 105.719 94.7285 105.733 95.3702C107.272 95.014 109.812 93.4818 110.074 91.9026C110.12 91.1546 110.015 90.405 109.765 89.6985Z" fill="black"/>
<path d="M117.413 82.7837C115.303 88.3143 114.523 90.6999 110.774 92.7024C105.122 95.7197 98.7918 91.9162 99.2085 85.8682C99.5848 80.4183 102.972 72.2871 109.194 71.7562C110.569 71.6309 111.952 71.8604 113.213 72.4228C114.473 72.9851 115.568 73.8615 116.392 74.9681C117.217 76.0746 117.744 77.3743 117.923 78.7427C118.101 80.1111 117.926 81.5025 117.413 82.7837Z" fill="#FFC3BD"/>
<path d="M104.833 71.7426C107.36 71.158 108.193 74.0409 103.772 75.0556C99.3499 76.0703 102.777 72.2265 104.833 71.7426Z" fill="#263238"/>
<path d="M107.473 70.2176C103.864 71.5616 105.457 75.7079 109.55 76.8906C113.642 78.0733 112.278 85.0151 115.947 86.5405C119.616 88.066 121.558 76.3933 118.393 73.1005C115.228 69.8077 109.899 69.3037 107.473 70.2176Z" fill="#263238"/>
<path d="M104.1 81.171C103.364 82.0906 102.504 82.9046 101.546 83.5902C101.728 83.8299 101.96 84.0274 102.226 84.1689C102.492 84.3104 102.785 84.3927 103.085 84.4101L104.1 81.171Z" fill="#ED847E"/>
<path d="M105.027 86.9905C104.8 86.9527 104.575 86.8989 104.355 86.8292C104.32 86.8183 104.29 86.7939 104.272 86.7612C104.255 86.7284 104.251 86.6901 104.261 86.6545C104.275 86.6194 104.301 86.5905 104.334 86.5731C104.367 86.5558 104.406 86.5513 104.443 86.5604C105.009 86.7517 105.613 86.807 106.205 86.7218C106.796 86.6365 107.36 86.4132 107.85 86.0698C107.863 86.0564 107.878 86.0458 107.896 86.0385C107.913 86.0312 107.932 86.0275 107.95 86.0275C107.969 86.0275 107.988 86.0312 108.005 86.0385C108.022 86.0458 108.038 86.0564 108.051 86.0698C108.077 86.0972 108.091 86.1332 108.091 86.1706C108.091 86.208 108.077 86.2441 108.051 86.2714C107.622 86.5895 107.133 86.8172 106.613 86.9408C106.093 87.0644 105.554 87.0813 105.027 86.9905Z" fill="#263238"/>
<path d="M117.546 87.8237C116.84 88.7251 115.807 89.3118 114.67 89.4567C113.165 89.6314 112.654 88.2269 113.259 86.93C113.817 85.7607 115.275 84.242 116.686 84.6855C116.994 84.7841 117.272 84.9579 117.496 85.1912C117.719 85.4245 117.881 85.7099 117.967 86.0215C118.052 86.3332 118.058 86.6612 117.985 86.9759C117.912 87.2906 117.761 87.582 117.546 87.8237Z" fill="#FFC3BD"/>
<path d="M111.122 81.3119C111.065 81.2956 111.015 81.2624 110.978 81.2168C110.941 81.1711 110.918 81.1152 110.914 81.0565C110.833 79.7461 109.402 78.8523 109.388 78.8456C109.353 78.8284 109.321 78.804 109.295 78.7738C109.27 78.7435 109.251 78.7083 109.24 78.6703C109.229 78.6323 109.226 78.5924 109.231 78.5532C109.236 78.514 109.25 78.4763 109.271 78.4426C109.292 78.409 109.319 78.3801 109.352 78.3579C109.385 78.3356 109.422 78.3205 109.461 78.3135C109.5 78.3065 109.54 78.3078 109.578 78.3173C109.617 78.3268 109.653 78.3442 109.684 78.3685C109.758 78.4088 111.377 79.4235 111.472 81.0162C111.475 81.0534 111.471 81.0911 111.46 81.1268C111.449 81.1625 111.43 81.1955 111.406 81.2238C111.381 81.2521 111.351 81.2751 111.317 81.2914C111.284 81.3077 111.247 81.3169 111.209 81.3186L111.122 81.3119Z" fill="#263238"/>
<path d="M108.031 81.9841C107.876 82.4007 107.527 82.6561 107.251 82.562C106.976 82.4679 106.875 82.0378 107.029 81.6145C107.184 81.1911 107.533 80.9425 107.809 81.0366C108.084 81.1306 108.192 81.554 108.031 81.9841Z" fill="#263238"/>
<path d="M102.816 80.143C102.662 80.5596 102.312 80.815 102.037 80.7209C101.761 80.6268 101.66 80.1968 101.822 79.7734C101.983 79.35 102.326 79.1014 102.601 79.1955C102.877 79.2896 102.977 79.7196 102.816 80.143Z" fill="#263238"/>
<path d="M102.715 79.296L101.815 78.624C101.815 78.624 102.043 79.5783 102.715 79.296Z" fill="#263238"/>
<path d="M107.924 81.0969L107.023 80.4249C107.023 80.4249 107.252 81.4128 107.924 81.0969Z" fill="#263238"/>
<path d="M101.627 76.6081C101.578 76.6084 101.53 76.5954 101.487 76.5706C101.444 76.5458 101.409 76.51 101.385 76.467C101.349 76.4019 101.34 76.3251 101.36 76.2533C101.38 76.1815 101.428 76.1207 101.493 76.0839C101.876 75.8503 102.31 75.7124 102.758 75.682C103.206 75.6515 103.655 75.7295 104.067 75.9092C104.133 75.9431 104.184 76.0021 104.207 76.0733C104.231 76.1445 104.225 76.2221 104.191 76.2889C104.157 76.3557 104.098 76.4064 104.027 76.4297C103.956 76.453 103.878 76.4471 103.811 76.4132C103.486 76.2789 103.134 76.2235 102.784 76.2515C102.433 76.2795 102.095 76.3902 101.795 76.5745C101.746 76.6071 101.685 76.6191 101.627 76.6081Z" fill="#263238"/>
<path d="M111.99 123.124L107.924 118.117L106.789 124.078C106.789 124.078 109.739 126.517 112.03 125.583L111.99 123.124Z" fill="#FFC3BD"/>
<path d="M104.316 117.291L102.353 122.035L106.788 124.078L107.924 118.118L104.316 117.291Z" fill="#FFC3BD"/>
<path d="M275.484 160.845L274.848 160.906L275.675 169.508L276.311 169.447L275.484 160.845Z" fill="#F2F4F7"/>
<path d="M276.613 172.441L275.978 172.502L276.312 175.974L276.947 175.913L276.613 172.441Z" fill="#F2F4F7"/>
<path d="M123.214 246.948L280.075 231.872L271.1 138.491L114.239 153.567L123.214 246.948Z" fill="#F2F4F7"/>
<path opacity="0.4" d="M123.214 246.948L280.075 231.872L271.1 138.491L114.239 153.567L123.214 246.948Z" fill="#667085"/>
<path opacity="0.1" d="M197.568 196.963L114.24 153.566L271.098 138.486L197.568 196.963Z" fill="#263238"/>
<path d="M178.584 102.4L114.24 153.566L271.098 138.486L198.186 100.518C195.087 98.9031 191.586 98.2213 188.107 98.5553C184.628 98.8892 181.32 100.225 178.584 102.4Z" fill="#F2F4F7"/>
<path opacity="0.4" d="M265.272 139.05L195.996 102.971C193.658 101.752 191.018 101.237 188.394 101.489C185.77 101.741 183.275 102.748 181.212 104.389L120.06 153.001L265.272 139.05Z" fill="#667085"/>
<path d="M236.301 137.901L257.53 143.573L258.04 148.868L197.567 196.963L129.037 161.273L128.015 150.683L236.301 137.901Z" fill="white"/>
<path d="M236.302 137.901L240.314 149.016L257.531 143.573" fill="#E0E0E0"/>
<path d="M236.302 137.901L238.366 147.067L257.531 143.573" fill="#F0F0F0"/>
<path d="M210.101 186.977L280.076 231.874L123.218 246.947L183.355 189.545C186.881 186.181 191.434 184.1 196.284 183.634C201.134 183.169 206 184.346 210.101 186.977Z" fill="#E4E7EC"/>
</svg>
