<svg width="96" height="40" viewBox="0 0 96 40" fill="none" xmlns="http://www.w3.org/2000/svg">
<path d="M14.1199 6C17.6998 6 20.96 7.344 23.4371 9.56C24.0844 10.136 25.0193 10.232 25.7624 9.8L31.0603 6.736C32.3468 5.992 32.3947 4.152 31.1562 3.328C27.9919 1.232 24.1963 0 20.113 0C9.3175 0 0.535685 8.568 0.15213 19.28C0.527695 11.88 6.63262 6 14.1199 6Z" fill="#F75B00"/>
<path d="M39.5944 15.568C39.3866 14.656 38.5796 14 37.6447 14H12.1302C12.1302 14 10.3963 14 10.1645 18.832C10.1405 19.192 10.1326 19.584 10.1326 20C10.1326 21.04 10.1885 21.904 10.2924 22.616C10.7159 25.6 11.8266 25.952 12.0823 25.992H12.1302H26.7533C24.5079 30.72 19.6975 33.992 14.1199 33.992C6.63262 34 0.527695 28.12 0.15213 20.72C0.543676 31.736 9.82092 40.48 21.0239 39.976C31.2361 39.52 39.5544 31.232 40.0579 21.016C40.1538 19.136 39.9859 17.312 39.5864 15.568H39.5944Z" fill="#F75B00"/>
<path d="M48.5842 28.5426C48.3081 28.5426 48.0842 28.3187 48.0842 28.0426V12.2426C48.0842 11.9664 48.3081 11.7426 48.5842 11.7426H56.2922C58.4042 11.7426 59.9882 12.1426 61.0442 12.9426C62.1162 13.7426 62.6522 14.7986 62.6522 16.1106C62.6522 16.9906 62.4362 17.7586 62.0042 18.4146C61.5722 19.0546 60.9802 19.5506 60.2282 19.9026C59.68 20.1592 59.0724 20.3222 58.4052 20.3918C58.0478 20.4291 57.809 20.0578 57.9601 19.7317C58.0406 19.5579 58.2149 19.4454 58.4065 19.4519C59.3348 19.4837 60.1661 19.6579 60.9002 19.9746C61.7162 20.3106 62.3482 20.8146 62.7962 21.4866C63.2602 22.1586 63.4922 22.9826 63.4922 23.9586C63.4922 25.3986 62.9242 26.5266 61.7882 27.3426C60.6522 28.1426 58.9802 28.5426 56.7722 28.5426H48.5842ZM51.9482 25.1146C51.9482 25.3907 52.1721 25.6146 52.4482 25.6146H56.4842C57.4922 25.6146 58.2522 25.4546 58.7642 25.1346C59.2922 24.7986 59.5562 24.2706 59.5562 23.5506C59.5562 22.8466 59.2922 22.3266 58.7642 21.9906C58.2522 21.6386 57.4922 21.4626 56.4842 21.4626H52.1602C51.8841 21.4626 51.6602 21.2387 51.6602 20.9626V19.1306C51.6602 18.8544 51.8841 18.6306 52.1602 18.6306H55.8122C56.7562 18.6306 57.4762 18.4706 57.9722 18.1506C58.4842 17.8146 58.7402 17.3106 58.7402 16.6386C58.7402 15.9826 58.4842 15.4946 57.9722 15.1746C57.4762 14.8386 56.7562 14.6706 55.8122 14.6706H52.4482C52.1721 14.6706 51.9482 14.8944 51.9482 15.1706V25.1146ZM65.7358 28.5426C65.4597 28.5426 65.2358 28.3187 65.2358 28.0426V26.2381C65.2358 26.1005 65.2925 25.9691 65.3925 25.8746L71.7158 19.9026C72.2278 19.4386 72.6038 19.0226 72.8438 18.6546C73.0838 18.2866 73.2438 17.9506 73.3238 17.6466C73.4198 17.3426 73.4678 17.0626 73.4678 16.8066C73.4678 16.1346 73.2358 15.6226 72.7718 15.2706C72.3238 14.9026 71.6598 14.7186 70.7798 14.7186C70.0758 14.7186 69.4198 14.8546 68.8118 15.1266C68.3543 15.3368 67.9494 15.6378 67.597 16.0295C67.4192 16.2271 67.1247 16.2858 66.9013 16.1419L64.8949 14.8496C64.6601 14.6984 64.5931 14.3828 64.7667 14.1641C65.3768 13.3954 66.1732 12.7722 67.1558 12.2946C68.3078 11.7346 69.6358 11.4546 71.1398 11.4546C72.3878 11.4546 73.4758 11.6626 74.4038 12.0786C75.3478 12.4786 76.0758 13.0466 76.5878 13.7826C77.1158 14.5186 77.3798 15.3986 77.3798 16.4226C77.3798 16.9666 77.3078 17.5106 77.1638 18.0546C77.0358 18.5826 76.7638 19.1426 76.3478 19.7346C75.9478 20.3266 75.3558 20.9906 74.5718 21.7266L69.675 26.3392C69.4342 26.566 69.0435 26.5006 68.8896 26.2078L68.8367 26.1072C68.6618 25.7742 68.9032 25.3746 69.2793 25.3746H77.4318C77.7079 25.3746 77.9318 25.5984 77.9318 25.8746V28.0426C77.9318 28.3187 77.7079 28.5426 77.4318 28.5426H65.7358ZM81.092 28.5426C80.8159 28.5426 80.592 28.3187 80.592 28.0426V12.2426C80.592 11.9664 80.8159 11.7426 81.092 11.7426H88.8C90.912 11.7426 92.496 12.1426 93.552 12.9426C94.624 13.7426 95.16 14.7986 95.16 16.1106C95.16 16.9906 94.944 17.7586 94.512 18.4146C94.08 19.0546 93.488 19.5506 92.736 19.9026C92.1878 20.1592 91.5802 20.3222 90.913 20.3918C90.5556 20.4291 90.3168 20.0578 90.4679 19.7317C90.5484 19.5579 90.7227 19.4454 90.9143 19.4519C91.8426 19.4837 92.6739 19.6579 93.408 19.9746C94.224 20.3106 94.856 20.8146 95.304 21.4866C95.768 22.1586 96 22.9826 96 23.9586C96 25.3986 95.432 26.5266 94.296 27.3426C93.16 28.1426 91.488 28.5426 89.28 28.5426H81.092ZM84.456 25.1146C84.456 25.3907 84.6799 25.6146 84.956 25.6146H88.992C90 25.6146 90.76 25.4546 91.272 25.1346C91.8 24.7986 92.064 24.2706 92.064 23.5506C92.064 22.8466 91.8 22.3266 91.272 21.9906C90.76 21.6386 90 21.4626 88.992 21.4626H84.668C84.3919 21.4626 84.168 21.2387 84.168 20.9626V19.1306C84.168 18.8544 84.3919 18.6306 84.668 18.6306H88.32C89.264 18.6306 89.984 18.4706 90.48 18.1506C90.992 17.8146 91.248 17.3106 91.248 16.6386C91.248 15.9826 90.992 15.4946 90.48 15.1746C89.984 14.8386 89.264 14.6706 88.32 14.6706H84.956C84.6799 14.6706 84.456 14.8944 84.456 15.1706V25.1146Z" fill="white"/>
</svg>
